<?xml version="1.0" standalone="no"?>
<!DOCTYPE svg PUBLIC "-//W3C//DTD SVG 1.1//EN" "http://www.w3.org/Graphics/SVG/1.1/DTD/svg11.dtd" >
<svg>
<metadata>
Created by FontForge 20120731 at Fri Aug 30 18:27:25 2019
 By www
Copyright (c) 2015 by Micha Jarocin'ski. All rights reserved.
</metadata>
<defs>
<font id="Macho-Black" horiz-adv-x="346" >
  <font-face 
    font-family="Macho Black"
    font-weight="900"
    font-stretch="normal"
    units-per-em="1000"
    panose-1="0 0 10 0 0 0 0 0 0 0"
    ascent="770"
    descent="-230"
    x-height="514"
    cap-height="700"
    bbox="-508 -335 2430 1271"
    underline-thickness="170"
    underline-position="-250"
    unicode-range="U+0020-FEFF"
  />
<missing-glyph horiz-adv-x="595" 
d="M522 0h-449v733h449v-733zM97 713l200 -327l200 327h-400zM93 52l192 314l-192 315v-629zM309 366l193 -314v628zM97 20h400l-200 327z" />
    <glyph glyph-name="fi" unicode="fi" horiz-adv-x="700" 
d="M654 5q-80 -11 -149 -11q-36 0 -74 3q-5 40 -5 187v150h-134v-150q0 -131 8 -179q-82 -11 -149 -11q-38 0 -74 3q-5 40 -5 187v150h-70q2 18 4.5 31.5t4.5 22.5q1 7 7 41.5t6 64.5l48 11v24q0 109 69 172.5t192 63.5q34 0 65.5 -4.5t50.5 -10.5q-3 -102 -23 -173
q-10 7 -27 12.5t-36 5.5q-36 0 -53.5 -17.5t-17.5 -48.5v-35h54q62 0 129 6t113 12t58 8v-336q0 -115 8 -179z" />
    <glyph glyph-name="fl" unicode="fl" horiz-adv-x="726" 
d="M680 5q-80 -11 -148 -11q-37 0 -75 3q-5 40 -5 187v399q-34 16 -73 16q-46 0 -66.5 -21.5t-20.5 -65.5v-18h86q0 -41 -13 -106q-2 -9 -4.5 -22.5t-4.5 -31.5h-64v-150q0 -131 8 -179q-82 -11 -149 -11q-38 0 -74 3q-5 40 -5 187v150h-70q2 18 4.5 31.5t4.5 22.5
q1 7 7 41.5t6 64.5l48 11v20q0 111 72 175.5t198 64.5q102 0 192 -48q32 9 64 15q50 12 74 19v-567q0 -115 8 -179z" />
    <glyph glyph-name="f_f" unicode="ff" horiz-adv-x="795" 
d="M688 577.5q-18 -17.5 -18 -48.5v-35h121q0 -31 -6 -65.5t-7 -40.5q-6 -27 -9 -54h-99v-150q0 -62 3 -110t6 -69q-82 -11 -149 -11q-37 0 -75 3q-5 40 -5 187v150h-158v-150q0 -131 8 -179q-82 -11 -149 -11q-38 0 -74 3q-5 40 -5 187v150h-70q2 18 4.5 31.5t4.5 22.5
q1 7 7 41.5t6 64.5l48 11v0q3 106 75 168t195 62q87 0 166 -45q69 75 204 75q34 0 65.5 -4.5t50.5 -10.5q-3 -102 -23 -173q-10 7 -27 12.5t-36 5.5q-36 0 -54 -17.5zM450 474v55q0 21 3 40q-36 17 -76 17q-44 0 -64.5 -21.5t-20.5 -64.5v-26h158z" />
    <glyph glyph-name="f_f_i" unicode="ffi" horiz-adv-x="1077" 
d="M1033 5q-80 -11 -149 -11q-38 0 -74 3q-5 40 -5 187v150h-135v-150q0 -62 3 -110t6 -69q-82 -11 -149 -11q-37 0 -75 3q-5 40 -5 187v150h-158v-150q0 -131 8 -179q-82 -11 -149 -11q-38 0 -74 3q-5 40 -5 187v150h-70q2 18 4.5 31.5t4.5 22.5q1 7 7 41.5t6 64.5l48 11v0
q3 106 75 168t195 62q87 0 166 -45q69 75 204 75q34 0 65.5 -4.5t50.5 -10.5q-3 -102 -23 -173q-10 7 -27 12.5t-36 5.5q-36 0 -54 -17.5t-18 -48.5v-35h55q62 0 128.5 6t112.5 12t59 8v-336q0 -131 8 -179zM450 474v55q0 21 3 40q-36 17 -76 17q-44 0 -64.5 -21.5
t-20.5 -64.5v-26h158z" />
    <glyph glyph-name="f_f_l" unicode="ffl" horiz-adv-x="1105" 
d="M1059 5q-80 -11 -149 -11q-37 0 -74 3q-5 40 -5 187v399q-34 16 -73 16q-46 0 -67 -21.5t-21 -65.5v-18h87q0 -31 -6 -65.5t-7 -40.5q-2 -9 -4.5 -22.5t-4.5 -31.5h-65v-150q0 -62 3 -110t6 -69q-82 -11 -149 -11q-37 0 -75 3q-5 40 -5 187v150h-158v-150q0 -131 8 -179
q-82 -11 -149 -11q-38 0 -74 3q-5 40 -5 187v150h-70q2 18 4.5 31.5t4.5 22.5q1 7 7 41.5t6 64.5l48 11v0q3 106 75 168t195 62q91 0 168 -47q36 37 89.5 57t121.5 20q102 0 192 -48q32 9 64 15q57 14 74 19v-567q0 -115 8 -179zM450 474v51q0 16 4 44q-39 17 -77 17
q-44 0 -64.5 -21.5t-20.5 -64.5v-26h158z" />
    <glyph glyph-name=".notdef" horiz-adv-x="595" 
d="M522 0h-449v733h449v-733zM97 713l200 -327l200 327h-400zM93 52l192 314l-192 315v-629zM309 366l193 -314v628zM97 20h400l-200 327z" />
    <glyph glyph-name=".null" horiz-adv-x="0" 
 />
    <glyph glyph-name="nonmarkingreturn" horiz-adv-x="333" 
 />
    <glyph glyph-name="space" unicode=" " horiz-adv-x="200" 
 />
    <glyph glyph-name="exclam" unicode="!" 
d="M54 700q159 0 239 5l-56 -431q-45 -5 -78 -5q-16 0 -50 2zM95.5 11.5q-27.5 26.5 -27.5 69.5q0 46 32 77t79 31q43 0 71 -27t28 -69q0 -46 -32 -77t-79 -31q-44 0 -71.5 26.5z" />
    <glyph glyph-name="quotedbl" unicode="&#x22;" horiz-adv-x="459" 
d="M244 754q64 -4 141 -4h59l-30 -324q-78 -16 -153 -13zM20 754q64 -4 141 -4h59l-30 -324q-78 -16 -153 -13z" />
    <glyph glyph-name="numbersign" unicode="#" horiz-adv-x="660" 
d="M497 254h93q0 -36 -11 -93q-6 -32 -8 -47h-104l-24 -114h-129l24 114h-96l-24 -114h-128l24 114h-94q2 15 8 47q11 57 11 93h105l19 91h-94q2 19 8 47q11 59 11 93h105l22 106h129l-23 -106h96l23 106h128l-22 -106h94q0 -29 -12 -93l-7 -47h-105zM388 345h-96l-20 -91
h96z" />
    <glyph glyph-name="dollar" unicode="$" horiz-adv-x="606" 
d="M548.5 118q-36.5 -53 -105.5 -83t-165 -32l-25 -116l-56 12l22 106q-69 5 -121 20q-4 26 -18 78q-13 51 -18.5 82t-4.5 62q31 -25 86 -46.5t113 -23.5l22 104q-8 2 -13 4q-54 17 -93.5 35.5t-70.5 57.5t-31 100q0 65 36 114.5t103 77t157 27.5l20 91l56 -12l-17 -82
q75 -7 129 -26q-2 -39 -12.5 -90t-29.5 -96q-17 17 -49.5 32.5t-71.5 21.5l-18 -88q4 -2 12 -4q56 -18 96.5 -38.5t72 -61.5t31.5 -104q0 -69 -36.5 -122zM285.5 485.5q10.5 -8.5 31.5 -17.5l15 70q-57 -4 -57 -32q0 -12 10.5 -20.5zM362.5 196.5q16.5 10.5 16.5 26.5
q0 22 -46 39l-17 -81q30 5 46.5 15.5z" />
    <glyph glyph-name="percent" unicode="%" horiz-adv-x="997" 
d="M101.5 297.5q-39.5 26.5 -61.5 73t-22 106.5q0 65 25.5 118t69.5 83.5t98 30.5q50 0 89 -26t61.5 -73t22.5 -107q0 -64 -25.5 -117t-70 -84t-98.5 -31q-49 0 -88.5 26.5zM238.5 406q13.5 33 13.5 88q0 52 -15 82.5t-37 30.5q-23 0 -36.5 -33t-13.5 -87q0 -53 15 -83.5
t37 -30.5q23 0 36.5 33zM230 -15l450 780l87 -50l-450 -780zM696.5 17.5q-39.5 26.5 -61.5 73t-22 106.5q0 65 25.5 118t69.5 83.5t98 30.5q50 0 89 -26t61.5 -73t22.5 -107q0 -64 -25.5 -117t-70 -84t-98.5 -31q-49 0 -88.5 26.5zM833.5 126q13.5 33 13.5 88q0 52 -15 82.5
t-37 30.5q-23 0 -36.5 -33t-13.5 -87q0 -53 15 -83.5t37 -30.5q23 0 36.5 33z" />
    <glyph glyph-name="ampersand" unicode="&#x26;" horiz-adv-x="667" 
d="M684 105q-36 -61 -112 -119q-53 33 -92 60q-97 -61 -221 -61q-106 0 -171.5 44.5t-65.5 126.5q0 57 34 105.5t92 79.5q-61 88 -61 169q0 55 28.5 102t80.5 75t121 28q89 0 144.5 -47t55.5 -126q0 -63 -40 -109t-110 -67q47 -47 115 -105q20 42 20 96q0 22 -3 44
q69 -10 146 -60q-4 -94 -51 -170q75 -56 90 -66zM272 566q-10 -10 -10 -30q0 -40 47 -102q43 31 43 77q0 27 -14.5 46t-37.5 19q-18 0 -28 -10zM354 137q-81 62 -141 125q-17 -29 -17 -56q0 -38 25.5 -58t73.5 -20q31 0 59 9z" />
    <glyph glyph-name="quotesingle" unicode="'" horiz-adv-x="235" 
d="M20 754q64 -4 141 -4h59l-30 -324q-78 -16 -153 -13z" />
    <glyph glyph-name="parenleft" unicode="(" horiz-adv-x="393" 
d="M175.5 -192q-62.5 84 -104 200.5t-41.5 248.5t41.5 248.5t104 200.5t127.5 129l89 -87q-35 -48 -69.5 -123.5t-57 -171.5t-22.5 -196q0 -124 42 -261t107 -230l-89 -87q-65 45 -127.5 129z" />
    <glyph glyph-name="parenright" unicode=")" horiz-adv-x="393" 
d="M217.5 706q62.5 -84 104 -200.5t41.5 -248.5t-41.5 -248.5t-104 -200.5t-126.5 -129l-90 87q35 48 69.5 123.5t57 171.5t22.5 196q0 125 -42 262t-107 229l90 87q64 -45 126.5 -129z" />
    <glyph glyph-name="asterisk" unicode="*" horiz-adv-x="366" 
d="M346 532l-96 21l50 -84l-127 -42l-10 98l-65 -73l-78 107l90 40l-90 39l78 108l65 -74l10 98l127 -41l-50 -85l96 21v-133z" />
    <glyph glyph-name="plus" unicode="+" horiz-adv-x="660" 
d="M402 280v-226h-144v226h-224v140h224v227h145l-1 -227h224l1 -140h-225z" />
    <glyph glyph-name="comma" unicode="," horiz-adv-x="275" 
d="M30 -157q34 31 62 70.5t28 68.5q0 18 -9.5 26.5t-29.5 17.5q-25 11 -38 24t-13 42q0 40 29 67.5t77 27.5q52 0 80.5 -34t28.5 -96q0 -82 -47 -146t-107 -96q-43 5 -61 28z" />
    <glyph glyph-name="hyphen" unicode="-" horiz-adv-x="387" 
d="M353 229q-4 -19 -10 -57h-323q6 38 10 57q14 76 14 113h323q0 -37 -14 -113z" />
    <glyph glyph-name="period" unicode="." horiz-adv-x="270" 
d="M57.5 11.5q-27.5 26.5 -27.5 69.5q0 46 32 77t79 31q43 0 71 -27t28 -69q0 -46 -32 -77t-79 -31q-44 0 -71.5 26.5z" />
    <glyph glyph-name="slash" unicode="/" horiz-adv-x="369" 
d="M234 750h130l-229 -800h-130z" />
    <glyph glyph-name="zero" unicode="0" horiz-adv-x="578" 
d="M141 20q-58 35 -91 97.5t-33 142.5q0 86 38 157t103 111.5t144 40.5q74 0 133 -34.5t92.5 -97t33.5 -143.5q0 -85 -38.5 -156t-104.5 -112t-146 -41q-73 0 -131 35zM327 187q14 32 14 91t-16.5 90t-38.5 31q-23 0 -36 -31.5t-13 -91.5q0 -59 15.5 -90t37.5 -31
q23 0 37 32z" />
    <glyph glyph-name="one" unicode="1" horiz-adv-x="454" 
d="M408 5q-80 -11 -149 -11q-38 0 -74 3q-5 40 -5 187l1 130l-106 -77q-32 84 -46 201l239 125l133 -9l-1 -370q0 -131 8 -179z" />
    <glyph glyph-name="two" unicode="2" horiz-adv-x="566" 
d="M553 117.5q-8 -43.5 -9 -50.5q-7 -41 -11 -67h-472q-38 68 -44 149q99 41 179.5 97.5t80.5 103.5q0 23 -18.5 36t-52.5 13q-42 0 -79.5 -19t-58.5 -42q-19 67 -22 159q28 27 91.5 49.5t141.5 22.5q108 0 163 -46.5t55 -119.5q0 -61 -38.5 -112.5t-99.5 -90.5h202
q0 -39 -8 -82.5z" />
    <glyph glyph-name="three" unicode="3" horiz-adv-x="507" 
d="M453 253.5q46 -52.5 46 -137.5q0 -78 -40.5 -137.5t-115 -92t-172.5 -32.5q-75 0 -142 20q-23 59 -23 129q0 23 1 35q24 -7 60.5 -11.5t73.5 -4.5q66 0 101.5 20t35.5 57q0 27 -18 44.5t-49 17.5q-22 0 -39.5 -7.5t-27.5 -15.5t-12 -11q-34 63 -41 134l159 113h-232
q6 40 10 60q1 8 8 47t7 73h409q7 -53 27 -121l-183 -130q16 3 36 3q75 0 121 -52.5z" />
    <glyph glyph-name="four" unicode="4" horiz-adv-x="608" 
d="M592 57l-10 -57h-61v-111q-29 -13 -62 -22.5t-83 -21.5q-12 -3 -31 -7t-44 -11v173h-229q-43 64 -56 144l234 432l220 -29l-271 -377h122v134q27 12 57 20.5t76 19.5q50 11 67 16v-190h85q0 -37 -14 -113z" />
    <glyph glyph-name="five" unicode="5" horiz-adv-x="549" 
d="M493 255.5q48 -50.5 48 -136.5q0 -84 -47 -144t-126 -90.5t-175 -30.5q-46 0 -86.5 6.5t-67.5 15.5q-23 59 -23 129q0 23 1 35q21 -7 58.5 -12.5t78.5 -5.5q78 0 121.5 21t43.5 59q0 23 -15 38t-43 15q-20 0 -39.5 -8.5t-30.5 -18.5l-157 31l64 395h416q0 -44 -15 -119
l-10 -61h-250l-22 -119q23 23 60.5 37t82.5 14q85 0 133 -50.5z" />
    <glyph glyph-name="six" unicode="6" horiz-adv-x="611" 
d="M500 427q42 -28 65.5 -77t23.5 -110q0 -74 -33.5 -132t-94.5 -90.5t-140 -32.5q-88 0 -153.5 37.5t-101.5 107.5t-36 167q0 124 43.5 219t123.5 147t188 52q31 0 78.5 -7.5t62.5 -14.5q0 -3 9 -49q8 -42 11 -64t1 -45q-13 7 -49 13.5t-59 6.5q-111 0 -163.5 -67
t-52.5 -175q0 -13 1 -19q8 74 59 117.5t120 43.5q55 0 97 -28zM356.5 171q15.5 24 15.5 62q0 34 -12.5 56.5t-34.5 22.5q-33 0 -54.5 -31t-25.5 -83q27 -51 72 -51q24 0 39.5 24z" />
    <glyph glyph-name="seven" unicode="7" horiz-adv-x="561" 
d="M554 433q-114 -133 -179 -285.5t-86 -302.5q-24 7 -74 19q-54 13 -85.5 21.5t-60.5 22.5q50 234 211 426h-265q8 50 13 74q9 48 13.5 81.5t4.5 64.5h481q4 -44 27 -121z" />
    <glyph glyph-name="eight" unicode="8" horiz-adv-x="599" 
d="M552 319q31 -39 31 -99q0 -69 -39 -122.5t-110 -83t-162 -29.5q-76 0 -134.5 22t-90 61.5t-31.5 90.5q0 52 33 98.5t95 74.5q-44 27 -68.5 65t-24.5 92q0 65 32 116.5t92 80.5t140 29q74 0 127.5 -24.5t81.5 -66.5t28 -93q0 -48 -23 -87.5t-63 -58.5q55 -27 86 -66z
M266 546.5q-11 -10.5 -11 -28.5q0 -25 20 -43t59 -36q16 25 16 55q0 28 -15 45.5t-40 17.5q-18 0 -29 -10.5zM361 157q18 12 18 33q0 26 -27 44t-88 44l-1 1q-37 -30 -37 -67q0 -30 24 -48.5t63 -18.5q30 0 48 12z" />
    <glyph glyph-name="nine" unicode="9" horiz-adv-x="614" 
d="M449.5 532q65.5 -37 101.5 -107.5t36 -167.5q0 -124 -43.5 -218.5t-124 -146.5t-188.5 -52q-31 0 -78 7.5t-62 14.5l-9 49q-8 40 -11 62.5t-1 45.5q13 -7 48.5 -13.5t59.5 -6.5q111 0 163.5 67t52.5 175q0 13 -1 20q-8 -75 -59 -118.5t-120 -43.5q-55 0 -97.5 28t-66 77
t-23.5 110q0 74 33.5 132t95 90.5t140.5 32.5q88 0 153.5 -37zM346.5 273.5q21.5 30.5 25.5 82.5q-27 52 -72 52q-24 0 -40 -24.5t-16 -62.5q0 -34 12.5 -56t35.5 -22q33 0 54.5 30.5z" />
    <glyph glyph-name="colon" unicode=":" horiz-adv-x="270" 
d="M57.5 11.5q-27.5 26.5 -27.5 69.5q0 46 32 77t79 31q43 0 71 -27t28 -69q0 -46 -32 -77t-79 -31q-44 0 -71.5 26.5zM57.5 313.5q-27.5 26.5 -27.5 69.5q0 46 32 77t79 31q43 0 71 -27t28 -69q0 -46 -32 -77t-79 -31q-44 0 -71.5 26.5z" />
    <glyph glyph-name="semicolon" unicode=";" horiz-adv-x="275" 
d="M57.5 313.5q-27.5 26.5 -27.5 69.5q0 46 32 77t79 31q43 0 71 -27t28 -69q0 -46 -32 -77t-79 -31q-44 0 -71.5 26.5zM30 -157q34 31 62 70.5t28 68.5q0 18 -9.5 26.5t-29.5 17.5q-25 11 -38 24t-13 42q0 40 29 67.5t77 27.5q52 0 80.5 -34t28.5 -96q0 -82 -47 -146
t-107 -96q-43 5 -61 28z" />
    <glyph glyph-name="less" unicode="&#x3c;" horiz-adv-x="660" 
d="M562 439l-238 -89l238 -89v-164l-464 204v98l464 204v-164z" />
    <glyph glyph-name="equal" unicode="=" horiz-adv-x="660" 
d="M34 310h593v-140h-593v140zM34 530h593v-140h-593v140z" />
    <glyph glyph-name="greater" unicode="&#x3e;" horiz-adv-x="660" 
d="M562 399v-98l-464 -204v164l238 89l-238 89v164z" />
    <glyph glyph-name="question" unicode="?" horiz-adv-x="400" 
d="M341.5 666.5q53.5 -47.5 53.5 -125.5q0 -66 -39 -104.5t-107 -49.5v-71v-25q-37 -16 -106 -31l-54 -14v70v144q128 0 128 55q0 21 -18.5 33t-55.5 12q-38 0 -70.5 -11.5t-48.5 -25.5q-16 56 -19 132q25 22 79.5 40.5t112.5 18.5q91 0 144.5 -47.5zM246 162q28 -27 28 -69
q0 -46 -32 -77t-79 -31q-44 0 -71.5 26.5t-27.5 69.5q0 46 32 77t79 31q43 0 71 -27z" />
    <glyph glyph-name="at" unicode="@" horiz-adv-x="956" 
d="M733 636q92 -48 142.5 -135t50.5 -200q0 -79 -29.5 -138t-83 -91t-122.5 -32q-71 0 -113 31.5t-58 88.5q-14 -46 -44.5 -73.5t-70.5 -27.5q-49 0 -78.5 39t-29.5 104t31.5 117t88.5 81t130 29q67 0 128 -24l-18 -124q-3 -18 -3 -35q0 -36 10.5 -58.5t30.5 -22.5
q30 0 47.5 42.5t17.5 105.5q0 64 -32 114t-88.5 78t-129.5 28q-89 0 -160.5 -42.5t-112 -115t-40.5 -159.5q0 -81 32 -147t89.5 -104t129.5 -38q103 0 131.5 31t30.5 32q1 -9 1 -27q0 -49 -22 -148q-2 -1 -21.5 -11.5t-61.5 -20t-92 -9.5q-108 0 -196 56t-138 152.5
t-50 211.5q0 135 64.5 247t177 177.5t250.5 65.5q119 0 211 -48zM499 220q11 27 18 78h-11q-32 0 -49.5 -15.5t-17.5 -43.5q0 -21 9 -33.5t24 -12.5q16 0 27 27z" />
    <glyph glyph-name="A" unicode="A" horiz-adv-x="773" 
d="M465 140h-194l-44 -146l-214 6l264 700q123 0 215 11l269 -711l-256 -15zM433 265l-57 222l-67 -222h124z" />
    <glyph glyph-name="B" unicode="B" horiz-adv-x="734" 
d="M681 341q31 -40 31 -104q0 -70 -40 -125t-124 -87t-212 -32q-75 0 -147 3.5t-116 8.5v678q44 9 115 16.5t141 7.5q171 0 258.5 -45t87.5 -135q0 -42 -20 -76t-57 -57q52 -13 83 -53zM296 432q20 -2 33 -2q52 0 81.5 17.5t29.5 48.5q0 27 -22 39.5t-70 12.5q-19 0 -52 -3
v-113zM432 177q35 21 35 58q0 31 -26.5 46t-82.5 15q-36 0 -62 -4v-134q24 -2 39 -2q62 0 97 21z" />
    <glyph glyph-name="C" unicode="C" horiz-adv-x="657" 
d="M195 27.5q-77 42.5 -121 120.5t-44 180q0 115 52.5 203t142 136t197.5 48q65 0 121 -15.5t88 -37.5q-2 -44 -15 -109.5t-37 -118.5q-18 31 -58.5 56t-93.5 25q-71 0 -115 -45t-44 -119q0 -83 53 -121.5t127 -38.5q58 0 108 21t71 50q3 -16 3 -33q0 -55 -30 -163
q-33 -33 -94.5 -57t-136.5 -24q-97 0 -174 42.5z" />
    <glyph glyph-name="D" unicode="D" horiz-adv-x="793" 
d="M648 626q115 -85 115 -243q0 -114 -56.5 -204.5t-159.5 -141.5t-236 -51q-61 0 -238 13v702q180 10 252 10q208 0 323 -85zM477 230.5q40 44.5 40 124.5q0 84 -45.5 120t-142.5 36h-18v-321q26 -4 47 -4q79 0 119 44.5z" />
    <glyph glyph-name="E" unicode="E" horiz-adv-x="594" 
d="M570 149q0 -22 -2 -50.5t-3 -40.5q-4 -37 -5 -58h-487v700h484q2 -22 2 -35q0 -30 -6 -88l-4 -57h-238v-94h196q1 -9 1 -27q0 -22 -4 -68l-3 -45h-190v-101h258q1 -12 1 -36z" />
    <glyph glyph-name="F" unicode="F" horiz-adv-x="576" 
d="M560 661q0 -43 -5 -98q-4 -42 -5 -63h-239v-102h185q1 -12 1 -37q0 -41 -5 -93q-2 -20 -4 -60h-177v-208q-75 -9 -145 -9q-52 0 -93 4v705h486q1 -13 1 -39z" />
    <glyph glyph-name="G" unicode="G" horiz-adv-x="751" 
d="M712 0q-39 -5 -90 -5q-38 0 -57 2l-36 39q-75 -51 -173 -51q-91 0 -165.5 43t-117.5 121t-43 179q0 115 53 203t146.5 136t209.5 48q71 0 135 -16.5t99 -36.5q-1 -38 -12.5 -95t-32.5 -103q-28 23 -77.5 42t-104.5 19q-84 0 -131 -47t-47 -127q0 -93 53 -136.5t127 -43.5
q18 0 36 3v86h-89l8 47q12 62 12 93h297v-400z" />
    <glyph glyph-name="H" unicode="H" horiz-adv-x="834" 
d="M761 705v-521v-184q-75 -9 -145 -9q-52 0 -93 4v275h-212v-270q-75 -9 -145 -9q-52 0 -93 4v519v186q160 0 238 5v-255h212v250q161 0 238 5z" />
    <glyph glyph-name="I" unicode="I" horiz-adv-x="384" 
d="M311 184v-184q-75 -9 -145 -9q-52 0 -93 4v189v330v186q160 0 238 5v-191v-330z" />
    <glyph glyph-name="J" unicode="J" horiz-adv-x="503" 
d="M448 705v-416q0 -157 -63 -230.5t-190 -73.5q-83 0 -148 24q-31 79 -31 168q0 16 2 46q3 -2 17 -9t37 -13t50 -6q47 0 67.5 24t20.5 75v406q160 0 238 5z" />
    <glyph glyph-name="K" unicode="K" horiz-adv-x="769" 
d="M346 289h-35v-289q-75 -9 -145 -9q-52 0 -93 4v519v186q160 0 238 5v-266h42l167 261h244l-212 -313l225 -387l-269 -15z" />
    <glyph glyph-name="L" unicode="L" horiz-adv-x="568" 
d="M567 161q0 -32 -6 -98q-4 -42 -5 -63h-483v700q160 0 238 5v-505h254q2 -26 2 -39z" />
    <glyph glyph-name="M" unicode="M" horiz-adv-x="987" 
d="M712 -9l-22 437l-134 -426q-90 -16 -168 -13l-125 454l-39 -451q-95 8 -203 10l102 688q121 7 255 26l109 -412l149 404q105 -8 237 -8l81 -689q-109 -20 -242 -20z" />
    <glyph glyph-name="N" unicode="N" horiz-adv-x="809" 
d="M736 705v-705l-157 -9l-306 374v-365q-69 -8 -122 -8q-43 0 -78 4v704q114 0 170 4l293 -350v160h1h-1v186q135 0 200 5z" />
    <glyph glyph-name="O" unicode="O" horiz-adv-x="783" 
d="M189.5 28q-75.5 43 -117.5 120t-42 176q0 109 51 198.5t139 141t195 51.5q97 0 174 -41.5t120.5 -117.5t43.5 -176q0 -109 -51.5 -199.5t-141.5 -143t-199 -52.5q-96 0 -171.5 43zM481.5 229.5q34.5 44.5 33.5 114.5q1 69 -32.5 120t-91.5 51q-54 0 -88.5 -44.5
t-34.5 -114.5t33.5 -120.5t91.5 -50.5q54 0 88.5 44.5z" />
    <glyph glyph-name="P" unicode="P" horiz-adv-x="691" 
d="M591 643q95 -64 95 -184q0 -80 -40.5 -147t-114 -106t-168.5 -39q-26 0 -52 3v-170q-75 -9 -145 -9q-52 0 -93 4v685q46 10 113 18.5t132 8.5q178 0 273 -64zM420.5 371.5q28.5 24.5 28.5 68.5q0 43 -25.5 65t-71.5 22q-26 0 -51 -5v-172q22 -3 39 -3q52 0 80.5 24.5z
" />
    <glyph glyph-name="Q" unicode="Q" horiz-adv-x="783" 
d="M730 -158q-24 -20 -71 -34t-98 -14q-80 0 -131 36t-51 96q0 28 12 60q-10 -1 -30 -1q-96 0 -171.5 43t-117.5 120t-42 176q0 109 51 198.5t139 141t195 51.5q97 0 174 -41.5t120.5 -117.5t43.5 -176q0 -123 -65.5 -221.5t-173.5 -143.5q1 -30 34 -47t81 -17q40 0 75 11.5
t56 26.5q2 -51 -30 -147zM301.5 235.5q33.5 -50.5 91.5 -50.5q54 0 88.5 44.5t33.5 114.5q1 69 -32.5 120t-91.5 51q-54 0 -88.5 -44.5t-34.5 -114.5t33.5 -120.5z" />
    <glyph glyph-name="R" unicode="R" horiz-adv-x="750" 
d="M356 249q-15 0 -45 2v-251q-75 -9 -145 -9q-52 0 -93 4v685q41 10 112 18.5t147 8.5q176 0 268.5 -51t92.5 -155q0 -64 -33 -115.5t-94 -79.5l201 -306l-294 -15zM301 393q19 -4 42 -4q52 0 82 21t30 61q0 68 -97 68q-33 0 -57 -6v-140z" />
    <glyph glyph-name="S" unicode="S" horiz-adv-x="597" 
d="M87 19q-30 81 -30 169q0 30 2 45q34 -22 87.5 -40.5t110.5 -18.5q43 0 68 11t25 30q0 18 -21.5 30.5t-80.5 33.5q-50 18 -88.5 39t-69 63t-30.5 106q0 68 36.5 119.5t104 80t159.5 28.5q55 0 105 -9.5t80 -21.5q-1 -37 -12 -89t-30 -99q-24 19 -68 33.5t-93 14.5
q-57 0 -57 -29q0 -17 20.5 -28.5t79.5 -34.5q53 -21 91.5 -43t69 -66t30.5 -112q0 -73 -37 -129t-106.5 -86.5t-162.5 -30.5q-95 0 -183 34z" />
    <glyph glyph-name="T" unicode="T" horiz-adv-x="677" 
d="M672 661q0 -32 -6 -98q-4 -42 -5 -63h-204v-500q-75 -9 -145 -9q-52 0 -93 4v505h-214q1 24 5 67q7 58 7 98q0 11 -2 35h655q2 -26 2 -39z" />
    <glyph glyph-name="U" unicode="U" horiz-adv-x="773" 
d="M724 705v-370q0 -165 -87 -257.5t-243 -92.5q-105 0 -181.5 41.5t-117 120.5t-40.5 188v365q160 0 238 5v-370q0 -71 28 -110.5t78 -39.5t77.5 39.5t27.5 110.5v179v0v0v186q147 0 220 5z" />
    <glyph glyph-name="V" unicode="V" horiz-adv-x="734" 
d="M739 700l-248 -700h-246l-251 700q78 0 138.5 3t123.5 11l129 -463l119 449h235z" />
    <glyph glyph-name="W" unicode="W" horiz-adv-x="1134" 
d="M1127 700l-226 -700h-242l-95 375l-119 -375h-223l-205 700q153 0 262 14l75 -462l133 448h204l102 -445l99 445h235z" />
    <glyph glyph-name="X" unicode="X" horiz-adv-x="748" 
d="M484 -15l-125 241l-116 -226h-246l232 354l-228 346q158 0 278 15l115 -217l105 202h245l-216 -327l241 -373z" />
    <glyph glyph-name="Y" unicode="Y" horiz-adv-x="734" 
d="M486 184v-184q-75 -9 -145 -9q-52 0 -93 4v245l-254 460q79 0 141 3t127 11l114 -293l105 279h257l-252 -460v-56z" />
    <glyph glyph-name="Z" unicode="Z" horiz-adv-x="656" 
d="M641 153q0 -31 -6 -93l-4 -60h-561q-41 73 -50 160l303 360h-272q1 20 5 60q6 60 6 88q0 12 -2 32h535q7 -62 32 -144l-301 -366h313q2 -24 2 -37z" />
    <glyph glyph-name="bracketleft" unicode="[" horiz-adv-x="422" 
d="M423 -133q0 -37 -14 -113q-2 -10 -4.5 -24t-4.5 -33h-327v1120h350q0 -37 -14 -113q-2 -10 -4.5 -24t-4.5 -33h-142v-780h165z" />
    <glyph glyph-name="backslash" unicode="\" horiz-adv-x="369" 
d="M234 -50l-229 800h130l229 -800h-130z" />
    <glyph glyph-name="bracketright" unicode="]" horiz-adv-x="422" 
d="M349 -303h-351q0 37 14 113q4 19 10 57h142v780h-166q0 37 14 113q4 19 10 57h327v-1120z" />
    <glyph glyph-name="asciicircum" unicode="^" horiz-adv-x="559" 
d="M556 448l-99 -83l-178 181l-177 -180l-99 83l217 251h119z" />
    <glyph glyph-name="underscore" unicode="_" horiz-adv-x="500" 
d="M500 -160h-500v140h500v-140z" />
    <glyph glyph-name="grave" unicode="`" horiz-adv-x="600" 
d="M29 770l27 -3q16 -1 80.5 -7t121.5 -7l99 -173q-41 -7 -86 -7q-15 0 -41 2z" />
    <glyph glyph-name="a" unicode="a" horiz-adv-x="563" 
d="M361 -15q-29 35 -48 94q-25 -47 -65 -70.5t-87 -23.5q-61 0 -101.5 37t-40.5 103q0 83 67 130t176 47q23 0 45 -2q-9 68 -91 68q-35 0 -74.5 -12t-66.5 -26q-15 52 -18 132q36 26 99.5 46.5t135.5 20.5q109 0 167.5 -54.5t58.5 -173.5v-85q0 -125 27 -185
q-80 -40 -184 -46zM303 215q-16 2 -28 2q-34 0 -52 -10.5t-18 -30.5q0 -15 10 -24.5t28 -9.5q47 0 60 73z" />
    <glyph glyph-name="b" unicode="b" horiz-adv-x="627" 
d="M513 497.5q46 -31.5 71 -86.5t25 -125q0 -88 -41 -156.5t-119 -106.5t-186 -38q-102 0 -209 35l-1 680v8q30 13 63.5 23t82.5 21q38 8 74 18v-70v-239q20 32 54.5 50t80.5 18q59 0 105 -31.5zM384 267q0 43 -14 67.5t-39 24.5q-24 0 -40.5 -23t-16.5 -57v-123l9 -1
q101 0 101 112z" />
    <glyph glyph-name="c" unicode="c" horiz-adv-x="472" 
d="M138 17.5q-58 32.5 -90.5 91.5t-32.5 136q0 86 40 150.5t108 99t150 34.5q47 0 84.5 -9.5t62.5 -22.5q4 -80 -35 -182q-15 17 -41.5 30.5t-55.5 13.5q-42 0 -67.5 -26t-25.5 -69q0 -48 29 -71.5t75 -23.5q35 0 70 13t50 27q3 -18 3 -36q0 -45 -16 -127
q-25 -26 -70.5 -43.5t-105.5 -17.5q-74 0 -132 32.5z" />
    <glyph glyph-name="d" unicode="d" horiz-adv-x="630" 
d="M416 -15q-26 32 -44 81q-20 -37 -58.5 -59t-92.5 -22q-60 0 -106.5 31.5t-71.5 86.5t-25 125q0 87 39.5 154.5t115 106t180.5 40.5v179q29 13 62 22.5t84 21.5q39 8 74 18v-276v-278v0q0 -125 27 -185q-80 -40 -184 -46zM336.5 178q16.5 23 16.5 58v132h-9
q-101 0 -101 -120q0 -42 14 -67.5t39 -25.5q24 0 40.5 23z" />
    <glyph glyph-name="e" unicode="e" horiz-adv-x="521" 
d="M432 160.5q43 12.5 64 29.5q2 -20 2 -30q0 -35 -13 -106q-26 -28 -84.5 -48.5t-121.5 -20.5q-76 0 -136 30.5t-94 89.5t-34 140t39.5 146t106 101.5t144.5 36.5q67 0 114 -27.5t70.5 -74t23.5 -103.5q0 -30 -6.5 -54.5t-14.5 -36.5l-277 -4q9 -45 40.5 -63t85.5 -18
q48 0 91 12.5zM237 354q-17 -24 -23 -61l95 5q2 18 2 29q0 24 -9.5 37.5t-27.5 13.5q-20 0 -37 -24z" />
    <glyph glyph-name="f" unicode="f" horiz-adv-x="416" 
d="M309.5 577.5q-17.5 -17.5 -17.5 -48.5v-35h120q0 -31 -6 -65.5t-7 -40.5q-6 -27 -9 -54h-98v-150q0 -131 8 -179q-82 -11 -149 -11q-38 0 -74 3q-5 40 -5 187v150h-70q2 18 4.5 31.5t4.5 22.5q1 7 7 41.5t6 64.5l48 11v24q0 109 69 172.5t192 63.5q34 0 65.5 -4.5
t50.5 -10.5q-3 -102 -23 -173q-10 7 -27 12.5t-36 5.5q-36 0 -53.5 -17.5z" />
    <glyph glyph-name="g" unicode="g" horiz-adv-x="593" 
d="M559 72q30 -32 30 -86q0 -58 -35 -103.5t-105 -71.5t-172 -26q-78 0 -139 17.5t-95 49.5t-34 72q0 35 29.5 64.5t76.5 45.5q-35 32 -35 83q0 60 48 93q-85 39 -85 132q0 60 35.5 102t93 63.5t123.5 21.5q47 0 83 -10h210q0 -27 -12 -81q-6 -30 -8 -41l-69 36
q18 -31 18 -74q0 -87 -73 -130.5t-179 -43.5q-23 0 -34 1q1 -12 17 -21.5t62 -18.5l153 -29q66 -13 96 -45zM249.5 388.5q-16.5 -12.5 -16.5 -33.5q0 -19 11 -30.5t29 -11.5q20 0 37 12.5t17 34.5q0 19 -11.5 30t-29.5 11q-20 0 -36.5 -12.5zM348.5 -84q19.5 10 19.5 30
q0 10 -7.5 15t-25.5 9l-103 20q-20 -15 -20 -34q0 -21 20.5 -35.5t66.5 -14.5q30 0 49.5 10z" />
    <glyph glyph-name="h" unicode="h" horiz-adv-x="651" 
d="M608 64.5q3 -44.5 7 -53.5q-122 -22 -225 -19q-5 43 -5 192v110q0 23 -11.5 36t-32.5 13q-30 0 -48.5 -24t-18.5 -64v-71q0 -115 8 -179q-80 -11 -149 -11q-36 0 -74 3q-5 40 -5 187v524q30 13 63.5 23t82.5 21q38 8 74 18v-345q20 49 64 76.5t99 27.5q79 0 123.5 -53.5
t44.5 -152.5v-139q0 -75 3 -119.5z" />
    <glyph glyph-name="i" unicode="i" horiz-adv-x="328" 
d="M282 5q-80 -11 -149 -11q-36 0 -74 3q-5 40 -5 187v284q30 13 63.5 23t82.5 21q38 8 74 18v-346q0 -115 8 -179zM78.5 602q-34.5 30 -34.5 74q0 43 34.5 72t85.5 29t85.5 -29t34.5 -72q0 -44 -35 -74t-86 -30q-50 0 -84.5 30z" />
    <glyph glyph-name="j" unicode="j" horiz-adv-x="326" 
d="M116.5 491q33.5 10 82.5 21q38 8 74 18v-474q0 -101 -26 -160.5t-78.5 -85t-134.5 -25.5q-50 65 -50 119q0 9 1 14q35 19 51.5 51t16.5 84v415q30 13 63.5 23zM77.5 602q-34.5 30 -34.5 74q0 43 34.5 72t85.5 29t85.5 -29t34.5 -72q0 -44 -35 -74t-86 -30q-50 0 -84.5 30
z" />
    <glyph glyph-name="k" unicode="k" horiz-adv-x="643" 
d="M664 13q-127 -24 -249 -21l-102 224l-39 -8v-24q0 -115 8 -179q-80 -11 -149 -11q-36 0 -74 3q-5 40 -5 187v524q30 13 63.5 23t82.5 21q38 8 74 18v-427l34 7l103 167q102 -4 153 -4l64 1l-156 -217z" />
    <glyph glyph-name="l" unicode="l" horiz-adv-x="328" 
d="M282 5q-80 -11 -149 -11q-36 0 -74 3q-5 40 -5 187v524q30 13 63.5 23t82.5 21q38 8 74 18v-586q0 -115 8 -179z" />
    <glyph glyph-name="m" unicode="m" horiz-adv-x="978" 
d="M934 64.5q3 -44.5 7 -53.5q-120 -22 -224 -19q-6 34 -6 192v110q0 23 -10.5 36t-30.5 13q-29 0 -47.5 -24t-18.5 -64v-71q0 -75 3 -119.5t7 -53.5q-120 -22 -224 -19q-5 39 -6 192v110q0 23 -10.5 36t-30.5 13q-28 0 -46.5 -24t-18.5 -64v-71q0 -131 8 -179
q-82 -11 -149 -11q-38 0 -74 3q-5 27 -5 187v102q0 58 -5.5 98t-15.5 91q34 15 76.5 25.5t49.5 12.5q32 6 64 15q28 -63 39 -115q19 54 66.5 85t107.5 31q55 0 93 -27.5t57 -79.5q23 51 70.5 79t106.5 28q77 0 120.5 -53.5t43.5 -152.5v-139q0 -75 3 -119.5z" />
    <glyph glyph-name="n" unicode="n" horiz-adv-x="655" 
d="M611 64.5q3 -44.5 7 -53.5q-120 -22 -224 -19q-5 39 -6 192v110q0 23 -11.5 36t-32.5 13q-29 0 -47.5 -24t-18.5 -64v-71q0 -131 8 -179q-82 -11 -149 -11q-38 0 -74 3q-5 27 -5 187v102q0 58 -5.5 98t-15.5 91q34 15 76.5 25.5t49.5 12.5q32 6 64 15q28 -63 39 -115
q19 54 66.5 85t107.5 31q79 0 123.5 -53.5t44.5 -152.5v-139q0 -75 3 -119.5z" />
    <glyph glyph-name="o" unicode="o" horiz-adv-x="587" 
d="M142 17.5q-60 32.5 -93.5 91t-33.5 132.5q0 81 39 146.5t106.5 103.5t148.5 38q76 0 136 -32.5t94 -90.5t34 -133q0 -80 -39 -146t-107 -104t-150 -38q-75 0 -135 32.5zM337.5 180q15.5 25 15.5 77t-18 77t-45 25q-55 0 -55 -102q0 -53 16.5 -77.5t42.5 -24.5
q28 0 43.5 25z" />
    <glyph glyph-name="p" unicode="p" horiz-adv-x="631" 
d="M573.5 132q-39.5 -67 -115 -105.5t-180.5 -40.5v-2q0 -76 3 -120.5t6 -52.5q-112 -22 -224 -19q-5 42 -5 192v302q0 58 -5.5 98t-15.5 91q34 15 76.5 25.5t49.5 12.5q32 6 64 15q22 -47 31 -82q19 39 58 61t94 22q60 0 106.5 -31.5t71.5 -86.5t25 -125q0 -87 -39.5 -154z
M294.5 336q-16.5 -23 -16.5 -57v-123l9 -1q101 0 101 112q0 42 -14 67t-39 25q-24 0 -40.5 -23z" />
    <glyph glyph-name="q" unicode="q" horiz-adv-x="626" 
d="M478 518.5q55 -10.5 95 -24.5v-662q-29 -13 -61.5 -22.5t-83.5 -21.5q-37 -7 -75 -18v292q-18 -36 -52 -56.5t-82 -20.5q-59 0 -105 31.5t-71 86.5t-25 125q0 89 41 157t119 106t187 38q58 0 113 -10.5zM336.5 178q16.5 23 16.5 58v132h-9q-101 0 -101 -120
q0 -42 14 -67.5t39 -25.5q24 0 40.5 23z" />
    <glyph glyph-name="r" unicode="r" horiz-adv-x="472" 
d="M419 268q-37 22 -67 22q-34 0 -54 -28t-20 -78v0q0 -131 8 -179q-82 -11 -149 -11q-38 0 -74 3q-5 27 -5 187v102q0 58 -5.5 98t-15.5 91q34 15 76.5 25.5t49.5 12.5q32 6 64 15q28 -63 39 -115q30 55 84 85.5t120 30.5q4 -118 -51 -261z" />
    <glyph glyph-name="s" unicode="s" horiz-adv-x="478" 
d="M115 -8q-39 7 -65 16q-26 66 -26 146q0 26 1 40q33 -22 81.5 -39.5t97.5 -17.5q24 0 38 5t14 14t-14 16.5t-57 24.5q-38 15 -67.5 31.5t-53 48.5t-23.5 79q0 51 30 90t87.5 61t136.5 22q43 0 84 -6t64 -14q0 -69 -36 -155q-18 13 -49.5 24t-62.5 11q-22 0 -34 -5t-12 -14
q0 -10 14.5 -17.5t55.5 -23.5q61 -23 103 -57t42 -101q0 -52 -31.5 -94.5t-91 -67t-142.5 -24.5q-45 0 -84 7z" />
    <glyph glyph-name="t" unicode="t" horiz-adv-x="483" 
d="M471 166q0 -46 -21 -132q-25 -19 -67.5 -34t-92.5 -15q-85 0 -149 47t-64 159v143h-70l9 54q14 70 14 106l69 15l19 115q41 18 119 35l60 15v-180h172q0 -41 -13 -106l-9 -54h-150v-83q0 -44 22.5 -64.5t48.5 -20.5q46 0 101 30q2 -20 2 -30z" />
    <glyph glyph-name="u" unicode="u" horiz-adv-x="647" 
d="M433 -15q-34 41 -53 110q-21 -52 -67 -81t-105 -29q-79 0 -123.5 53.5t-44.5 152.5v277q30 13 63.5 23t82.5 21q38 8 74 18v-310q0 -23 11.5 -36t32.5 -13q30 0 48.5 24t18.5 64v71q0 115 -8 179q80 11 148 11q37 0 75 -3q5 -40 5 -187v-114q0 -127 27 -185
q-80 -40 -185 -46z" />
    <glyph glyph-name="v" unicode="v" horiz-adv-x="611" 
d="M559 513l64 1l-123 -309q-39 -99 -54.5 -144t-15.5 -49q-124 -23 -235 -20q-4 8 -23 53.5t-58 144.5l-122 305q126 8 239 25l90 -323l85 320q102 -4 153 -4z" />
    <glyph glyph-name="w" unicode="w" horiz-adv-x="931" 
d="M859 513l64 1l-113 -344q-20 -59 -31.5 -101t-13.5 -57q-93 -17 -203 -17q-12 18 -31 64.5t-39 110.5l-30 95l-32 -95q-17 -50 -31 -98t-17 -68q-66 -10 -131 -10q-34 0 -65 3q-25 47 -69 173l-114 325q125 8 238 25l54 -293l78 255q26 11 52 17t76 16l66 14l85 -302
l55 290q102 -4 152 -4z" />
    <glyph glyph-name="x" unicode="x" horiz-adv-x="644" 
d="M381 -8l-72 169l-88 -167q-105 7 -211 9l166 243l-156 253q136 9 258 27l59 -157l81 154q105 -7 211 -9l-153 -240l168 -259q-118 -23 -263 -23z" />
    <glyph glyph-name="y" unicode="y" horiz-adv-x="611" 
d="M559 513l64 1l-153 -382q-36 -88 -65.5 -187t-40.5 -160q-163 17 -221 58q34 98 115 197q-56 -2 -84 -1l-182 456q126 8 239 25l90 -323l85 320q102 -4 153 -4z" />
    <glyph glyph-name="z" unicode="z" horiz-adv-x="556" 
d="M531 54q-2 -9 -4.5 -22.5t-4.5 -31.5h-463q-39 69 -46 150l226 204h-197q2 18 4.5 31.5t4.5 22.5q13 65 13 106h436q7 -58 28 -126l-239 -228h255q0 -41 -13 -106z" />
    <glyph glyph-name="braceleft" unicode="{" horiz-adv-x="401" 
d="M292 -126q33 -13 107 -13q4 -56 -22 -169q-155 0 -233.5 51t-78.5 169q0 27 4 53t8.5 48t5.5 28q15 66 15 96q0 35 -17 48t-60 13v118q43 0 60 13t17 48q0 31 -15 97q-1 7 -6.5 33.5t-8.5 50t-3 44.5q0 118 78.5 169t233.5 51q23 -99 23 -152l-1 -17q-74 0 -107 -13.5
t-33 -45.5q0 -11 4.5 -25t10.5 -28q13 -31 20 -56.5t7 -60.5q0 -78 -35 -115.5t-93 -51.5q58 -14 93 -51t35 -114q0 -36 -7 -62t-20 -57q-8 -18 -11.5 -30t-3.5 -24q0 -32 33 -45z" />
    <glyph glyph-name="bar" unicode="|" horiz-adv-x="296" 
d="M73 750h150v-950h-150v950z" />
    <glyph glyph-name="braceright" unicode="}" horiz-adv-x="401" 
d="M320 329q17 -13 60 -13v-118q-43 0 -60 -13t-17 -48q0 -20 4.5 -45.5t9.5 -51.5q9 -42 14 -70t5 -58q0 -118 -78.5 -169t-234.5 -51q-22 102 -22 152q0 11 1 17q74 0 106.5 13.5t32.5 45.5q0 21 -15 53q-12 30 -19 56t-7 61q0 78 35 115.5t92 51.5q-57 14 -92 51t-35 114
q0 37 7 63t19 56q15 32 15 54q0 32 -33 45t-106 13q-4 54 21 169q156 0 234.5 -51t78.5 -169q0 -30 -5 -59t-14 -70q-5 -26 -9.5 -51.5t-4.5 -44.5q0 -35 17 -48z" />
    <glyph glyph-name="asciitilde" unicode="~" horiz-adv-x="660" 
d="M33 271q18 100 60.5 145.5t115.5 45.5q44 0 80 -11t80 -30q26 -12 41 -17t28 -5q16 0 34.5 14.5t35.5 46.5l119 -31q-18 -98 -64 -143.5t-120 -45.5q-39 0 -71.5 10.5t-69.5 28.5q-27 13 -41.5 18.5t-27.5 5.5q-20 0 -42.5 -15t-38.5 -48z" />
    <glyph glyph-name="uni00A0" unicode="&#xa0;" horiz-adv-x="200" 
 />
    <glyph glyph-name="exclamdown" unicode="&#xa1;" 
d="M251 502q28 -27 28 -69q0 -46 -32 -77t-79 -31q-43 0 -71 27t-28 69q0 46 32 77t79 31q43 0 71 -27zM293 -186q-159 0 -239 -5l56 431q45 5 78 5q17 0 49 -2z" />
    <glyph glyph-name="cent" unicode="&#xa2;" horiz-adv-x="481" 
d="M471 192q0 -44 -16 -128q-25 -25 -71 -42.5t-106 -18.5l-21 -98l-69 15l20 90q-88 20 -140.5 87t-52.5 166q0 86 40 150.5t108.5 99t151.5 34.5h7l20 97l69 -15l-19 -89q45 -8 77 -25q4 -78 -36 -181q-11 14 -30.5 26t-45.5 18l-42 -201q5 -1 17 -1q44 0 82 16t55 35
q2 -22 2 -35zM248 198l38 180q-36 -9 -58 -35.5t-22 -65.5q0 -50 42 -79z" />
    <glyph glyph-name="sterling" unicode="&#xa3;" horiz-adv-x="574" 
d="M540 146q0 -40 -5 -88l-4 -57l-445 -1q-29 67 -25 148q4 3 16 16.5t26.5 36.5t22.5 51h-67l5 30q8 40 8 60h54q-4 18 -12 37q-11 31 -17 54.5t-6 55.5q0 108 78 167t211 59q51 0 93 -9.5t66 -21.5q-1 -38 -11.5 -90t-30.5 -98q-18 19 -52 33.5t-71 14.5q-62 0 -62 -48
q0 -16 11 -53q17 -57 17 -96v-5h145q0 -15 -3 -34.5t-4 -25.5q-4 -20 -5 -30h-155q-18 -36 -54 -72l275 1q1 -12 1 -35z" />
    <glyph glyph-name="currency" unicode="&#xa4;" horiz-adv-x="540" 
d="M463 258l80 -80l-101 -101l-81 80q-44 -21 -92 -21q-46 0 -90 21l-80 -80l-102 101l80 81q-20 42 -20 90q0 49 20 92l-80 81l102 101l80 -80q44 21 90 21q48 0 93 -21l80 80l101 -101l-80 -80q21 -42 21 -93q0 -49 -21 -91zM213.5 293.5q23.5 -23.5 56.5 -23.5t57 23.5
t24 56.5t-24 56.5t-57 23.5t-56.5 -23.5t-23.5 -56.5t23.5 -56.5z" />
    <glyph glyph-name="yen" unicode="&#xa5;" horiz-adv-x="660" 
d="M432 192h131q0 -18 -8 -60q-4 -20 -5 -30h-118v-102q-69 -8 -123 -8q-44 0 -79 4v106h-129q4 20 5 30q8 42 8 60h116v32h-126q1 10 5 30q7 35 7 60h76l-189 386q145 0 245 13l91 -284l81 271h237l-187 -386h95q0 -25 -7 -60q-4 -20 -5 -30h-121v-32z" />
    <glyph glyph-name="brokenbar" unicode="&#xa6;" horiz-adv-x="296" 
d="M73 750h150v-378h-150v378zM73 172h150v-372h-150v372z" />
    <glyph glyph-name="section" unicode="&#xa7;" horiz-adv-x="507" 
d="M477 117q0 -54 -31 -97.5t-90.5 -68.5t-139.5 -25q-45 0 -88 6.5t-72 15.5q-2 15 -11 61q-9 47 -12.5 73t-2.5 52q33 -27 87.5 -47t123.5 -20q70 0 70 25q0 13 -17 21.5t-57 19.5q-53 15 -89.5 31.5t-64 49.5t-27.5 87q0 80 68 125q-56 46 -56 115q0 80 62.5 126.5
t169.5 46.5q44 0 85.5 -7.5t67.5 -17.5q1 -66 -35 -153q-16 16 -49 29t-72 13q-51 0 -51 -21q0 -11 16 -20t50 -23q49 -19 81.5 -37.5t57.5 -50.5t25 -79q0 -72 -58 -121q59 -40 59 -109zM235 306q20 -15 59 -28q16 13 16 31q0 19 -19.5 31.5t-63.5 31.5h-1q-11 -9 -11 -27
q0 -24 20 -39z" />
    <glyph glyph-name="dieresis" unicode="&#xa8;" horiz-adv-x="600" 
d="M86 599.5q-25 27.5 -25 67.5t26.5 66.5t65.5 26.5q38 0 64 -26.5t26 -66.5q0 -39 -28 -67t-66 -28t-63 27.5zM317 599.5q-25 27.5 -25 67.5t26.5 66.5t65.5 26.5q38 0 63.5 -26.5t25.5 -66.5t-27 -67.5t-66 -27.5q-38 0 -63 27.5z" />
    <glyph glyph-name="copyright" unicode="&#xa9;" horiz-adv-x="840" 
d="M224.5 37.5q-89.5 52.5 -142 142t-52.5 195.5t52.5 195.5t142 142t195.5 52.5t195.5 -52.5t142 -142t52.5 -195.5t-52.5 -195.5t-142 -142t-195.5 -52.5t-195.5 52.5zM555 131q62 38 98.5 102.5t36.5 141.5t-36.5 141.5t-98.5 102.5t-135 38t-135 -38t-98.5 -102.5
t-36.5 -141.5t36.5 -141.5t98.5 -102.5t135 -38t135 38zM309 249q-44 44 -44 116q0 53 23.5 94t64.5 63.5t91 22.5q31 0 56.5 -7.5t39.5 -17.5q-1 -24 -7.5 -58t-19.5 -62q-6 21 -23 39t-45 18q-36 0 -58 -22.5t-22 -57.5q0 -41 25 -61.5t62 -20.5q28 0 52.5 10t35.5 22
q1 -4 1 -14q0 -25 -12 -71q-17 -15 -45 -26t-63 -11q-68 0 -112 44z" />
    <glyph glyph-name="ordfeminine" unicode="&#xaa;" horiz-adv-x="349" 
d="M226 387q-17 21 -29 57q-15 -28 -40.5 -42.5t-54.5 -14.5q-38 0 -63.5 22t-25.5 62q0 50 41.5 78t110.5 28l29 -1q-7 41 -57 41q-23 0 -47.5 -7t-41.5 -16q-9 31 -11 79q22 16 60.5 28t83.5 12q140 0 140 -136v-52q0 -75 16 -111q-46 -22 -111 -27zM191 525q-5 1 -18 1
q-47 0 -47 -25q0 -9 6.5 -14.5t17.5 -5.5q32 0 41 44z" />
    <glyph glyph-name="guillemotleft" unicode="&#xab;" horiz-adv-x="592" 
d="M484 250l100 -180h-172l-133 180l133 180h172zM213 250l100 -180h-172l-133 180l133 180h172z" />
    <glyph glyph-name="logicalnot" unicode="&#xac;" horiz-adv-x="660" 
d="M627 58h-150v222h-443v140h593v-362z" />
    <glyph glyph-name="uni00AD" unicode="&#xad;" horiz-adv-x="387" 
d="M353 229q-4 -19 -10 -57h-323q6 38 10 57q14 76 14 113h323q0 -37 -14 -113z" />
    <glyph glyph-name="registered" unicode="&#xae;" horiz-adv-x="840" 
d="M615.5 712.5q89.5 -52.5 142 -142t52.5 -195.5t-52.5 -195.5t-142 -142t-195.5 -52.5t-195.5 52.5t-142 142t-52.5 195.5t52.5 195.5t142 142t195.5 52.5t195.5 -52.5zM555 131q62 38 98.5 102.5t36.5 141.5t-36.5 141.5t-98.5 102.5t-135 38t-135 -38t-98.5 -102.5
t-36.5 -141.5t36.5 -141.5t98.5 -102.5t135 -38t135 38zM546.5 388q-18.5 -26 -52.5 -40l104 -135l-121 -6l-78 124l-16 1v-117q-30 -3 -57 -3t-40 1v318q58 12 117 12q78 0 120 -24t42 -73q0 -32 -18.5 -58zM382 407q10 -2 29 -2q28 0 42.5 8.5t14.5 20.5q0 13 -13 17.5
t-39 4.5q-20 0 -34 -2v-47z" />
    <glyph glyph-name="degree" unicode="&#xb0;" horiz-adv-x="380" 
d="M103.5 397.5q-38.5 22.5 -61 61.5t-22.5 85q0 47 22.5 86.5t61 62t85.5 22.5t86.5 -22.5t62 -62t22.5 -86.5q0 -46 -22.5 -85t-62 -61.5t-86.5 -22.5t-85.5 22.5zM234 497.5q18 18.5 18 46.5q0 29 -18 48t-45 19q-26 0 -43.5 -19t-17.5 -48q0 -28 17.5 -46.5t43.5 -18.5
q27 0 45 18.5z" />
    <glyph glyph-name="plusminus" unicode="&#xb1;" horiz-adv-x="660" 
d="M402 376v-226h-144v226h-224v140h224v227h145l-1 -227h224l1 -140h-225zM34 125h593v-140h-593v140z" />
    <glyph glyph-name="uni00B2" unicode="&#xb2;" horiz-adv-x="359" 
d="M337 602q-3 -11 -7 -40h-294q-24 46 -28 96q70 33 128 83t58 93q0 36 -44 36q-31 0 -58.5 -18t-41.5 -40q-13 47 -16 115q19 25 59.5 44.5t89.5 19.5q63 0 103 -34t40 -92q0 -53 -33.5 -100.5t-85.5 -82.5h139q0 -31 -9 -80z" />
    <glyph glyph-name="uni00B3" unicode="&#xb3;" horiz-adv-x="356" 
d="M307 798q31 -32 31 -86q0 -72 -53 -115.5t-141 -43.5q-34 0 -65.5 6t-47.5 14q-17 46 -17 95q0 15 1 23q20 -13 53.5 -24.5t65.5 -11.5q35 0 53.5 12t18.5 33q0 19 -13.5 31t-36.5 12q-16 0 -32.5 -6.5t-26.5 -14.5q-24 43 -30 97l117 55h-158l6 36q9 43 9 72h267
q2 -23 16 -73l-119 -80q6 1 18 1q53 0 84 -32z" />
    <glyph glyph-name="acute" unicode="&#xb4;" horiz-adv-x="446" 
d="M141 573q-44 0 -85 7l98 173q57 1 121.5 7t80.5 7l28 3l-201 -195q-28 -2 -42 -2z" />
    <glyph glyph-name="uni00B5" unicode="&#xb5;" horiz-adv-x="647" 
d="M433 -15q-34 41 -53 110q-15 -40 -47 -66.5t-73 -37.5v-7q0 -75 3 -120t7 -53q-113 -22 -225 -19q-5 42 -5 192v328v156q30 13 63.5 23t82.5 21q38 8 74 18v-218v-92q0 -23 11.5 -36t32.5 -13q30 0 48.5 24t18.5 64v71q0 115 -8 179q80 11 148 11q37 0 75 -3
q5 -40 5 -187v-114q0 -127 27 -185q-80 -40 -185 -46z" />
    <glyph glyph-name="paragraph" unicode="&#xb6;" horiz-adv-x="662" 
d="M267 176q-71 0 -131.5 35t-95.5 95.5t-35 131.5t35 131.5t95.5 95.5t131.5 35h349v-900h-138v726h-73v-726h-138v376z" />
    <glyph glyph-name="periodcentered" unicode="&#xb7;" horiz-adv-x="270" 
d="M57.5 181.5q-27.5 26.5 -27.5 69.5q0 46 32 77t79 31q43 0 71 -27t28 -69q0 -46 -32 -77t-79 -31q-44 0 -71.5 26.5z" />
    <glyph glyph-name="cedilla" unicode="&#xb8;" horiz-adv-x="600" 
d="M217 -61.5q19 -20.5 19 -51.5q0 -41 -33 -68.5t-85 -27.5q-39 0 -65 15q-1 11 -5 33q-8 42 -8 61q10 -6 24 -11t28 -5t23.5 5.5t9.5 15.5t-10 18.5t-29 8.5q-15 0 -30 -5l42 92l91 2l-24 -55q33 -7 52 -27.5z" />
    <glyph glyph-name="uni00B9" unicode="&#xb9;" horiz-adv-x="300" 
d="M256 565q-53 -7 -89 -7q-16 0 -44 2v0q-3 15 -3 112v167l-78 -57q-19 52 -28 121l165 81l73 -5v-307q0 -79 4 -107z" />
    <glyph glyph-name="ordmasculine" unicode="&#xba;" horiz-adv-x="365" 
d="M56 430q-45 43 -45 111q0 48 24 87.5t65.5 62t91.5 22.5q71 0 117 -42.5t46 -110.5q0 -48 -24 -87.5t-66 -62.5t-93 -23q-71 0 -116 43zM223 550q0 31 -12 46t-30 15q-38 0 -38 -61q0 -32 11 -46.5t29 -14.5q40 0 40 61z" />
    <glyph glyph-name="guillemotright" unicode="&#xbb;" horiz-adv-x="592" 
d="M180 430l133 -180l-133 -180h-172l100 180l-100 180h172zM451 430l133 -180l-133 -180h-172l100 180l-100 180h172z" />
    <glyph glyph-name="onequarter" unicode="&#xbc;" horiz-adv-x="923" 
d="M256 283q-53 -7 -89 -7q-16 0 -44 2q-3 15 -3 112v167l-78 -57q-19 52 -28 121l165 81l73 -5v-307q0 -79 4 -107zM128 -15l450 780l87 -50l-450 -780zM869 125l-7 -40h-43q1 -61 5 -82q-54 -7 -89 -7q-15 0 -45 2q-3 30 -3 112v-25h-151q-24 36 -34 86l146 268l137 -18
l-164 -228h78v82q30 14 80 24l40 10v-104h60q0 -26 -10 -80z" />
    <glyph glyph-name="onehalf" unicode="&#xbd;" horiz-adv-x="883" 
d="M256 283q-53 -7 -89 -7q-16 0 -44 2q-3 15 -3 112v167l-78 -57q-19 52 -28 121l165 81l73 -5v-307q0 -79 4 -107zM128 -15l450 780l87 -50l-450 -780zM830 40q-3 -11 -7 -40h-294q-24 46 -28 96q70 33 128 83t58 93q0 36 -44 36q-31 0 -58.5 -18t-41.5 -40
q-13 47 -16 115q19 25 59.5 44.5t89.5 19.5q63 0 103 -34t40 -92q0 -53 -33.5 -100.5t-85.5 -82.5h139q0 -31 -9 -80z" />
    <glyph glyph-name="threequarters" unicode="&#xbe;" horiz-adv-x="953" 
d="M307 516q31 -32 31 -86q0 -72 -53 -115.5t-141 -43.5q-34 0 -65.5 6t-47.5 14q-17 46 -17 95q0 15 1 23q20 -13 53.5 -24.5t65.5 -11.5q35 0 53.5 12t18.5 33q0 19 -13.5 31t-36.5 12q-16 0 -32.5 -6.5t-26.5 -14.5q-24 43 -30 97l117 55h-158l6 36q9 43 9 72h267
q2 -23 16 -73l-119 -80q6 1 18 1q53 0 84 -32zM184 -15l450 780l87 -50l-450 -780zM925 125l-7 -40h-43q1 -61 5 -82q-54 -7 -89 -7q-15 0 -45 2q-3 30 -3 112v-25h-151q-24 36 -34 86l146 268l137 -18l-164 -228h78v82q30 14 80 24l40 10v-104h60q0 -26 -10 -80z" />
    <glyph glyph-name="questiondown" unicode="&#xbf;" horiz-adv-x="400" 
d="M154 352q-28 27 -28 69q0 46 32 77t79 31q44 0 71.5 -26.5t27.5 -69.5q0 -46 -32 -77t-79 -31q-43 0 -71 27zM395 -141q-25 -22 -79.5 -40.5t-112.5 -18.5q-91 0 -144.5 47.5t-53.5 125.5q0 66 39 104.5t107 49.5v71v25q37 16 106 31l54 14v-70v-144q-128 0 -128 -55
q0 -21 18.5 -33t55.5 -12q38 0 70.5 11.5t48.5 25.5q16 -56 19 -132z" />
    <glyph glyph-name="Agrave" unicode="&#xc0;" horiz-adv-x="773" 
d="M358 753q-14 0 -42 2l-201 195l28 -3q16 -1 80.5 -7t121.5 -7l98 -173q-41 -7 -85 -7zM465 140h-194l-44 -146l-214 6l264 700q123 0 215 11l269 -711l-256 -15zM433 265l-57 222l-67 -222h124z" />
    <glyph glyph-name="Aacute" unicode="&#xc1;" horiz-adv-x="773" 
d="M393 753q-44 0 -85 7l98 173q58 1 123 7t79 7l28 3l-201 -195q-28 -2 -42 -2zM465 140h-194l-44 -146l-214 6l264 700q123 0 215 11l269 -711l-256 -15zM433 265l-57 222l-67 -222h124z" />
    <glyph glyph-name="Acircumflex" unicode="&#xc2;" horiz-adv-x="773" 
d="M205 758h-41l156 177q68 0 118 9l158 -176q-81 -15 -156 -16l-69 60l-67 -57q-50 3 -99 3zM465 140h-194l-44 -146l-214 6l264 700q123 0 215 11l269 -711l-256 -15zM433 265l-57 222l-67 -222h124z" />
    <glyph glyph-name="Atilde" unicode="&#xc3;" horiz-adv-x="773" 
d="M309.5 794.5q-11.5 -14.5 -16.5 -33.5l-96 26q4 59 34 106.5t83 47.5q24 0 43 -8t42 -23q27 -18 40 -18q14 0 25.5 14.5t16.5 33.5l96 -26q-5 -66 -37.5 -110t-80.5 -44q-24 0 -43 8t-42 23q-11 7 -21 12.5t-18 5.5q-14 0 -25.5 -14.5zM465 140h-194l-44 -146l-214 6
l264 700q123 0 215 11l269 -711l-256 -15zM433 265l-57 222l-67 -222h124z" />
    <glyph glyph-name="Adieresis" unicode="&#xc4;" horiz-adv-x="773" 
d="M201.5 779q-25.5 27 -25.5 68q0 40 27 66.5t65 26.5t64 -26.5t26 -66.5q0 -39 -27.5 -67t-65.5 -28t-63.5 27zM432 779.5q-25 27.5 -25 67.5t26.5 66.5t65.5 26.5q38 0 63.5 -26.5t25.5 -66.5t-27 -67.5t-66 -27.5q-38 0 -63 27.5zM465 140h-194l-44 -146l-214 6l264 700
q123 0 215 11l269 -711l-256 -15zM433 265l-57 222l-67 -222h124z" />
    <glyph glyph-name="Aring" unicode="&#xc5;" horiz-adv-x="773" 
d="M293.5 769q-36.5 34 -36.5 81q0 48 36.5 81.5t88.5 33.5t88.5 -33.5t36.5 -81.5q0 -47 -36.5 -81t-88.5 -34t-88.5 34zM359 873q-9 -10 -9 -23q0 -12 9 -22t23 -10t23 10t9 22q0 13 -9 23t-23 10t-23 -10zM465 140h-194l-44 -146l-214 6l264 700q123 0 215 11l269 -711
l-256 -15zM433 265l-57 222l-67 -222h124z" />
    <glyph glyph-name="AE" unicode="&#xc6;" horiz-adv-x="927" 
d="M903 149q0 -22 -2 -50.5t-3 -40.5q-4 -37 -5 -58h-435l-16 128h-178l-43 -134l-229 6l295 700h603q1 -11 1 -35q0 -40 -5 -88l-4 -57h-262l13 -94h207q1 -9 1 -27q0 -22 -4 -68q-1 -8 -2 -19t-1 -26h-181l14 -101h234q2 -24 2 -36zM427 253l-34 279l-89 -279h123z" />
    <glyph glyph-name="Ccedilla" unicode="&#xc7;" horiz-adv-x="657" 
d="M556 212q50 21 71 50q3 -16 3 -33q0 -55 -30 -163q-25 -25 -66 -45.5t-92 -29.5l-11 -25q33 -7 52 -27.5t19 -51.5q0 -41 -32.5 -68.5t-85.5 -27.5q-37 0 -65 15q-1 11 -5 33q-8 42 -8 61q10 -6 24 -11t28 -5t23.5 5.5t9.5 15.5t-9.5 18.5t-28.5 8.5q-16 0 -31 -5l27 58
q-92 4 -164.5 48t-113.5 120.5t-41 174.5q0 115 52.5 203t142 136t197.5 48q65 0 121 -15.5t88 -37.5q-2 -44 -15 -109.5t-37 -118.5q-18 31 -58.5 56t-93.5 25q-71 0 -115 -45t-44 -119q0 -83 53 -121.5t127 -38.5q58 0 108 21z" />
    <glyph glyph-name="Egrave" unicode="&#xc8;" horiz-adv-x="594" 
d="M305 753q-14 0 -42 2l-201 195l28 -3q13 -1 78.5 -7t123.5 -7l98 -173q-41 -7 -85 -7zM570 149q0 -22 -2 -50.5t-3 -40.5q-4 -37 -5 -58h-487v700h484q2 -22 2 -35q0 -30 -6 -88l-4 -57h-238v-94h196q1 -9 1 -27q0 -22 -4 -68l-3 -45h-190v-101h258q1 -12 1 -36z" />
    <glyph glyph-name="Eacute" unicode="&#xc9;" horiz-adv-x="594" 
d="M340 753q-44 0 -85 7l98 173q57 1 121.5 7t80.5 7l28 3l-201 -195q-28 -2 -42 -2zM570 149q0 -22 -2 -50.5t-3 -40.5q-4 -37 -5 -58h-487v700h484q2 -22 2 -35q0 -30 -6 -88l-4 -57h-238v-94h196q1 -9 1 -27q0 -22 -4 -68l-3 -45h-190v-101h258q1 -12 1 -36z" />
    <glyph glyph-name="Ecircumflex" unicode="&#xca;" horiz-adv-x="594" 
d="M152 758h-41l155 177q69 0 119 9l157 -176q-79 -15 -155 -16l-69 60l-67 -57q-49 3 -99 3zM570 149q0 -22 -2 -50.5t-3 -40.5q-4 -37 -5 -58h-487v700h484q2 -22 2 -35q0 -30 -6 -88l-4 -57h-238v-94h196q1 -9 1 -27q0 -22 -4 -68l-3 -45h-190v-101h258q1 -12 1 -36z" />
    <glyph glyph-name="Edieresis" unicode="&#xcb;" horiz-adv-x="594" 
d="M148 779.5q-25 27.5 -25 67.5t26.5 66.5t65.5 26.5q38 0 64 -26.5t26 -66.5q0 -39 -28 -67t-66 -28t-63 27.5zM379 779.5q-25 27.5 -25 67.5t26.5 66.5t65.5 26.5q38 0 63.5 -26.5t25.5 -66.5t-27 -67.5t-66 -27.5q-38 0 -63 27.5zM570 149q0 -22 -2 -50.5t-3 -40.5
q-4 -37 -5 -58h-487v700h484q2 -22 2 -35q0 -30 -6 -88l-4 -57h-238v-94h196q1 -9 1 -27q0 -22 -4 -68l-3 -45h-190v-101h258q1 -12 1 -36z" />
    <glyph glyph-name="Igrave" unicode="&#xcc;" horiz-adv-x="384" 
d="M168 753q-15 0 -41 2l-201 195l28 -3q14 -1 79 -7t122 -7l99 -173q-41 -7 -86 -7zM311 184v-184q-75 -9 -145 -9q-52 0 -93 4v189v330v186q160 0 238 5v-191v-330z" />
    <glyph glyph-name="Iacute" unicode="&#xcd;" horiz-adv-x="384" 
d="M204 753q-45 0 -86 7l99 173q57 1 122 7t79 7l28 3l-201 -195q-26 -2 -41 -2zM311 514v-330v-184q-75 -9 -145 -9q-52 0 -93 4v189v330v186q160 0 238 5v-191z" />
    <glyph glyph-name="Icircumflex" unicode="&#xce;" horiz-adv-x="384" 
d="M115 755q-49 3 -100 3h-41l156 177q68 0 118 9l158 -176q-81 -15 -156 -16l-68 60zM311 514v-330v-184q-75 -9 -145 -9q-52 0 -93 4v189v330v186q160 0 238 5v-191z" />
    <glyph glyph-name="Idieresis" unicode="&#xcf;" horiz-adv-x="384" 
d="M140.5 780q-27.5 -28 -65.5 -28t-63.5 27t-25.5 68q0 40 27 66.5t65 26.5t64 -26.5t26 -66.5q0 -39 -27.5 -67zM373 913.5q26 -26.5 26 -66.5t-27.5 -67.5t-65.5 -27.5t-63.5 27t-25.5 68q0 40 27 66.5t65 26.5t64 -26.5zM311 514v-330v-184q-75 -9 -145 -9q-52 0 -93 4
v189v330v186q160 0 238 5v-191z" />
    <glyph glyph-name="Eth" unicode="&#xd0;" horiz-adv-x="793" 
d="M648 626q115 -85 115 -243q0 -114 -56.5 -204.5t-159.5 -141.5t-236 -51q-61 0 -238 13v289h-100l7 40q10 54 10 80h83v293q180 10 252 10q208 0 323 -85zM477 230.5q40 44.5 40 124.5q0 84 -45.5 120t-142.5 36h-18v-103h126q0 -26 -10 -80q-3 -14 -7 -40h-109v-98
q26 -4 47 -4q79 0 119 44.5z" />
    <glyph glyph-name="Ntilde" unicode="&#xd1;" horiz-adv-x="809" 
d="M336.5 794.5q-11.5 -14.5 -16.5 -33.5l-96 26q4 59 34 106.5t83 47.5q24 0 43 -8t42 -23q27 -18 40 -18q14 0 25.5 14.5t16.5 33.5l96 -26q-5 -66 -37.5 -110t-80.5 -44q-24 0 -42 8t-42 23q-11 7 -21.5 12.5t-18.5 5.5q-14 0 -25.5 -14.5zM736 705v-705l-157 -9
l-306 374v-365q-69 -8 -122 -8q-43 0 -78 4v704q114 0 170 4l293 -350v160h1h-1v186q135 0 200 5z" />
    <glyph glyph-name="Ograve" unicode="&#xd2;" horiz-adv-x="783" 
d="M148 950l28 -3q14 -1 79 -7t122 -7l99 -173q-41 -7 -85 -7q-14 0 -42 2zM189.5 28q-75.5 43 -117.5 120t-42 176q0 109 51 198.5t139 141t195 51.5q97 0 174 -41.5t120.5 -117.5t43.5 -176q0 -109 -51.5 -199.5t-141.5 -143t-199 -52.5q-96 0 -171.5 43zM481.5 229.5
q34.5 44.5 33.5 114.5q1 69 -32.5 120t-91.5 51q-54 0 -88.5 -44.5t-34.5 -114.5t33.5 -120.5t91.5 -50.5q54 0 88.5 44.5z" />
    <glyph glyph-name="Oacute" unicode="&#xd3;" horiz-adv-x="783" 
d="M426 753q-44 0 -85 7l98 173q57 1 121.5 7t80.5 7l28 3l-201 -195q-28 -2 -42 -2zM189.5 28q-75.5 43 -117.5 120t-42 176q0 109 51 198.5t139 141t195 51.5q97 0 174 -41.5t120.5 -117.5t43.5 -176q0 -109 -51.5 -199.5t-141.5 -143t-199 -52.5q-96 0 -171.5 43z
M481.5 229.5q34.5 44.5 33.5 114.5q1 69 -32.5 120t-91.5 51q-54 0 -88.5 -44.5t-34.5 -114.5t33.5 -120.5t91.5 -50.5q54 0 88.5 44.5z" />
    <glyph glyph-name="Ocircumflex" unicode="&#xd4;" horiz-adv-x="783" 
d="M238 758h-42l156 177q68 0 118 9l158 -176q-80 -15 -156 -16l-68 60l-67 -57q-50 3 -99 3zM589 673.5q77 -41.5 120.5 -117.5t43.5 -176q0 -109 -51.5 -199.5t-141.5 -143t-199 -52.5q-96 0 -171.5 43t-117.5 120t-42 176q0 109 51 198.5t139 141t195 51.5
q97 0 174 -41.5zM481.5 229.5q34.5 44.5 33.5 114.5q1 69 -32.5 120t-91.5 51q-54 0 -88.5 -44.5t-34.5 -114.5t33.5 -120.5t91.5 -50.5q54 0 88.5 44.5z" />
    <glyph glyph-name="Otilde" unicode="&#xd5;" horiz-adv-x="783" 
d="M229 787q4 59 34.5 106.5t83.5 47.5q24 0 43 -8t42 -23q27 -18 39 -18q14 0 26 15t17 33l95 -26q-5 -66 -37 -110t-80 -44q-24 0 -43 8t-42 23q-27 18 -40 18q-14 0 -25.5 -15t-16.5 -33zM189.5 28q-75.5 43 -117.5 120t-42 176q0 109 51 198.5t139 141t195 51.5
q97 0 174 -41.5t120.5 -117.5t43.5 -176q0 -109 -51.5 -199.5t-141.5 -143t-199 -52.5q-96 0 -171.5 43zM481.5 229.5q34.5 44.5 33.5 114.5q1 69 -32.5 120t-91.5 51q-54 0 -88.5 -44.5t-34.5 -114.5t33.5 -120.5t91.5 -50.5q54 0 88.5 44.5z" />
    <glyph glyph-name="Odieresis" unicode="&#xd6;" horiz-adv-x="783" 
d="M234 779.5q-25 27.5 -25 67.5t26.5 66.5t65.5 26.5q38 0 63.5 -26.5t25.5 -66.5q0 -39 -27.5 -67t-65.5 -28t-63 27.5zM464.5 779q-25.5 27 -25.5 68q0 40 27 66.5t65 26.5t64 -26.5t26 -66.5t-27.5 -67.5t-65.5 -27.5t-63.5 27zM189.5 28q-75.5 43 -117.5 120t-42 176
q0 109 51 198.5t139 141t195 51.5q97 0 174 -41.5t120.5 -117.5t43.5 -176q0 -109 -51.5 -199.5t-141.5 -143t-199 -52.5q-96 0 -171.5 43zM481.5 229.5q34.5 44.5 33.5 114.5q1 69 -32.5 120t-91.5 51q-54 0 -88.5 -44.5t-34.5 -114.5t33.5 -120.5t91.5 -50.5
q54 0 88.5 44.5z" />
    <glyph glyph-name="multiply" unicode="&#xd7;" horiz-adv-x="660" 
d="M429 350l160 -160l-99 -99l-160 160l-160 -160l-99 99l160 160l-160 160l99 99l160 -160l160 160l99 -99z" />
    <glyph glyph-name="Oslash" unicode="&#xd8;" horiz-adv-x="783" 
d="M729.5 513.5q23.5 -60.5 23.5 -133.5q0 -109 -51.5 -199.5t-141.5 -143t-199 -52.5q-95 0 -174 44l-44 -55l-66 52l44 55q-44 45 -67.5 107t-23.5 136q0 109 51 198.5t139 141t195 51.5q100 0 181 -45l45 56l66 -52l-45 -56q44 -44 67.5 -104.5zM280 278l174 216
q-27 21 -63 21q-54 0 -88.5 -44.5t-34.5 -114.5q0 -42 12 -78zM481.5 229.5q34.5 44.5 33.5 114.5q1 38 -12 77l-173 -215q27 -21 63 -21q54 0 88.5 44.5z" />
    <glyph glyph-name="Ugrave" unicode="&#xd9;" horiz-adv-x="773" 
d="M376 753q-14 0 -42 2l-201 195l28 -3q16 -1 80.5 -7t121.5 -7l98 -173q-41 -7 -85 -7zM724 705v-370q0 -165 -87 -257.5t-243 -92.5q-105 0 -181.5 41.5t-117 120.5t-40.5 188v365q160 0 238 5v-370q0 -71 28 -110.5t78 -39.5t77.5 39.5t27.5 110.5v179v0v0v186
q147 0 220 5z" />
    <glyph glyph-name="Uacute" unicode="&#xda;" horiz-adv-x="773" 
d="M411 753q-44 0 -85 7l98 173q58 1 123.5 7t78.5 7l28 3l-201 -195q-28 -2 -42 -2zM724 705v-370q0 -165 -87 -257.5t-243 -92.5q-105 0 -181.5 41.5t-117 120.5t-40.5 188v365q160 0 238 5v-370q0 -71 28 -110.5t78 -39.5t77.5 39.5t27.5 110.5v179v0v0v186q147 0 220 5z
" />
    <glyph glyph-name="Ucircumflex" unicode="&#xdb;" horiz-adv-x="773" 
d="M223 758h-41l156 177q68 0 118 9l157 -176q-79 -15 -155 -16l-69 60l-67 -57q-50 3 -99 3zM724 705v-370q0 -165 -87 -257.5t-243 -92.5q-105 0 -181.5 41.5t-117 120.5t-40.5 188v365q160 0 238 5v-370q0 -71 28 -110.5t78 -39.5t77.5 39.5t27.5 110.5v179v0v0v186
q147 0 220 5z" />
    <glyph glyph-name="Udieresis" unicode="&#xdc;" horiz-adv-x="773" 
d="M219 779.5q-25 27.5 -25 67.5t26.5 66.5t65.5 26.5q38 0 64 -26.5t26 -66.5q0 -39 -28 -67t-66 -28t-63 27.5zM450 779.5q-25 27.5 -25 67.5t26.5 66.5t65.5 26.5q38 0 63.5 -26.5t25.5 -66.5t-27 -67.5t-66 -27.5q-38 0 -63 27.5zM724 705v-370q0 -165 -87 -257.5
t-243 -92.5q-105 0 -181.5 41.5t-117 120.5t-40.5 188v365q160 0 238 5v-370q0 -71 28 -110.5t78 -39.5t77.5 39.5t27.5 110.5v179v0v0v186q147 0 220 5z" />
    <glyph glyph-name="Yacute" unicode="&#xdd;" horiz-adv-x="734" 
d="M379 753q-44 0 -85 7l98 173q58 1 123.5 7t78.5 7l28 3l-201 -195q-28 -2 -42 -2zM486 184v-184q-75 -9 -145 -9q-52 0 -93 4v245l-254 460q79 0 141 3t127 11l114 -293l105 279h257l-252 -460v-56z" />
    <glyph glyph-name="Thorn" unicode="&#xde;" horiz-adv-x="691" 
d="M592.5 557q93.5 -64 93.5 -184q0 -80 -40.5 -147t-114 -106t-168.5 -39q-26 0 -52 3v-84q-75 -9 -145 -9q-52 0 -93 4v480v119v106q160 0 238 5v-84h18q170 0 263.5 -64zM420.5 285.5q28.5 24.5 28.5 68.5q0 43 -25.5 65t-71.5 22q-26 0 -51 -5v-172q22 -3 39 -3
q52 0 80.5 24.5z" />
    <glyph glyph-name="germandbls" unicode="&#xdf;" horiz-adv-x="697" 
d="M578 340q12 -14 40 -37q42 -34 65.5 -65t23.5 -81q0 -49 -27 -88t-80 -61.5t-128 -22.5q-36 0 -67.5 4.5t-47.5 10.5q-5 30 -12 63q-9 47 -12.5 74.5t-2.5 54.5q20 -15 53.5 -27t68.5 -12q38 0 38 17q0 7 -8 14t-29 21q-30 20 -50.5 37.5t-36 45.5t-15.5 67q0 35 12 63.5
t33 63.5q15 26 22 40t7 29q0 21 -15.5 32.5t-40.5 11.5q-37 0 -57 -25.5t-20 -69.5v-316v0q0 -131 8 -179q-82 -11 -149 -11q-38 0 -74 3q-5 40 -5 187v150h-70q2 18 4.5 31.5t4.5 22.5q1 7 7 41.5t6 64.5l48 11v18q0 115 76 178.5t216 63.5q126 0 200.5 -51t74.5 -145
q0 -40 -12.5 -70.5t-34.5 -67.5q-14 -23 -20 -35.5t-6 -24.5q0 -17 12 -31z" />
    <glyph glyph-name="agrave" unicode="&#xe0;" horiz-adv-x="563" 
d="M361 -15q-29 35 -48 94q-25 -47 -65 -70.5t-87 -23.5q-61 0 -101.5 37t-40.5 103q0 83 67 130t176 47q23 0 45 -2q-9 68 -91 68q-35 0 -74.5 -12t-66.5 -26q-15 52 -18 132q36 26 99.5 46.5t135.5 20.5q109 0 167.5 -54.5t58.5 -173.5v-85q0 -125 27 -185
q-80 -40 -184 -46zM303 215q-16 2 -28 2q-34 0 -52 -10.5t-18 -30.5q0 -15 10 -24.5t28 -9.5q47 0 60 73zM17 770l27 -3q16 -1 80.5 -7t121.5 -7l99 -173q-41 -7 -86 -7q-15 0 -41 2z" />
    <glyph glyph-name="aacute" unicode="&#xe1;" horiz-adv-x="563" 
d="M361 -15q-29 35 -48 94q-25 -47 -65 -70.5t-87 -23.5q-61 0 -101.5 37t-40.5 103q0 83 67 130t176 47q23 0 45 -2q-9 68 -91 68q-35 0 -74.5 -12t-66.5 -26q-15 52 -18 132q36 26 99.5 46.5t135.5 20.5q109 0 167.5 -54.5t58.5 -173.5v-85q0 -125 27 -185
q-80 -40 -184 -46zM303 215q-16 2 -28 2q-34 0 -52 -10.5t-18 -30.5q0 -15 10 -24.5t28 -9.5q47 0 60 73zM295 573q-44 0 -85 7l98 173q57 1 121.5 7t80.5 7l28 3l-201 -195q-28 -2 -42 -2z" />
    <glyph glyph-name="acircumflex" unicode="&#xe2;" horiz-adv-x="563" 
d="M361 -15q-29 35 -48 94q-25 -47 -65 -70.5t-87 -23.5q-61 0 -101.5 37t-40.5 103q0 83 67 130t176 47q23 0 45 -2q-9 68 -91 68q-35 0 -74.5 -12t-66.5 -26q-15 52 -18 132q36 26 99.5 46.5t135.5 20.5q109 0 167.5 -54.5t58.5 -173.5v-85q0 -125 27 -185
q-80 -40 -184 -46zM303 215q-16 2 -28 2q-34 0 -52 -10.5t-18 -30.5q0 -15 10 -24.5t28 -9.5q47 0 60 73zM341 572l-68 60l-67 -57q-49 3 -99 3h-42l156 177q68 0 118 9l158 -176q-80 -15 -156 -16z" />
    <glyph glyph-name="atilde" unicode="&#xe3;" horiz-adv-x="563" 
d="M361 -15q-29 35 -48 94q-25 -47 -65 -70.5t-87 -23.5q-61 0 -101.5 37t-40.5 103q0 83 67 130t176 47q23 0 45 -2q-9 68 -91 68q-35 0 -74.5 -12t-66.5 -26q-15 52 -18 132q36 26 99.5 46.5t135.5 20.5q109 0 167.5 -54.5t58.5 -173.5v-85q0 -125 27 -185
q-80 -40 -184 -46zM303 215q-16 2 -28 2q-34 0 -52 -10.5t-18 -30.5q0 -15 10 -24.5t28 -9.5q47 0 60 73zM94 599q4 58 34.5 106t83.5 48q24 0 43 -8t42 -23q27 -18 39 -18q14 0 26 15t17 33l96 -26q-5 -67 -37.5 -111t-80.5 -44q-24 0 -42.5 8.5t-42.5 23.5q-27 18 -39 18
q-14 0 -26 -15t-17 -33z" />
    <glyph glyph-name="adieresis" unicode="&#xe4;" horiz-adv-x="563" 
d="M361 -15q-29 35 -48 94q-25 -47 -65 -70.5t-87 -23.5q-61 0 -101.5 37t-40.5 103q0 83 67 130t176 47q23 0 45 -2q-9 68 -91 68q-35 0 -74.5 -12t-66.5 -26q-15 52 -18 132q36 26 99.5 46.5t135.5 20.5q109 0 167.5 -54.5t58.5 -173.5v-85q0 -125 27 -185
q-80 -40 -184 -46zM303 215q-16 2 -28 2q-34 0 -52 -10.5t-18 -30.5q0 -15 10 -24.5t28 -9.5q47 0 60 73zM103 599.5q-25 27.5 -25 67.5t26.5 66.5t65.5 26.5q38 0 64 -26.5t26 -66.5q0 -39 -28 -67t-66 -28t-63 27.5zM334 599.5q-25 27.5 -25 67.5t26.5 66.5t65.5 26.5
q38 0 63.5 -26.5t25.5 -66.5t-27 -67.5t-66 -27.5q-38 0 -63 27.5z" />
    <glyph glyph-name="aring" unicode="&#xe5;" horiz-adv-x="563" 
d="M361 -15q-29 35 -48 94q-25 -47 -65 -70.5t-87 -23.5q-61 0 -101.5 37t-40.5 103q0 83 67 130t176 47q23 0 45 -2q-9 68 -91 68q-35 0 -74.5 -12t-66.5 -26q-15 52 -18 132q36 26 99.5 46.5t135.5 20.5q109 0 167.5 -54.5t58.5 -173.5v-85q0 -125 27 -185
q-80 -40 -184 -46zM303 215q-16 2 -28 2q-34 0 -52 -10.5t-18 -30.5q0 -15 10 -24.5t28 -9.5q47 0 60 73zM195.5 588q-36.5 34 -36.5 81q0 48 36.5 81.5t88.5 33.5t88.5 -33.5t36.5 -81.5q0 -47 -36.5 -81t-88.5 -34t-88.5 34zM307 647q9 10 9 22q0 13 -9 23t-23 10t-23 -10
t-9 -23q0 -12 9 -22t23 -10t23 10z" />
    <glyph glyph-name="ae" unicode="&#xe6;" horiz-adv-x="817" 
d="M728 160.5q43 12.5 64 29.5q2 -10 2 -30q0 -35 -13 -106q-26 -28 -84.5 -48.5t-121.5 -20.5q-66 0 -120.5 23.5t-90.5 68.5q-29 -45 -78 -68.5t-105 -23.5q-71 0 -116.5 36t-45.5 102q0 85 71.5 128.5t200.5 57.5l14 2q-14 57 -89 57q-38 0 -80.5 -13t-71.5 -29
q-15 51 -18 132q38 27 104.5 49t141.5 22q96 0 150 -45q71 45 160 45q67 0 113.5 -27.5t70 -74t23.5 -103.5q0 -30 -6.5 -54.5t-14.5 -36.5l-277 -4q9 -45 40.5 -63t85.5 -18q48 0 91 12.5zM533 354q-17 -24 -22 -61l95 5q2 18 2 29q0 24 -10 37.5t-28 13.5q-20 0 -37 -24z
M306 232q-39 -6 -70 -19t-31 -39q0 -14 10 -23t28 -9q53 0 63 90z" />
    <glyph glyph-name="ccedilla" unicode="&#xe7;" horiz-adv-x="472" 
d="M462 173q0 -45 -16 -127q-20 -21 -53.5 -36.5t-77.5 -21.5l-9 -22q33 -7 52 -27.5t19 -51.5q0 -41 -32.5 -68.5t-85.5 -27.5q-37 0 -65 15q-1 11 -5 33q-8 42 -8 61q10 -6 24 -11t28 -5t23.5 5.5t9.5 15.5t-10 18.5t-28 8.5q-16 0 -31 -5l28 61q-95 14 -152.5 83.5
t-57.5 173.5q0 86 40 150.5t108 99t150 34.5q47 0 84.5 -9.5t62.5 -22.5q4 -80 -35 -182q-15 17 -41.5 30.5t-55.5 13.5q-42 0 -67.5 -26t-25.5 -69q0 -48 29 -71.5t75 -23.5q35 0 70 13t50 27q3 -18 3 -36z" />
    <glyph glyph-name="egrave" unicode="&#xe8;" horiz-adv-x="521" 
d="M432 160.5q43 12.5 64 29.5q2 -20 2 -30q0 -35 -13 -106q-26 -28 -84.5 -48.5t-121.5 -20.5q-76 0 -136 30.5t-94 89.5t-34 140t39.5 146t106 101.5t144.5 36.5q67 0 114 -27.5t70.5 -74t23.5 -103.5q0 -30 -6.5 -54.5t-14.5 -36.5l-277 -4q9 -45 40.5 -63t85.5 -18
q48 0 91 12.5zM237 354q-17 -24 -23 -61l95 5q2 18 2 29q0 24 -9.5 37.5t-27.5 13.5q-20 0 -37 -24zM14 770l27 -3q16 -1 80.5 -7t121.5 -7l99 -173q-41 -7 -86 -7q-15 0 -41 2z" />
    <glyph glyph-name="eacute" unicode="&#xe9;" horiz-adv-x="521" 
d="M432 160.5q43 12.5 64 29.5q2 -20 2 -30q0 -35 -13 -106q-26 -28 -84.5 -48.5t-121.5 -20.5q-76 0 -136 30.5t-94 89.5t-34 140t39.5 146t106 101.5t144.5 36.5q67 0 114 -27.5t70.5 -74t23.5 -103.5q0 -30 -6.5 -54.5t-14.5 -36.5l-277 -4q9 -45 40.5 -63t85.5 -18
q48 0 91 12.5zM237 354q-17 -24 -23 -61l95 5q2 18 2 29q0 24 -9.5 37.5t-27.5 13.5q-20 0 -37 -24zM291 573q-44 0 -85 7l98 173q57 1 121.5 7t80.5 7l28 3l-201 -195q-28 -2 -42 -2z" />
    <glyph glyph-name="ecircumflex" unicode="&#xea;" horiz-adv-x="521" 
d="M432 160.5q43 12.5 64 29.5q2 -20 2 -30q0 -35 -13 -106q-26 -28 -84.5 -48.5t-121.5 -20.5q-76 0 -136 30.5t-94 89.5t-34 140t39.5 146t106 101.5t144.5 36.5q67 0 114 -27.5t70.5 -74t23.5 -103.5q0 -30 -6.5 -54.5t-14.5 -36.5l-277 -4q9 -45 40.5 -63t85.5 -18
q48 0 91 12.5zM237 354q-17 -24 -23 -61l95 5q2 18 2 29q0 24 -9.5 37.5t-27.5 13.5q-20 0 -37 -24zM337 572l-68 60l-67 -57q-49 3 -99 3h-42l156 177q68 0 118 9l158 -176q-80 -15 -156 -16z" />
    <glyph glyph-name="edieresis" unicode="&#xeb;" horiz-adv-x="521" 
d="M432 160.5q43 12.5 64 29.5q2 -20 2 -30q0 -35 -13 -106q-26 -28 -84.5 -48.5t-121.5 -20.5q-76 0 -136 30.5t-94 89.5t-34 140t39.5 146t106 101.5t144.5 36.5q67 0 114 -27.5t70.5 -74t23.5 -103.5q0 -30 -6.5 -54.5t-14.5 -36.5l-277 -4q9 -45 40.5 -63t85.5 -18
q48 0 91 12.5zM237 354q-17 -24 -23 -61l95 5q2 18 2 29q0 24 -9.5 37.5t-27.5 13.5q-20 0 -37 -24zM99 599.5q-25 27.5 -25 67.5t26.5 66.5t65.5 26.5q38 0 64 -26.5t26 -66.5q0 -39 -28 -67t-66 -28t-63 27.5zM330 599.5q-25 27.5 -25 67.5t26.5 66.5t65.5 26.5
q38 0 63.5 -26.5t25.5 -66.5t-27 -67.5t-66 -27.5q-38 0 -63 27.5z" />
    <glyph glyph-name="igrave" unicode="&#xec;" horiz-adv-x="328" 
d="M140 573q-14 0 -42 2l-131 195l28 -3q13 -1 78.5 -7t123.5 -7l28 -173q-41 -7 -85 -7zM282 5q-80 -11 -149 -11q-36 0 -74 3q-5 40 -5 187v284q30 13 63.5 23t82.5 21q38 8 74 18v-346q0 -115 8 -179z" />
    <glyph glyph-name="iacute" unicode="&#xed;" horiz-adv-x="328" 
d="M175 573q-44 0 -85 7l69 173q57 1 122 7t79 7l28 3l-171 -195q-28 -2 -42 -2zM282 5q-80 -11 -149 -11q-36 0 -74 3q-5 40 -5 187v284q30 13 63.5 23t82.5 21q38 8 74 18v-346q0 -115 8 -179z" />
    <glyph glyph-name="icircumflex" unicode="&#xee;" horiz-adv-x="328" 
d="M86 575q-49 3 -99 3h-41l155 177q69 0 119 9l157 -176q-79 -15 -155 -16l-69 60zM282 5q-80 -11 -149 -11q-36 0 -74 3q-5 40 -5 187v284q30 13 63.5 23t82.5 21q38 8 74 18v-346q0 -115 8 -179z" />
    <glyph glyph-name="idieresis" unicode="&#xef;" horiz-adv-x="328" 
d="M126.5 609q-27.5 -28 -66.5 -28q-38 0 -63 27.5t-25 67.5q0 39 26.5 65.5t65.5 26.5q38 0 64 -26.5t26 -65.5t-27.5 -67zM330.5 742q25.5 -26 25.5 -66t-27 -67.5t-66 -27.5q-38 0 -63 27.5t-25 67.5q0 39 26.5 65.5t65.5 26.5q38 0 63.5 -26zM282 5q-80 -11 -149 -11
q-36 0 -74 3q-5 40 -5 187v284q30 13 63.5 23t82.5 21q38 8 74 18v-346q0 -115 8 -179z" />
    <glyph glyph-name="eth" unicode="&#xf0;" horiz-adv-x="590" 
d="M530.5 509q34.5 -79 34.5 -178q0 -110 -41 -188t-112.5 -118t-159.5 -40q-77 0 -130.5 31t-80 84t-26.5 121q0 69 35 126t99 90.5t148 33.5q9 0 13 -1q-21 41 -54 74l-128 -74q-6 13 -13 31q-20 44 -29 60l81 47q-49 25 -102 31q-5 28 -5 51q0 50 17 106q68 -4 138.5 -25
t133.5 -58l116 67q14 -24 26 -62l12 -32l-68 -39q61 -59 95.5 -138zM330 192.5q18 37.5 18 109.5v13h-14q-53 0 -77 -27t-24 -65q0 -28 14 -48t36 -20q29 0 47 37.5z" />
    <glyph glyph-name="ntilde" unicode="&#xf1;" horiz-adv-x="655" 
d="M611 64.5q3 -44.5 7 -53.5q-120 -22 -224 -19q-5 39 -6 192v110q0 23 -11.5 36t-32.5 13q-29 0 -47.5 -24t-18.5 -64v-71q0 -131 8 -179q-82 -11 -149 -11q-38 0 -74 3q-5 27 -5 187v102q0 58 -5.5 98t-15.5 91q34 15 76.5 25.5t49.5 12.5q32 6 64 15q28 -63 39 -115
q19 54 66.5 85t107.5 31q79 0 123.5 -53.5t44.5 -152.5v-139q0 -75 3 -119.5zM147 599q4 58 34.5 106t83.5 48q24 0 43 -8t42 -23q27 -18 39 -18q14 0 26 15t17 33l96 -26q-5 -67 -37.5 -111t-80.5 -44q-24 0 -42.5 8.5t-42.5 23.5q-27 18 -39 18q-14 0 -26 -15t-17 -33z
" />
    <glyph glyph-name="ograve" unicode="&#xf2;" horiz-adv-x="587" 
d="M142 17.5q-60 32.5 -93.5 91t-33.5 132.5q0 81 39 146.5t106.5 103.5t148.5 38q76 0 136 -32.5t94 -90.5t34 -133q0 -80 -39 -146t-107 -104t-150 -38q-75 0 -135 32.5zM337.5 180q15.5 25 15.5 77t-18 77t-45 25q-55 0 -55 -102q0 -53 16.5 -77.5t42.5 -24.5
q28 0 43.5 25zM32 770l27 -3q16 -1 80.5 -7t121.5 -7l99 -173q-41 -7 -86 -7q-15 0 -41 2z" />
    <glyph glyph-name="oacute" unicode="&#xf3;" horiz-adv-x="587" 
d="M142 17.5q-60 32.5 -93.5 91t-33.5 132.5q0 81 39 146.5t106.5 103.5t148.5 38q76 0 136 -32.5t94 -90.5t34 -133q0 -80 -39 -146t-107 -104t-150 -38q-75 0 -135 32.5zM337.5 180q15.5 25 15.5 77t-18 77t-45 25q-55 0 -55 -102q0 -53 16.5 -77.5t42.5 -24.5
q28 0 43.5 25zM309 573q-44 0 -85 7l98 173q57 1 121.5 7t80.5 7l28 3l-201 -195q-28 -2 -42 -2z" />
    <glyph glyph-name="ocircumflex" unicode="&#xf4;" horiz-adv-x="587" 
d="M142 17.5q-60 32.5 -93.5 91t-33.5 132.5q0 81 39 146.5t106.5 103.5t148.5 38q76 0 136 -32.5t94 -90.5t34 -133q0 -80 -39 -146t-107 -104t-150 -38q-75 0 -135 32.5zM337.5 180q15.5 25 15.5 77t-18 77t-45 25q-55 0 -55 -102q0 -53 16.5 -77.5t42.5 -24.5
q28 0 43.5 25zM355 572l-68 60l-67 -57q-49 3 -99 3h-42l156 177q68 0 118 9l158 -176q-80 -15 -156 -16z" />
    <glyph glyph-name="otilde" unicode="&#xf5;" horiz-adv-x="587" 
d="M142 17.5q-60 32.5 -93.5 91t-33.5 132.5q0 81 39 146.5t106.5 103.5t148.5 38q76 0 136 -32.5t94 -90.5t34 -133q0 -80 -39 -146t-107 -104t-150 -38q-75 0 -135 32.5zM337.5 180q15.5 25 15.5 77t-18 77t-45 25q-55 0 -55 -102q0 -53 16.5 -77.5t42.5 -24.5
q28 0 43.5 25zM108 599q4 58 34.5 106t83.5 48q24 0 43 -8t42 -23q27 -18 39 -18q14 0 26 15t17 33l96 -26q-5 -67 -37.5 -111t-80.5 -44q-24 0 -42.5 8.5t-42.5 23.5q-27 18 -39 18q-14 0 -26 -15t-17 -33z" />
    <glyph glyph-name="odieresis" unicode="&#xf6;" horiz-adv-x="587" 
d="M142 17.5q-60 32.5 -93.5 91t-33.5 132.5q0 81 39 146.5t106.5 103.5t148.5 38q76 0 136 -32.5t94 -90.5t34 -133q0 -80 -39 -146t-107 -104t-150 -38q-75 0 -135 32.5zM337.5 180q15.5 25 15.5 77t-18 77t-45 25q-55 0 -55 -102q0 -53 16.5 -77.5t42.5 -24.5
q28 0 43.5 25zM117 599.5q-25 27.5 -25 67.5t26.5 66.5t65.5 26.5q38 0 64 -26.5t26 -66.5q0 -39 -28 -67t-66 -28t-63 27.5zM348 599.5q-25 27.5 -25 67.5t26.5 66.5t65.5 26.5q38 0 63.5 -26.5t25.5 -66.5t-27 -67.5t-66 -27.5q-38 0 -63 27.5z" />
    <glyph glyph-name="divide" unicode="&#xf7;" horiz-adv-x="660" 
d="M34 420h593v-140h-593v140zM252.5 509.5q-27.5 26.5 -27.5 69.5q0 46 32 77t79 31q43 0 71 -27t28 -69q0 -46 -32 -77t-79 -31q-44 0 -71.5 26.5zM252.5 31.5q-27.5 26.5 -27.5 69.5q0 46 32 77t79 31q43 0 71 -27t28 -69q0 -46 -32 -77t-79 -31q-44 0 -71.5 26.5z" />
    <glyph glyph-name="oslash" unicode="&#xf8;" horiz-adv-x="587" 
d="M573 273q0 -80 -39 -146t-107 -104t-150 -38q-101 0 -171 56l-60 -59l-31 32l59 58q-59 70 -59 169q0 81 39 146.5t106.5 103.5t148.5 38q102 0 172 -56l57 56l31 -32l-55 -55q59 -70 59 -169zM235 257q0 -18 1 -25l101 99q-17 28 -47 28q-54 0 -55 -98v-4zM353 257
l-1 26l-102 -100q15 -28 44 -28q27 0 42.5 24t16.5 74v4z" />
    <glyph glyph-name="ugrave" unicode="&#xf9;" horiz-adv-x="647" 
d="M433 -15q-34 41 -53 110q-21 -52 -67 -81t-105 -29q-79 0 -123.5 53.5t-44.5 152.5v277q30 13 63.5 23t82.5 21q38 8 74 18v-310q0 -23 11.5 -36t32.5 -13q30 0 48.5 24t18.5 64v71q0 115 -8 179q80 11 148 11q37 0 75 -3q5 -40 5 -187v-114q0 -127 27 -185
q-80 -40 -185 -46zM53 770l27 -3q16 -1 80.5 -7t121.5 -7l99 -173q-41 -7 -86 -7q-15 0 -41 2z" />
    <glyph glyph-name="uacute" unicode="&#xfa;" horiz-adv-x="647" 
d="M433 -15q-34 41 -53 110q-21 -52 -67 -81t-105 -29q-79 0 -123.5 53.5t-44.5 152.5v277q30 13 63.5 23t82.5 21q38 8 74 18v-310q0 -23 11.5 -36t32.5 -13q30 0 48.5 24t18.5 64v71q0 115 -8 179q80 11 148 11q37 0 75 -3q5 -40 5 -187v-114q0 -127 27 -185
q-80 -40 -185 -46zM331 573q-44 0 -85 7l98 173q57 1 121.5 7t80.5 7l28 3l-201 -195q-28 -2 -42 -2z" />
    <glyph glyph-name="ucircumflex" unicode="&#xfb;" horiz-adv-x="647" 
d="M433 -15q-34 41 -53 110q-21 -52 -67 -81t-105 -29q-79 0 -123.5 53.5t-44.5 152.5v277q30 13 63.5 23t82.5 21q38 8 74 18v-310q0 -23 11.5 -36t32.5 -13q30 0 48.5 24t18.5 64v71q0 115 -8 179q80 11 148 11q37 0 75 -3q5 -40 5 -187v-114q0 -127 27 -185
q-80 -40 -185 -46zM377 572l-68 60l-67 -57q-49 3 -99 3h-42l156 177q68 0 118 9l158 -176q-80 -15 -156 -16z" />
    <glyph glyph-name="udieresis" unicode="&#xfc;" horiz-adv-x="647" 
d="M433 -15q-34 41 -53 110q-21 -52 -67 -81t-105 -29q-79 0 -123.5 53.5t-44.5 152.5v277q30 13 63.5 23t82.5 21q38 8 74 18v-310q0 -23 11.5 -36t32.5 -13q30 0 48.5 24t18.5 64v71q0 115 -8 179q80 11 148 11q37 0 75 -3q5 -40 5 -187v-114q0 -127 27 -185
q-80 -40 -185 -46zM139 599.5q-25 27.5 -25 67.5t26.5 66.5t65.5 26.5q38 0 64 -26.5t26 -66.5q0 -39 -28 -67t-66 -28t-63 27.5zM370 599.5q-25 27.5 -25 67.5t26.5 66.5t65.5 26.5q38 0 63.5 -26.5t25.5 -66.5t-27 -67.5t-66 -27.5q-38 0 -63 27.5z" />
    <glyph glyph-name="yacute" unicode="&#xfd;" horiz-adv-x="611" 
d="M559 513l64 1l-153 -382q-36 -88 -65.5 -187t-40.5 -160q-163 17 -221 58q34 98 115 197q-56 -2 -84 -1l-182 456q126 8 239 25l90 -323l85 320q102 -4 153 -4zM331 573q-44 0 -85 7l98 173q57 1 121.5 7t80.5 7l28 3l-201 -195q-28 -2 -42 -2z" />
    <glyph glyph-name="thorn" unicode="&#xfe;" horiz-adv-x="627" 
d="M569.5 132q-39.5 -67 -115 -105.5t-180.5 -40.5v-2q0 -75 3 -120t7 -53q-113 -22 -225 -19q-5 42 -5 192v716v8q30 13 63.5 23t82.5 21q38 8 74 18v-308q19 32 53 49.5t81 17.5q59 0 105 -31.5t71 -86.5t25 -125q0 -87 -39.5 -154zM290.5 336q-16.5 -23 -16.5 -57v-123
l9 -1q101 0 101 112q0 43 -14 67.5t-39 24.5q-24 0 -40.5 -23z" />
    <glyph glyph-name="ydieresis" unicode="&#xff;" horiz-adv-x="611" 
d="M559 513l64 1l-153 -382q-36 -88 -65.5 -187t-40.5 -160q-163 17 -221 58q34 98 115 197q-56 -2 -84 -1l-182 456q126 8 239 25l90 -323l85 320q102 -4 153 -4zM139 599.5q-25 27.5 -25 67.5t26.5 66.5t65.5 26.5q38 0 64 -26.5t26 -66.5q0 -39 -28 -67t-66 -28t-63 27.5
zM370 599.5q-25 27.5 -25 67.5t26.5 66.5t65.5 26.5q38 0 63.5 -26.5t25.5 -66.5t-27 -67.5t-66 -27.5q-38 0 -63 27.5z" />
    <glyph glyph-name="Amacron" unicode="&#x100;" horiz-adv-x="773" 
d="M228 788h-37l6 33q8 46 8 67h23v0v0h343q0 -21 -8 -67l-6 -33h-329v0zM465 140h-194l-44 -146l-214 6l264 700q123 0 215 11l269 -711l-256 -15zM433 265l-57 222l-67 -222h124z" />
    <glyph glyph-name="amacron" unicode="&#x101;" horiz-adv-x="563" 
d="M361 -15q-29 35 -48 94q-25 -47 -65 -70.5t-87 -23.5q-61 0 -101.5 37t-40.5 103q0 83 67 130t176 47q23 0 45 -2q-9 68 -91 68q-35 0 -74.5 -12t-66.5 -26q-15 52 -18 132q36 26 99.5 46.5t135.5 20.5q109 0 167.5 -54.5t58.5 -173.5v-85q0 -125 27 -185
q-80 -40 -184 -46zM303 215q-16 2 -28 2q-34 0 -52 -10.5t-18 -30.5q0 -15 10 -24.5t28 -9.5q47 0 60 73zM466 641l-6 -33h-329v0v0h-37q1 11 5 33q9 41 9 67h23v0v0h343q0 -21 -8 -67z" />
    <glyph glyph-name="Abreve" unicode="&#x102;" horiz-adv-x="773" 
d="M255 795.5q-49 48.5 -49 131.5q49 7 81 7q13 0 41 -2q0 -59 54 -59q55 0 55 59q26 2 40 2q32 0 81 -7q0 -83 -48.5 -131.5t-127.5 -48.5q-78 0 -127 48.5zM465 140h-194l-44 -146l-214 6l264 700q123 0 215 11l269 -711l-256 -15zM433 265l-57 222l-67 -222h124z" />
    <glyph glyph-name="abreve" unicode="&#x103;" horiz-adv-x="563" 
d="M361 -15q-29 35 -48 94q-25 -47 -65 -70.5t-87 -23.5q-61 0 -101.5 37t-40.5 103q0 83 67 130t176 47q23 0 45 -2q-9 68 -91 68q-35 0 -74.5 -12t-66.5 -26q-15 52 -18 132q36 26 99.5 46.5t135.5 20.5q109 0 167.5 -54.5t58.5 -173.5v-85q0 -125 27 -185
q-80 -40 -184 -46zM303 215q-16 2 -28 2q-34 0 -52 -10.5t-18 -30.5q0 -15 10 -24.5t28 -9.5q47 0 60 73zM157 615.5q-49 48.5 -49 131.5q49 7 81 7q14 0 40 -2q0 -28 14 -43.5t41 -15.5t41 15.5t14 43.5q26 2 40 2q32 0 81 -7q0 -83 -49 -131.5t-127 -48.5t-127 48.5z" />
    <glyph glyph-name="Aogonek" unicode="&#x104;" horiz-adv-x="773" 
d="M685 -96q16 7 25 16l1 -16q0 -28 -13 -86q-16 -12 -44.5 -22.5t-58.5 -10.5q-49 0 -81.5 30.5t-32.5 78.5q0 50 40 92l-16 -1l-40 155h-194l-44 -146l-214 6l264 700q123 0 215 11l269 -711l-82 -5q-28 -7 -46.5 -22t-18.5 -39q0 -18 11 -27.5t29 -9.5q15 0 31 7z
M433 265l-57 222l-67 -222h124z" />
    <glyph glyph-name="aogonek" unicode="&#x105;" horiz-adv-x="563" 
d="M498.5 -96q15.5 7 24.5 16q1 -5 1 -16q0 -28 -13 -86q-15 -12 -43.5 -22.5t-58.5 -10.5q-50 0 -82 30t-32 78q0 62 55 107q-22 31 -37 79q-25 -47 -65 -70.5t-87 -23.5q-61 0 -101.5 37t-40.5 103q0 83 67 130t176 47q23 0 45 -2q-9 68 -91 68q-35 0 -74.5 -12t-66.5 -26
q-15 52 -18 132q36 26 99.5 46.5t135.5 20.5q109 0 167.5 -54.5t58.5 -173.5v-85q0 -125 27 -185q-19 -11 -45 -19q-72 -33 -72 -77q0 -18 10.5 -28t28.5 -10q16 0 31.5 7zM303 215q-16 2 -28 2q-34 0 -52 -10.5t-18 -30.5q0 -15 10 -24.5t28 -9.5q47 0 60 73z" />
    <glyph glyph-name="Cacute" unicode="&#x106;" horiz-adv-x="657" 
d="M411 753q-44 0 -85 7l99 173q57 1 122 7t79 7l28 3l-201 -195q-28 -2 -42 -2zM195 27.5q-77 42.5 -121 120.5t-44 180q0 115 52.5 203t142 136t197.5 48q65 0 121 -15.5t88 -37.5q-2 -44 -15 -109.5t-37 -118.5q-18 31 -58.5 56t-93.5 25q-71 0 -115 -45t-44 -119
q0 -83 53 -121.5t127 -38.5q58 0 108 21t71 50q3 -16 3 -33q0 -55 -30 -163q-33 -33 -94.5 -57t-136.5 -24q-97 0 -174 42.5z" />
    <glyph glyph-name="cacute" unicode="&#x107;" horiz-adv-x="472" 
d="M138 17.5q-58 32.5 -90.5 91.5t-32.5 136q0 86 40 150.5t108 99t150 34.5q47 0 84.5 -9.5t62.5 -22.5q4 -80 -35 -182q-15 17 -41.5 30.5t-55.5 13.5q-42 0 -67.5 -26t-25.5 -69q0 -48 29 -71.5t75 -23.5q35 0 70 13t50 27q3 -18 3 -36q0 -45 -16 -127
q-25 -26 -70.5 -43.5t-105.5 -17.5q-74 0 -132 32.5zM290 573q-44 0 -85 7l98 173q57 1 121.5 7t80.5 7l28 3l-201 -195q-28 -2 -42 -2z" />
    <glyph glyph-name="Ccircumflex" unicode="&#x108;" horiz-adv-x="657" 
d="M223 758h-41l156 177q68 0 118 9l158 -176q-81 -15 -156 -16l-69 60l-66 -57q-51 3 -100 3zM556 212q50 21 71 50q3 -16 3 -33q0 -55 -30 -163q-33 -33 -94.5 -57t-136.5 -24q-97 0 -174 42.5t-121 120.5t-44 180q0 115 52.5 203t142 136t197.5 48q65 0 121 -15.5
t88 -37.5q-2 -44 -15 -109.5t-37 -118.5q-18 31 -58.5 56t-93.5 25q-71 0 -115 -45t-44 -119q0 -83 53 -121.5t127 -38.5q58 0 108 21z" />
    <glyph glyph-name="ccircumflex" unicode="&#x109;" horiz-adv-x="472" 
d="M138 17.5q-58 32.5 -90.5 91.5t-32.5 136q0 86 40 150.5t108 99t150 34.5q47 0 84.5 -9.5t62.5 -22.5q4 -80 -35 -182q-15 17 -41.5 30.5t-55.5 13.5q-42 0 -67.5 -26t-25.5 -69q0 -48 29 -71.5t75 -23.5q35 0 70 13t50 27q3 -18 3 -36q0 -45 -16 -127
q-25 -26 -70.5 -43.5t-105.5 -17.5q-74 0 -132 32.5zM336 572l-68 60l-67 -57q-49 3 -99 3h-42l156 177q68 0 118 9l158 -176q-80 -15 -156 -16z" />
    <glyph glyph-name="Cdotaccent" unicode="&#x10a;" horiz-adv-x="657" 
d="M314.5 782q-34.5 30 -34.5 74q0 43 34.5 72t85.5 29t85.5 -29t34.5 -72q0 -44 -35 -74t-85 -30q-51 0 -85.5 30zM195 27.5q-77 42.5 -121 120.5t-44 180q0 115 52.5 203t142 136t197.5 48q65 0 121 -15.5t88 -37.5q-2 -44 -15 -109.5t-37 -118.5q-18 31 -58.5 56
t-93.5 25q-71 0 -115 -45t-44 -119q0 -83 53 -121.5t127 -38.5q58 0 108 21t71 50q3 -16 3 -33q0 -55 -30 -163q-33 -33 -94.5 -57t-136.5 -24q-97 0 -174 42.5z" />
    <glyph glyph-name="cdotaccent" unicode="&#x10b;" horiz-adv-x="472" 
d="M138 17.5q-58 32.5 -90.5 91.5t-32.5 136q0 86 40 150.5t108 99t150 34.5q47 0 84.5 -9.5t62.5 -22.5q4 -80 -35 -182q-15 17 -41.5 30.5t-55.5 13.5q-42 0 -67.5 -26t-25.5 -69q0 -48 29 -71.5t75 -23.5q35 0 70 13t50 27q3 -18 3 -36q0 -45 -16 -127
q-25 -26 -70.5 -43.5t-105.5 -17.5q-74 0 -132 32.5zM193.5 602q-34.5 30 -34.5 74q0 43 34.5 72t85.5 29t85.5 -29t34.5 -72q0 -44 -35 -74t-86 -30q-50 0 -84.5 30z" />
    <glyph glyph-name="Ccaron" unicode="&#x10c;" horiz-adv-x="657" 
d="M346 752l-158 176q87 7 156 16l69 -60l66 57q51 -3 100 -3l41 1l-156 -178q-65 -10 -118 -9zM556 212q50 21 71 50q3 -16 3 -33q0 -55 -30 -163q-33 -33 -94.5 -57t-136.5 -24q-97 0 -174 42.5t-121 120.5t-44 180q0 115 52.5 203t142 136t197.5 48q65 0 121 -15.5
t88 -37.5q-2 -44 -15 -109.5t-37 -118.5q-18 31 -58.5 56t-93.5 25q-71 0 -115 -45t-44 -119q0 -83 53 -121.5t127 -38.5q58 0 108 21z" />
    <glyph glyph-name="ccaron" unicode="&#x10d;" horiz-adv-x="472" 
d="M138 17.5q-58 32.5 -90.5 91.5t-32.5 136q0 86 40 150.5t108 99t150 34.5q47 0 84.5 -9.5t62.5 -22.5q4 -80 -35 -182q-15 17 -41.5 30.5t-55.5 13.5q-42 0 -67.5 -26t-25.5 -69q0 -48 29 -71.5t75 -23.5q35 0 70 13t50 27q3 -18 3 -36q0 -45 -16 -127
q-25 -26 -70.5 -43.5t-105.5 -17.5q-74 0 -132 32.5zM458 758l41 1l-156 -178q-65 -10 -118 -9l-158 176q87 7 156 16l68 -60l67 57q50 -3 100 -3z" />
    <glyph glyph-name="Dcaron" unicode="&#x10e;" horiz-adv-x="793" 
d="M299 752l-157 176q87 7 155 16l69 -60l67 57q50 -3 99 -3l41 1l-155 -178q-67 -10 -119 -9zM648 626q115 -85 115 -243q0 -114 -56.5 -204.5t-159.5 -141.5t-236 -51q-61 0 -238 13v702q180 10 252 10q208 0 323 -85zM477 230.5q40 44.5 40 124.5q0 84 -45.5 120
t-142.5 36h-18v-321q26 -4 47 -4q79 0 119 44.5z" />
    <glyph glyph-name="dcaron" unicode="&#x10f;" horiz-adv-x="648" 
d="M573 216q0 -125 27 -185q-80 -40 -184 -46q-26 32 -44 81q-20 -37 -58.5 -59t-92.5 -22q-60 0 -106.5 31.5t-71.5 86.5t-25 125q0 87 39.5 154.5t115 106t180.5 40.5v179q29 13 62 22.5t84 21.5q39 8 74 18v-276v-278v0zM708 751h40l-39 -196q-57 -10 -104 -9l8 208
q49 -3 95 -3zM336.5 178q16.5 23 16.5 58v132h-9q-101 0 -101 -120q0 -42 14 -67.5t39 -25.5q24 0 40.5 23z" />
    <glyph glyph-name="Dcroat" unicode="&#x110;" horiz-adv-x="793" 
d="M648 626q115 -85 115 -243q0 -114 -56.5 -204.5t-159.5 -141.5t-236 -51q-61 0 -238 13v289h-100l7 40q10 54 10 80h83v293q180 10 252 10q208 0 323 -85zM477 230.5q40 44.5 40 124.5q0 84 -45.5 120t-142.5 36h-18v-103h126q0 -26 -10 -80q-3 -14 -7 -40h-109v-98
q26 -4 47 -4q79 0 119 44.5z" />
    <glyph glyph-name="dcroat" unicode="&#x111;" horiz-adv-x="630" 
d="M573 494v-278v0q0 -125 27 -185q-80 -40 -184 -46q-26 32 -44 81q-20 -37 -58.5 -59t-92.5 -22q-60 0 -106.5 31.5t-71.5 86.5t-25 125q0 87 39.5 154.5t115 106t180.5 40.5v31h-164l6 34q8 44 8 66h150v48q29 13 62 22.5t84 21.5q39 8 74 18v-110h65q0 -18 -4 -39
t-5 -27q-4 -25 -5 -34h-51v-66zM336.5 178q16.5 23 16.5 58v132h-9q-101 0 -101 -120q0 -42 14 -67.5t39 -25.5q24 0 40.5 23z" />
    <glyph glyph-name="Emacron" unicode="&#x112;" horiz-adv-x="594" 
d="M175 788h-37q1 11 5 33q9 41 9 67h23v0v0h343q0 -21 -8 -67l-6 -33h-329v0zM570 149q0 -22 -2 -50.5t-3 -40.5q-4 -37 -5 -58h-487v700h484q2 -22 2 -35q0 -30 -6 -88l-4 -57h-238v-94h196q1 -9 1 -27q0 -22 -4 -68l-3 -45h-190v-101h258q1 -12 1 -36z" />
    <glyph glyph-name="emacron" unicode="&#x113;" horiz-adv-x="521" 
d="M432 160.5q43 12.5 64 29.5q2 -20 2 -30q0 -35 -13 -106q-26 -28 -84.5 -48.5t-121.5 -20.5q-76 0 -136 30.5t-94 89.5t-34 140t39.5 146t106 101.5t144.5 36.5q67 0 114 -27.5t70.5 -74t23.5 -103.5q0 -30 -6.5 -54.5t-14.5 -36.5l-277 -4q9 -45 40.5 -63t85.5 -18
q48 0 91 12.5zM237 354q-17 -24 -23 -61l95 5q2 18 2 29q0 24 -9.5 37.5t-27.5 13.5q-20 0 -37 -24zM462 641l-6 -33h-329v0v0h-37q1 11 5 33q9 41 9 67h23v0v0h343q0 -21 -8 -67z" />
    <glyph glyph-name="Ebreve" unicode="&#x114;" horiz-adv-x="594" 
d="M202 795.5q-49 48.5 -49 131.5q49 7 81 7q14 0 40 -2q0 -28 14 -43.5t41 -15.5t41 15.5t14 43.5q26 2 40 2q32 0 81 -7q0 -83 -49 -131.5t-127 -48.5t-127 48.5zM570 149q0 -22 -2 -50.5t-3 -40.5q-4 -37 -5 -58h-487v700h484q2 -22 2 -35q0 -30 -6 -88l-4 -57h-238v-94
h196q1 -9 1 -27q0 -22 -4 -68l-3 -45h-190v-101h258q1 -12 1 -36z" />
    <glyph glyph-name="ebreve" unicode="&#x115;" horiz-adv-x="521" 
d="M432 160.5q43 12.5 64 29.5q2 -20 2 -30q0 -35 -13 -106q-26 -28 -84.5 -48.5t-121.5 -20.5q-76 0 -136 30.5t-94 89.5t-34 140t39.5 146t106 101.5t144.5 36.5q67 0 114 -27.5t70.5 -74t23.5 -103.5q0 -30 -6.5 -54.5t-14.5 -36.5l-277 -4q9 -45 40.5 -63t85.5 -18
q48 0 91 12.5zM237 354q-17 -24 -23 -61l95 5q2 18 2 29q0 24 -9.5 37.5t-27.5 13.5q-20 0 -37 -24zM153 615.5q-49 48.5 -49 131.5q49 7 81 7q14 0 40 -2q0 -28 14 -43.5t41 -15.5t41 15.5t14 43.5q26 2 40 2q32 0 81 -7q0 -83 -49 -131.5t-127 -48.5t-127 48.5z" />
    <glyph glyph-name="Edotaccent" unicode="&#x116;" horiz-adv-x="594" 
d="M243.5 782q-34.5 30 -34.5 74q0 43 34.5 72t85.5 29t85.5 -29t34.5 -72q0 -44 -35 -74t-86 -30q-50 0 -84.5 30zM570 149q0 -22 -2 -50.5t-3 -40.5q-4 -37 -5 -58h-487v700h484q2 -22 2 -35q0 -30 -6 -88l-4 -57h-238v-94h196q1 -9 1 -27q0 -22 -4 -68l-3 -45h-190v-101
h258q1 -12 1 -36z" />
    <glyph glyph-name="edotaccent" unicode="&#x117;" horiz-adv-x="521" 
d="M432 160.5q43 12.5 64 29.5q2 -20 2 -30q0 -35 -13 -106q-26 -28 -84.5 -48.5t-121.5 -20.5q-76 0 -136 30.5t-94 89.5t-34 140t39.5 146t106 101.5t144.5 36.5q67 0 114 -27.5t70.5 -74t23.5 -103.5q0 -30 -6.5 -54.5t-14.5 -36.5l-277 -4q9 -45 40.5 -63t85.5 -18
q48 0 91 12.5zM237 354q-17 -24 -23 -61l95 5q2 18 2 29q0 24 -9.5 37.5t-27.5 13.5q-20 0 -37 -24zM194.5 602q-34.5 30 -34.5 74q0 43 34.5 72t85.5 29t85.5 -29t34.5 -72q0 -44 -35 -74t-86 -30q-50 0 -84.5 30z" />
    <glyph glyph-name="Eogonek" unicode="&#x118;" horiz-adv-x="594" 
d="M493.5 -18q-31.5 -17 -31.5 -48q0 -18 11 -27.5t29 -9.5q15 0 31.5 7.5t24.5 15.5l1 -16q0 -28 -13 -86q-16 -12 -44.5 -22.5t-58.5 -10.5q-50 0 -82 30.5t-32 78.5q0 60 63 106h-319v700h484q2 -22 2 -35q0 -30 -6 -88l-4 -57h-238v-94h196q1 -9 1 -27q0 -22 -4 -68
l-3 -45h-190v-101h258q1 -12 1 -36q0 -22 -2 -50.5t-3 -40.5q-2 -17 -4 -51l2 -7q-38 -1 -69.5 -18z" />
    <glyph glyph-name="eogonek" unicode="&#x119;" horiz-adv-x="521" 
d="M432 160.5q43 12.5 64 29.5q2 -20 2 -30q0 -35 -13 -106q-20 -21 -58 -38q-21 -14 -36 -34t-15 -44q0 -20 10.5 -30.5t29.5 -10.5q15 0 31 7t25 16l1 -16q0 -28 -13 -86q-16 -12 -44.5 -22.5t-58.5 -10.5q-50 0 -82 30t-32 78q0 51 39 92h-3q-76 0 -136 30.5t-94 89.5
t-34 140t39.5 146t106 101.5t144.5 36.5q67 0 114 -27.5t70.5 -74t23.5 -103.5q0 -30 -6.5 -54.5t-14.5 -36.5l-277 -4q9 -45 40.5 -63t85.5 -18q48 0 91 12.5zM237 354q-17 -24 -23 -61l95 5q2 18 2 29q0 24 -9.5 37.5t-27.5 13.5q-20 0 -37 -24z" />
    <glyph glyph-name="Ecaron" unicode="&#x11a;" horiz-adv-x="594" 
d="M275 752l-158 176q87 7 156 16l68 -60l67 57q50 -3 100 -3l41 1l-156 -178q-65 -10 -118 -9zM570 149q0 -22 -2 -50.5t-3 -40.5q-4 -37 -5 -58h-487v700h484q2 -22 2 -35q0 -30 -6 -88l-4 -57h-238v-94h196q1 -9 1 -27q0 -22 -4 -68l-3 -45h-190v-101h258q1 -12 1 -36z
" />
    <glyph glyph-name="ecaron" unicode="&#x11b;" horiz-adv-x="521" 
d="M432 160.5q43 12.5 64 29.5q2 -20 2 -30q0 -35 -13 -106q-26 -28 -84.5 -48.5t-121.5 -20.5q-76 0 -136 30.5t-94 89.5t-34 140t39.5 146t106 101.5t144.5 36.5q67 0 114 -27.5t70.5 -74t23.5 -103.5q0 -30 -6.5 -54.5t-14.5 -36.5l-277 -4q9 -45 40.5 -63t85.5 -18
q48 0 91 12.5zM237 354q-17 -24 -23 -61l95 5q2 18 2 29q0 24 -9.5 37.5t-27.5 13.5q-20 0 -37 -24zM459 758l41 1l-156 -178q-65 -10 -118 -9l-158 176q87 7 156 16l68 -60l67 57q50 -3 100 -3z" />
    <glyph glyph-name="Gcircumflex" unicode="&#x11c;" horiz-adv-x="751" 
d="M250 758h-41l155 177q69 0 119 9l157 -176q-79 -15 -155 -16l-69 60l-67 -57q-50 3 -99 3zM712 0q-39 -5 -90 -5q-38 0 -57 2l-36 39q-75 -51 -173 -51q-91 0 -165.5 43t-117.5 121t-43 179q0 115 53 203t146.5 136t209.5 48q71 0 135 -16.5t99 -36.5q-1 -38 -12.5 -95
t-32.5 -103q-28 23 -77.5 42t-104.5 19q-84 0 -131 -47t-47 -127q0 -93 53 -136.5t127 -43.5q18 0 36 3v86h-89l8 47q12 62 12 93h297v-400z" />
    <glyph glyph-name="gcircumflex" unicode="&#x11d;" horiz-adv-x="593" 
d="M559 72q30 -32 30 -86q0 -58 -35 -103.5t-105 -71.5t-172 -26q-78 0 -139 17.5t-95 49.5t-34 72q0 35 29.5 64.5t76.5 45.5q-35 32 -35 83q0 60 48 93q-85 39 -85 132q0 60 35.5 102t93 63.5t123.5 21.5q47 0 83 -10h210q0 -27 -12 -81q-6 -30 -8 -41l-69 36
q18 -31 18 -74q0 -87 -73 -130.5t-179 -43.5q-23 0 -34 1q1 -12 17 -21.5t62 -18.5l153 -29q66 -13 96 -45zM249.5 388.5q-16.5 -12.5 -16.5 -33.5q0 -19 11 -30.5t29 -11.5q20 0 37 12.5t17 34.5q0 19 -11.5 30t-29.5 11q-20 0 -36.5 -12.5zM348.5 -84q19.5 10 19.5 30
q0 10 -7.5 15t-25.5 9l-103 20q-20 -15 -20 -34q0 -21 20.5 -35.5t66.5 -14.5q30 0 49.5 10zM351 572l-68 60l-67 -57q-49 3 -99 3h-42l156 177q68 0 118 9l158 -176q-80 -15 -156 -16z" />
    <glyph glyph-name="Gbreve" unicode="&#x11e;" horiz-adv-x="751" 
d="M300 795.5q-49 48.5 -49 131.5q49 7 81 7q14 0 40 -2q0 -28 14 -43.5t41 -15.5t41 15.5t14 43.5q26 2 40 2q32 0 81 -7q0 -83 -49 -131.5t-127 -48.5t-127 48.5zM712 0q-39 -5 -90 -5q-38 0 -57 2l-36 39q-75 -51 -173 -51q-91 0 -165.5 43t-117.5 121t-43 179
q0 115 53 203t146.5 136t209.5 48q71 0 135 -16.5t99 -36.5q-1 -38 -12.5 -95t-32.5 -103q-28 23 -77.5 42t-104.5 19q-84 0 -131 -47t-47 -127q0 -93 53 -136.5t127 -43.5q18 0 36 3v86h-89l8 47q12 62 12 93h297v-400z" />
    <glyph glyph-name="gbreve" unicode="&#x11f;" horiz-adv-x="593" 
d="M559 72q30 -32 30 -86q0 -58 -35 -103.5t-105 -71.5t-172 -26q-78 0 -139 17.5t-95 49.5t-34 72q0 35 29.5 64.5t76.5 45.5q-35 32 -35 83q0 60 48 93q-85 39 -85 132q0 60 35.5 102t93 63.5t123.5 21.5q47 0 83 -10h210q0 -27 -12 -81q-6 -30 -8 -41l-69 36
q18 -31 18 -74q0 -87 -73 -130.5t-179 -43.5q-23 0 -34 1q1 -12 17 -21.5t62 -18.5l153 -29q66 -13 96 -45zM249.5 388.5q-16.5 -12.5 -16.5 -33.5q0 -19 11 -30.5t29 -11.5q20 0 37 12.5t17 34.5q0 19 -11.5 30t-29.5 11q-20 0 -36.5 -12.5zM348.5 -84q19.5 10 19.5 30
q0 10 -7.5 15t-25.5 9l-103 20q-20 -15 -20 -34q0 -21 20.5 -35.5t66.5 -14.5q30 0 49.5 10zM167 615.5q-49 48.5 -49 131.5q49 7 81 7q14 0 40 -2q0 -28 14 -43.5t41 -15.5t41 15.5t14 43.5q26 2 40 2q32 0 81 -7q0 -83 -49 -131.5t-127 -48.5t-127 48.5z" />
    <glyph glyph-name="Gdotaccent" unicode="&#x120;" horiz-adv-x="751" 
d="M341.5 782q-34.5 30 -34.5 74q0 43 34.5 72t85.5 29t85.5 -29t34.5 -72q0 -44 -35 -74t-86 -30q-50 0 -84.5 30zM712 0q-39 -5 -90 -5q-38 0 -57 2l-36 39q-75 -51 -173 -51q-91 0 -165.5 43t-117.5 121t-43 179q0 115 53 203t146.5 136t209.5 48q71 0 135 -16.5
t99 -36.5q-1 -38 -12.5 -95t-32.5 -103q-28 23 -77.5 42t-104.5 19q-84 0 -131 -47t-47 -127q0 -93 53 -136.5t127 -43.5q18 0 36 3v86h-89l8 47q12 62 12 93h297v-400z" />
    <glyph glyph-name="gdotaccent" unicode="&#x121;" horiz-adv-x="593" 
d="M559 72q30 -32 30 -86q0 -58 -35 -103.5t-105 -71.5t-172 -26q-78 0 -139 17.5t-95 49.5t-34 72q0 35 29.5 64.5t76.5 45.5q-35 32 -35 83q0 60 48 93q-85 39 -85 132q0 60 35.5 102t93 63.5t123.5 21.5q47 0 83 -10h210q0 -27 -12 -81q-6 -30 -8 -41l-69 36
q18 -31 18 -74q0 -87 -73 -130.5t-179 -43.5q-23 0 -34 1q1 -12 17 -21.5t62 -18.5l153 -29q66 -13 96 -45zM249.5 388.5q-16.5 -12.5 -16.5 -33.5q0 -19 11 -30.5t29 -11.5q20 0 37 12.5t17 34.5q0 19 -11.5 30t-29.5 11q-20 0 -36.5 -12.5zM348.5 -84q19.5 10 19.5 30
q0 10 -7.5 15t-25.5 9l-103 20q-20 -15 -20 -34q0 -21 20.5 -35.5t66.5 -14.5q30 0 49.5 10zM208.5 602q-34.5 30 -34.5 74q0 43 34.5 72t85.5 29t85.5 -29t34.5 -72q0 -44 -35 -74t-86 -30q-50 0 -84.5 30z" />
    <glyph glyph-name="Gcommaaccent" unicode="&#x122;" horiz-adv-x="751" 
d="M712 0q-39 -5 -90 -5q-38 0 -57 2l-36 39q-75 -51 -173 -51q-91 0 -165.5 43t-117.5 121t-43 179q0 115 53 203t146.5 136t209.5 48q71 0 135 -16.5t99 -36.5q-1 -38 -12.5 -95t-32.5 -103q-28 23 -77.5 42t-104.5 19q-84 0 -131 -47t-47 -127q0 -93 53 -136.5t127 -43.5
q18 0 36 3v86h-89l8 47q12 62 12 93h297v-400zM349 -299q24 17 43 39.5t19 41.5q0 12 -7.5 18t-23.5 13q-22 8 -34 19t-12 36q0 35 25 60t68 25q45 0 71.5 -30.5t26.5 -81.5q0 -60 -33.5 -104t-77.5 -66q-47 7 -65 30z" />
    <glyph glyph-name="gcommaaccent" unicode="&#x123;" horiz-adv-x="593" 
d="M559 72q30 -32 30 -86q0 -58 -35 -103.5t-105 -71.5t-172 -26q-78 0 -139 17.5t-95 49.5t-34 72q0 35 29.5 64.5t76.5 45.5q-35 32 -35 83q0 60 48 93q-85 39 -85 132q0 60 35.5 102t93 63.5t123.5 21.5q47 0 83 -10h210q0 -27 -12 -81q-6 -30 -8 -41l-69 36
q18 -31 18 -74q0 -87 -73 -130.5t-179 -43.5q-23 0 -34 1q1 -12 17 -21.5t62 -18.5l153 -29q66 -13 96 -45zM249.5 388.5q-16.5 -12.5 -16.5 -33.5q0 -19 11 -30.5t29 -11.5q20 0 37 12.5t17 34.5q0 19 -11.5 30t-29.5 11q-20 0 -36.5 -12.5zM348.5 -84q19.5 10 19.5 30
q0 10 -7.5 15t-25.5 9l-103 20q-20 -15 -20 -34q0 -21 20.5 -35.5t66.5 -14.5q30 0 49.5 10zM358 812q-24 -17 -43 -39.5t-19 -41.5q0 -12 7.5 -18t23.5 -13q22 -8 34 -19t12 -36q0 -35 -25 -60t-68 -25q-45 0 -71.5 30.5t-26.5 81.5q0 60 33.5 104t77.5 66q47 -7 65 -30z
" />
    <glyph glyph-name="Hcircumflex" unicode="&#x124;" horiz-adv-x="834" 
d="M240 758h-41l155 177q69 0 119 9l157 -176q-79 -15 -155 -16l-69 60l-67 -57q-50 3 -99 3zM761 705v-521v-184q-75 -9 -145 -9q-52 0 -93 4v275h-212v-270q-75 -9 -145 -9q-52 0 -93 4v519v186q160 0 238 5v-255h212v250q161 0 238 5z" />
    <glyph glyph-name="hcircumflex" unicode="&#x125;" horiz-adv-x="651" 
d="M608 64.5q3 -44.5 7 -53.5q-122 -22 -225 -19q-5 43 -5 192v110q0 23 -11.5 36t-32.5 13q-30 0 -48.5 -24t-18.5 -64v-71q0 -115 8 -179q-80 -11 -149 -11q-36 0 -74 3q-5 40 -5 187v524q30 13 63.5 23t82.5 21q9 2 24 5.5t25 6.5h-45h-41l155 177q69 0 119 9l157 -176
q-79 -15 -155 -16l-69 60l-67 -57l-29 2v-338q20 49 64 76.5t99 27.5q79 0 123.5 -53.5t44.5 -152.5v-139q0 -75 3 -119.5z" />
    <glyph glyph-name="Hbar" unicode="&#x126;" horiz-adv-x="834" 
d="M808 568q-4 -22 -5 -33h-42v-351v-184q-75 -9 -145 -9q-52 0 -93 4v275h-212v-270q-75 -9 -145 -9q-52 0 -93 4v519v21h-56l6 33q8 44 8 67h42v65q160 0 238 5v-70h212v65q161 0 238 5v-70h56q0 -27 -9 -67zM311 535v-85h212v85h-212z" />
    <glyph glyph-name="hbar" unicode="&#x127;" horiz-adv-x="651" 
d="M608 64.5q3 -44.5 7 -53.5q-122 -22 -225 -19q-5 43 -5 192v110q0 23 -11.5 36t-32.5 13q-30 0 -48.5 -24t-18.5 -64v-71q0 -115 8 -179q-80 -11 -149 -11q-36 0 -74 3q-5 40 -5 187v376h-64q1 9 5 34q9 40 9 66h50v48q30 13 63.5 23t82.5 21q38 8 74 18v-110h164
q0 -22 -8 -66l-6 -34h-150v-135q20 49 64 76.5t99 27.5q79 0 123.5 -53.5t44.5 -152.5v-139q0 -75 3 -119.5z" />
    <glyph glyph-name="Itilde" unicode="&#x128;" horiz-adv-x="384" 
d="M387 914q-5 -66 -37.5 -110t-80.5 -44q-23 0 -42 8t-42 23q-27 18 -40 18q-14 0 -25.5 -14.5t-16.5 -33.5l-96 26q4 59 34.5 106.5t83.5 47.5q24 0 42 -8t42 -23q11 -7 21.5 -12.5t18.5 -5.5q14 0 25.5 14.5t16.5 33.5zM311 514v-330v-184q-75 -9 -145 -9q-52 0 -93 4
v189v330v186q160 0 238 5v-191z" />
    <glyph glyph-name="itilde" unicode="&#x129;" horiz-adv-x="328" 
d="M354 726q-5 -66 -37 -110.5t-80 -44.5q-24 0 -42.5 8.5t-42.5 23.5q-27 18 -40 18q-14 0 -25.5 -14.5t-16.5 -33.5l-96 26q4 59 34.5 106.5t83.5 47.5q24 0 43.5 -8.5t40.5 -22.5q11 -7 21.5 -12.5t18.5 -5.5q14 0 25.5 14.5t16.5 33.5zM282 5q-80 -11 -149 -11
q-36 0 -74 3q-5 40 -5 187v284q30 13 63.5 23t82.5 21q38 8 74 18v-346q0 -115 8 -179z" />
    <glyph glyph-name="Imacron" unicode="&#x12a;" horiz-adv-x="384" 
d="M378 849q-4 -21 -5 -28q-4 -22 -5 -33h-329v0h-38l6 33q8 46 8 67h24v0h343q0 -18 -4 -39zM311 514v-330v-184q-75 -9 -145 -9q-52 0 -93 4v189v330v186q160 0 238 5v-191z" />
    <glyph glyph-name="imacron" unicode="&#x12b;" horiz-adv-x="328" 
d="M326 641l-6 -34h-289v0v0h-37q1 17 6 34q8 44 8 66h23v0v0h303q0 -22 -8 -66zM282 5q-80 -11 -149 -11q-36 0 -74 3q-5 40 -5 187v284q30 13 63.5 23t82.5 21q38 8 74 18v-346q0 -115 8 -179z" />
    <glyph glyph-name="Ibreve" unicode="&#x12c;" horiz-adv-x="384" 
d="M287 934q32 0 81 -7q0 -83 -48.5 -131.5t-127.5 -48.5q-78 0 -126.5 48.5t-48.5 131.5q49 7 81 7q14 0 40 -2q0 -59 54 -59q55 0 55 59q26 2 40 2zM311 514v-330v-184q-75 -9 -145 -9q-52 0 -93 4v189v330v186q160 0 238 5v-191z" />
    <glyph glyph-name="ibreve" unicode="&#x12d;" horiz-adv-x="328" 
d="M259 753q39 0 81 -6q0 -83 -49 -131.5t-127 -48.5t-127 48.5t-49 131.5q42 6 81 6q27 0 40 -2q0 -28 14 -43.5t41 -15.5t41 15.5t14 43.5q13 2 40 2zM282 5q-80 -11 -149 -11q-36 0 -74 3q-5 40 -5 187v284q30 13 63.5 23t82.5 21q38 8 74 18v-346q0 -115 8 -179z" />
    <glyph glyph-name="Iogonek" unicode="&#x12e;" horiz-adv-x="388" 
d="M315 -96q0 -36 -13 -86q-15 -12 -43.5 -22.5t-58.5 -10.5q-50 0 -82 30t-32 76q0 59 53 100q-44 2 -66 4v189v330v186q160 0 238 5v-191v-330v-184l-29 -3q-27 -9 -45 -26t-18 -39q0 -16 10.5 -25.5t28.5 -9.5q16 0 31.5 7t25.5 16v-16z" />
    <glyph glyph-name="iogonek" unicode="&#x12f;" horiz-adv-x="328" 
d="M78.5 601.5q-34.5 29.5 -34.5 73.5t34.5 73t85.5 29t85.5 -29t34.5 -73t-35 -73.5t-86 -29.5q-50 0 -84.5 29.5zM286 -96q0 -28 -13 -86q-15 -12 -43.5 -22.5t-58.5 -10.5q-50 0 -82 30t-32 76q0 60 56 103q-27 0 -54 3q-5 40 -5 187v284q30 13 63.5 23t82.5 21
q38 8 74 18v-346q0 -107 7 -172l1 -7q-33 -6 -62.5 -25t-29.5 -48q0 -16 10.5 -25.5t28.5 -9.5q16 0 31.5 7t24.5 16q1 -5 1 -16z" />
    <glyph glyph-name="Idotaccent" unicode="&#x130;" horiz-adv-x="384" 
d="M107 782q-35 30 -35 74q0 43 34.5 72t85.5 29t85.5 -29t34.5 -72q0 -44 -35 -74t-85 -30t-85 30zM311 514v-330v-184q-75 -9 -145 -9q-52 0 -93 4v189v330v186q160 0 238 5v-191z" />
    <glyph glyph-name="dotlessi" unicode="&#x131;" horiz-adv-x="328" 
d="M282 5q-80 -11 -149 -11q-36 0 -74 3q-5 40 -5 187v284q30 13 63.5 23t82.5 21q38 8 74 18v-346q0 -115 8 -179z" />
    <glyph glyph-name="IJ" unicode="&#x132;" horiz-adv-x="888" 
d="M311 184v-184q-75 -9 -145 -9q-52 0 -93 4v189v330v186q160 0 238 5v-191v-330zM832 705v-416q0 -157 -63 -230.5t-190 -73.5q-83 0 -148 24q-31 79 -31 168q0 16 2 46q3 -2 17 -9t37 -13t50 -6q47 0 67.5 24t20.5 75v406q160 0 238 5z" />
    <glyph glyph-name="ij" unicode="&#x133;" horiz-adv-x="654" 
d="M282 5q-80 -11 -149 -11q-36 0 -74 3q-5 40 -5 187v284q30 13 63.5 23t82.5 21q38 8 74 18v-346q0 -115 8 -179zM78.5 602q-34.5 30 -34.5 74q0 43 34.5 72t85.5 29t85.5 -29t34.5 -72q0 -44 -35 -74t-86 -30q-50 0 -84.5 30zM444.5 491q33.5 10 82.5 21q38 8 74 18v-474
q0 -101 -26 -160.5t-78.5 -85t-134.5 -25.5q-50 65 -50 119q0 9 1 14q35 19 51.5 51t16.5 84v415q30 13 63.5 23zM405.5 602q-34.5 30 -34.5 74q0 43 34.5 72t85.5 29t85.5 -29t34.5 -72q0 -44 -35 -74t-86 -30q-50 0 -84.5 30z" />
    <glyph glyph-name="Jcircumflex" unicode="&#x134;" horiz-adv-x="503" 
d="M152 758h-41l156 177q68 0 118 9l158 -176q-81 -15 -156 -16l-69 60l-67 -57q-49 3 -99 3zM448 705v-416q0 -157 -63 -230.5t-190 -73.5q-83 0 -148 24q-31 79 -31 168q0 16 2 46q3 -2 17 -9t37 -13t50 -6q47 0 67.5 24t20.5 75v406q160 0 238 5z" />
    <glyph glyph-name="jcircumflex" unicode="&#x135;" horiz-adv-x="326" 
d="M-14 578h-41l155 177q69 0 119 9l157 -176q-79 -15 -155 -16l-69 60l-67 -57q-50 3 -99 3zM116.5 491q33.5 10 82.5 21q38 8 74 18v-474q0 -101 -26 -160.5t-78.5 -85t-134.5 -25.5q-50 65 -50 119q0 9 1 14q35 19 51.5 51t16.5 84v415q30 13 63.5 23z" />
    <glyph glyph-name="Kcommaaccent" unicode="&#x136;" horiz-adv-x="769" 
d="M346 289h-35v-289q-75 -9 -145 -9q-52 0 -93 4v519v186q160 0 238 5v-266h42l167 261h244l-212 -313l225 -387l-269 -15zM308 -299q24 17 43 39.5t19 41.5q0 12 -7.5 18t-23.5 13q-22 8 -34 19t-12 36q0 35 25 60t68 25q45 0 71.5 -30.5t26.5 -81.5q0 -60 -33.5 -104
t-77.5 -66q-47 7 -65 30z" />
    <glyph glyph-name="kcommaaccent" unicode="&#x137;" horiz-adv-x="643" 
d="M664 13q-127 -24 -249 -21l-102 224l-39 -8v-24q0 -115 8 -179q-80 -11 -149 -11q-36 0 -74 3q-5 40 -5 187v524q30 13 63.5 23t82.5 21q38 8 74 18v-427l34 7l103 167q102 -4 153 -4l64 1l-156 -217zM268 -299q24 17 43 39.5t19 41.5q0 12 -7.5 18t-23.5 13
q-22 8 -34 19t-12 36q0 35 25 60t68 25q45 0 71.5 -30.5t26.5 -81.5q0 -60 -33.5 -104t-77.5 -66q-47 7 -65 30z" />
    <glyph glyph-name="kgreenlandic" unicode="&#x138;" horiz-adv-x="643" 
d="M664 13q-127 -24 -249 -21l-102 224l-39 -8v-24q0 -115 8 -179q-80 -11 -149 -11q-36 0 -74 3q-5 40 -5 187v284q30 13 63.5 23t82.5 21q38 8 74 18v-187l34 7l103 167q102 -4 153 -4l64 1l-156 -217z" />
    <glyph glyph-name="Lacute" unicode="&#x139;" horiz-adv-x="568" 
d="M189 753q-45 0 -86 7l99 173q57 1 122 7t79 7l28 3l-201 -195q-26 -2 -41 -2zM567 161q0 -32 -6 -98q-4 -42 -5 -63h-483v700q160 0 238 5v-505h254q2 -26 2 -39z" />
    <glyph glyph-name="lacute" unicode="&#x13a;" horiz-adv-x="328" 
d="M282 5q-80 -11 -149 -11q-36 0 -74 3q-5 40 -5 187v524q30 13 63.5 23t82.5 21q38 8 74 18v-586q0 -115 8 -179zM175 759q-44 0 -85 7l98 173q57 1 121.5 7t80.5 7l28 3l-201 -195q-28 -2 -42 -2z" />
    <glyph glyph-name="Lcommaaccent" unicode="&#x13b;" horiz-adv-x="568" 
d="M567 161q0 -32 -6 -98q-4 -42 -5 -63h-483v700q160 0 238 5v-505h254q2 -26 2 -39zM233 -299q24 17 43 39.5t19 41.5q0 12 -7.5 18t-23.5 13q-22 8 -34 19t-12 36q0 35 25 60t68 25q45 0 71.5 -30.5t26.5 -81.5q0 -60 -33.5 -104t-77.5 -66q-47 7 -65 30z" />
    <glyph glyph-name="lcommaaccent" unicode="&#x13c;" horiz-adv-x="328" 
d="M282 5q-80 -11 -149 -11q-36 0 -74 3q-5 40 -5 187v524q30 13 63.5 23t82.5 21q38 8 74 18v-586q0 -115 8 -179zM87 -299q24 17 43 39.5t19 41.5q0 12 -7.5 18t-23.5 13q-22 8 -34 19t-12 36q0 35 25 60t68 25q45 0 71.5 -30.5t26.5 -81.5q0 -60 -33.5 -104t-77.5 -66
q-47 7 -65 30z" />
    <glyph glyph-name="Lcaron" unicode="&#x13d;" horiz-adv-x="568" 
d="M379 546l8 208q50 -3 95 -3h40l-39 -196q-57 -10 -104 -9zM567 161q0 -32 -6 -98q-4 -42 -5 -63h-483v700q160 0 238 5v-505h254q2 -26 2 -39z" />
    <glyph glyph-name="lcaron" unicode="&#x13e;" horiz-adv-x="348" 
d="M282 5q-80 -11 -149 -11q-36 0 -74 3q-5 40 -5 187v524q30 13 63.5 23t82.5 21q38 8 74 18v-586q0 -115 8 -179zM409 751h40l-39 -196q-58 -10 -104 -9l7 208q50 -3 96 -3z" />
    <glyph glyph-name="Ldot" unicode="&#x13f;" horiz-adv-x="568" 
d="M567 161q0 -32 -6 -98q-4 -42 -5 -63h-483v700q160 0 238 5v-505h254q2 -26 2 -39zM399.5 319.5q-27.5 26.5 -27.5 69.5q0 46 32 77t79 31q43 0 71 -27t28 -69q0 -46 -32 -77t-79 -31q-44 0 -71.5 26.5z" />
    <glyph glyph-name="ldot" unicode="&#x140;" horiz-adv-x="488" 
d="M282 5q-80 -11 -149 -11q-36 0 -74 3q-5 40 -5 187v524q30 13 63.5 23t82.5 21q38 8 74 18v-586q0 -115 8 -179zM330.5 221.5q-27.5 26.5 -27.5 69.5q0 46 32 77t79 31q43 0 71 -27t28 -69q0 -46 -32 -77t-79 -31q-44 0 -71.5 26.5z" />
    <glyph glyph-name="Lslash" unicode="&#x141;" horiz-adv-x="583" 
d="M582 161q0 -32 -6 -98q-4 -42 -5 -63h-483v203l-72 -41q10 83 13 176l59 34v328q160 0 238 5v-221l148 85q-3 -94 -13 -177l-135 -78v-114h254q2 -26 2 -39z" />
    <glyph glyph-name="lslash" unicode="&#x142;" horiz-adv-x="368" 
d="M293 326v-142q0 -131 8 -179q-82 -11 -149 -11q-38 0 -74 3q-5 40 -5 187v71l-70 -40q8 67 12 166l58 33v294q29 13 62 22.5t83 21.5q37 7 75 18v-285l77 45q-4 -100 -12 -166z" />
    <glyph glyph-name="Nacute" unicode="&#x143;" horiz-adv-x="809" 
d="M420 753q-44 0 -85 7l99 173q57 1 122 7t79 7l28 3l-201 -195q-28 -2 -42 -2zM736 705v-705l-157 -9l-306 374v-365q-69 -8 -122 -8q-43 0 -78 4v704q114 0 170 4l293 -350v160h1h-1v186q135 0 200 5z" />
    <glyph glyph-name="nacute" unicode="&#x144;" horiz-adv-x="655" 
d="M611 64.5q3 -44.5 7 -53.5q-120 -22 -224 -19q-5 39 -6 192v110q0 23 -11.5 36t-32.5 13q-29 0 -47.5 -24t-18.5 -64v-71q0 -131 8 -179q-82 -11 -149 -11q-38 0 -74 3q-5 27 -5 187v102q0 58 -5.5 98t-15.5 91q34 15 76.5 25.5t49.5 12.5q32 6 64 15q28 -63 39 -115
q19 54 66.5 85t107.5 31q79 0 123.5 -53.5t44.5 -152.5v-139q0 -75 3 -119.5zM349 573q-44 0 -85 7l98 173q57 1 121.5 7t80.5 7l28 3l-201 -195q-28 -2 -42 -2z" />
    <glyph glyph-name="Ncommaaccent" unicode="&#x145;" horiz-adv-x="809" 
d="M736 705v-705l-157 -9l-306 374v-365q-69 -8 -122 -8q-43 0 -78 4v704q114 0 170 4l293 -350v160h1h-1v186q135 0 200 5zM332 -299q24 17 43 39.5t19 41.5q0 12 -7.5 18t-23.5 13q-22 8 -34 19t-12 36q0 35 25 60t68 25q45 0 71.5 -30.5t26.5 -81.5q0 -60 -33.5 -104
t-77.5 -66q-47 7 -65 30z" />
    <glyph glyph-name="ncommaaccent" unicode="&#x146;" horiz-adv-x="655" 
d="M611 64.5q3 -44.5 7 -53.5q-120 -22 -224 -19q-5 39 -6 192v110q0 23 -11.5 36t-32.5 13q-29 0 -47.5 -24t-18.5 -64v-71q0 -131 8 -179q-82 -11 -149 -11q-38 0 -74 3q-5 27 -5 187v102q0 58 -5.5 98t-15.5 91q34 15 76.5 25.5t49.5 12.5q32 6 64 15q28 -63 39 -115
q19 54 66.5 85t107.5 31q79 0 123.5 -53.5t44.5 -152.5v-139q0 -75 3 -119.5zM256 -299q24 17 43 39.5t19 41.5q0 12 -7.5 18t-23.5 13q-22 8 -34 19t-12 36q0 35 25 60t68 25q45 0 71.5 -30.5t26.5 -81.5q0 -60 -33.5 -104t-77.5 -66q-47 7 -65 30z" />
    <glyph glyph-name="Ncaron" unicode="&#x147;" horiz-adv-x="809" 
d="M355 752l-158 176q87 7 156 16l69 -60l66 57q51 -3 100 -3l41 1l-156 -178q-65 -10 -118 -9zM736 705v-705l-157 -9l-306 374v-365q-69 -8 -122 -8q-43 0 -78 4v704q114 0 170 4l293 -350v160h1h-1v186q135 0 200 5z" />
    <glyph glyph-name="ncaron" unicode="&#x148;" horiz-adv-x="655" 
d="M611 64.5q3 -44.5 7 -53.5q-120 -22 -224 -19q-5 39 -6 192v110q0 23 -11.5 36t-32.5 13q-29 0 -47.5 -24t-18.5 -64v-71q0 -131 8 -179q-82 -11 -149 -11q-38 0 -74 3q-5 27 -5 187v102q0 58 -5.5 98t-15.5 91q34 15 76.5 25.5t49.5 12.5q32 6 64 15q28 -63 39 -115
q19 54 66.5 85t107.5 31q79 0 123.5 -53.5t44.5 -152.5v-139q0 -75 3 -119.5zM517 758l41 1l-156 -178q-65 -10 -118 -9l-158 176q87 7 156 16l68 -60l67 57q50 -3 100 -3z" />
    <glyph glyph-name="Eng" unicode="&#x14a;" horiz-adv-x="809" 
d="M736 705v-522v-183q0 -111 -54 -163t-164 -52q-51 64 -51 119l1 14q34 18 50.5 48t17.5 77l-263 322v-365q-69 -8 -122 -8q-43 0 -78 4v704q114 0 170 4l293 -350v160h1h-1v186q135 0 200 5z" />
    <glyph glyph-name="eng" unicode="&#x14b;" horiz-adv-x="645" 
d="M564 474.5q44 -54.5 44 -151.5v-267q0 -101 -26 -160.5t-78 -85t-134 -25.5q-51 64 -51 119l1 14l31 15.5t30 38t7 81.5v241q0 23 -11.5 36t-32.5 13q-29 0 -47.5 -24t-18.5 -64v-71q0 -131 8 -179q-82 -11 -149 -11q-38 0 -74 3q-5 27 -5 187v102q0 58 -5.5 98t-15.5 91
q34 15 76.5 25.5t49.5 12.5q32 6 64 15q28 -63 39 -115q19 54 66.5 85t107.5 31q80 0 124 -54.5z" />
    <glyph glyph-name="Omacron" unicode="&#x14c;" horiz-adv-x="783" 
d="M261 788h-37q1 11 5 33q8 46 8 67h24v0v0h343q0 -21 -8 -67l-6 -33h-329v0zM589 673.5q77 -41.5 120.5 -117.5t43.5 -176q0 -109 -51.5 -199.5t-141.5 -143t-199 -52.5q-96 0 -171.5 43t-117.5 120t-42 176q0 109 51 198.5t139 141t195 51.5q97 0 174 -41.5zM481.5 229.5
q34.5 44.5 33.5 114.5q1 69 -32.5 120t-91.5 51q-54 0 -88.5 -44.5t-34.5 -114.5t33.5 -120.5t91.5 -50.5q54 0 88.5 44.5z" />
    <glyph glyph-name="omacron" unicode="&#x14d;" horiz-adv-x="587" 
d="M142 17.5q-60 32.5 -93.5 91t-33.5 132.5q0 81 39 146.5t106.5 103.5t148.5 38q76 0 136 -32.5t94 -90.5t34 -133q0 -80 -39 -146t-107 -104t-150 -38q-75 0 -135 32.5zM337.5 180q15.5 25 15.5 77t-18 77t-45 25q-55 0 -55 -102q0 -53 16.5 -77.5t42.5 -24.5
q28 0 43.5 25zM480 641l-6 -33h-329v0v0h-37q1 11 5 33q9 41 9 67h23v0v0h343q0 -21 -8 -67z" />
    <glyph glyph-name="Obreve" unicode="&#x14e;" horiz-adv-x="783" 
d="M287.5 795.5q-48.5 48.5 -48.5 131.5q49 7 81 7q14 0 40 -2q0 -59 55 -59q54 0 54 59q28 2 41 2q32 0 81 -7q0 -83 -49 -131.5t-127 -48.5q-79 0 -127.5 48.5zM189.5 28q-75.5 43 -117.5 120t-42 176q0 109 51 198.5t139 141t195 51.5q97 0 174 -41.5t120.5 -117.5
t43.5 -176q0 -109 -51.5 -199.5t-141.5 -143t-199 -52.5q-96 0 -171.5 43zM481.5 229.5q34.5 44.5 33.5 114.5q1 69 -32.5 120t-91.5 51q-54 0 -88.5 -44.5t-34.5 -114.5t33.5 -120.5t91.5 -50.5q54 0 88.5 44.5z" />
    <glyph glyph-name="obreve" unicode="&#x14f;" horiz-adv-x="587" 
d="M142 17.5q-60 32.5 -93.5 91t-33.5 132.5q0 81 39 146.5t106.5 103.5t148.5 38q76 0 136 -32.5t94 -90.5t34 -133q0 -80 -39 -146t-107 -104t-150 -38q-75 0 -135 32.5zM337.5 180q15.5 25 15.5 77t-18 77t-45 25q-55 0 -55 -102q0 -53 16.5 -77.5t42.5 -24.5
q28 0 43.5 25zM171 615.5q-49 48.5 -49 131.5q49 7 81 7q14 0 40 -2q0 -28 14 -43.5t41 -15.5t41 15.5t14 43.5q26 2 40 2q32 0 81 -7q0 -83 -49 -131.5t-127 -48.5t-127 48.5z" />
    <glyph glyph-name="Ohungarumlaut" unicode="&#x150;" horiz-adv-x="783" 
d="M332 756q-40 0 -70 5l71 172q51 2 160 12l22 2l-150 -190q-11 -1 -33 -1zM528 755q-32 0 -66 6l71 170q59 2 184 14l25 2l-183 -190q-20 -2 -31 -2zM189.5 28q-75.5 43 -117.5 120t-42 176q0 109 51 198.5t139 141t195 51.5q97 0 174 -41.5t120.5 -117.5t43.5 -176
q0 -109 -51.5 -199.5t-141.5 -143t-199 -52.5q-96 0 -171.5 43zM481.5 229.5q34.5 44.5 33.5 114.5q1 69 -32.5 120t-91.5 51q-54 0 -88.5 -44.5t-34.5 -114.5t33.5 -120.5t91.5 -50.5q54 0 88.5 44.5z" />
    <glyph glyph-name="ohungarumlaut" unicode="&#x151;" horiz-adv-x="587" 
d="M142 17.5q-60 32.5 -93.5 91t-33.5 132.5q0 81 39 146.5t106.5 103.5t148.5 38q76 0 136 -32.5t94 -90.5t34 -133q0 -80 -39 -146t-107 -104t-150 -38q-75 0 -135 32.5zM337.5 180q15.5 25 15.5 77t-18 77t-45 25q-55 0 -55 -102q0 -53 16.5 -77.5t42.5 -24.5
q28 0 43.5 25zM215 576q-39 0 -69 5l70 172q52 2 161 12l22 2l-150 -190q-11 -1 -34 -1zM411 575q-32 0 -65 6l70 170q62 2 184 14l26 2l-183 -190q-22 -2 -32 -2z" />
    <glyph glyph-name="OE" unicode="&#x152;" horiz-adv-x="1059" 
d="M1034 149q0 -39 -5 -91l-4 -58h-454v74q-86 -89 -220 -89q-93 0 -166 43t-114 120t-41 176q0 110 46.5 199t128 140.5t183.5 51.5q115 0 183 -68v53h451q1 -11 1 -35q0 -22 -2 -50t-3 -38q-2 -19 -4 -57h-239v-94h196q2 -18 2 -27q0 -22 -4 -68q-2 -15 -4 -45h-190v-101
h258q1 -12 1 -36zM481.5 229.5q34.5 44.5 33.5 114.5q1 69 -32.5 120t-91.5 51q-54 0 -88.5 -44.5t-34.5 -114.5t33.5 -120.5t91.5 -50.5q54 0 88.5 44.5z" />
    <glyph glyph-name="oe" unicode="&#x153;" horiz-adv-x="863" 
d="M774 160.5q43 12.5 64 29.5q2 -20 2 -30q0 -35 -13 -106q-26 -28 -84.5 -48.5t-121.5 -20.5q-101 0 -171 53q-75 -53 -173 -53q-75 0 -135 32.5t-93.5 91t-33.5 132.5q0 81 39 146.5t106.5 103.5t148.5 38q97 0 168 -52q76 52 171 52q67 0 113.5 -27.5t70 -74
t23.5 -103.5q0 -30 -6.5 -54.5t-14.5 -36.5l-264 -4l-5 -25q13 -31 42.5 -43.5t75.5 -12.5q48 0 91 12.5zM588.5 365.5q-13.5 -12.5 -21.5 -33.5q3 -12 5 -39l79 5q2 9 2 29q0 24 -9.5 37.5t-27.5 13.5q-14 0 -27.5 -12.5zM335 334q-18 25 -45 25q-55 0 -55 -102
q0 -53 16.5 -77.5t42.5 -24.5q28 0 43.5 25t15.5 77t-18 77z" />
    <glyph glyph-name="Racute" unicode="&#x154;" horiz-adv-x="750" 
d="M351 753q-44 0 -85 7l99 173q57 1 122 7t79 7l28 3l-201 -195q-28 -2 -42 -2zM356 249q-15 0 -45 2v-251q-75 -9 -145 -9q-52 0 -93 4v685q41 10 112 18.5t147 8.5q176 0 268.5 -51t92.5 -155q0 -64 -33 -115.5t-94 -79.5l201 -306l-294 -15zM301 393q19 -4 42 -4
q52 0 82 21t30 61q0 68 -97 68q-33 0 -57 -6v-140z" />
    <glyph glyph-name="racute" unicode="&#x155;" horiz-adv-x="472" 
d="M419 268q-37 22 -67 22q-34 0 -54 -28t-20 -78v0q0 -131 8 -179q-82 -11 -149 -11q-38 0 -74 3q-5 27 -5 187v102q0 58 -5.5 98t-15.5 91q34 15 76.5 25.5t49.5 12.5q32 6 64 15q28 -63 39 -115q30 55 84 85.5t120 30.5q4 -118 -51 -261zM293 573q-44 0 -85 7l98 173
q57 1 121.5 7t80.5 7l28 3l-201 -195q-28 -2 -42 -2z" />
    <glyph glyph-name="Rcommaaccent" unicode="&#x156;" horiz-adv-x="750" 
d="M356 249q-15 0 -45 2v-251q-75 -9 -145 -9q-52 0 -93 4v685q41 10 112 18.5t147 8.5q176 0 268.5 -51t92.5 -155q0 -64 -33 -115.5t-94 -79.5l201 -306l-294 -15zM301 393q19 -4 42 -4q52 0 82 21t30 61q0 68 -97 68q-33 0 -57 -6v-140zM308 -299q24 17 43 39.5t19 41.5
q0 12 -7.5 18t-23.5 13q-22 8 -34 19t-12 36q0 35 25 60t68 25q45 0 71.5 -30.5t26.5 -81.5q0 -60 -33.5 -104t-77.5 -66q-47 7 -65 30z" />
    <glyph glyph-name="rcommaaccent" unicode="&#x157;" horiz-adv-x="472" 
d="M419 268q-37 22 -67 22q-34 0 -54 -28t-20 -78v0q0 -131 8 -179q-82 -11 -149 -11q-38 0 -74 3q-5 27 -5 187v102q0 58 -5.5 98t-15.5 91q34 15 76.5 25.5t49.5 12.5q32 6 64 15q28 -63 39 -115q30 55 84 85.5t120 30.5q4 -118 -51 -261zM91 -299q24 17 43 39.5t19 41.5
q0 12 -7.5 18t-23.5 13q-22 8 -34 19t-12 36q0 35 25 60t68 25q45 0 71.5 -30.5t26.5 -81.5q0 -60 -33.5 -104t-77.5 -66q-47 7 -65 30z" />
    <glyph glyph-name="Rcaron" unicode="&#x158;" horiz-adv-x="750" 
d="M286 752l-158 176q87 7 156 16l69 -60l67 57q50 -3 99 -3l41 1l-156 -178q-65 -10 -118 -9zM356 249q-15 0 -45 2v-251q-75 -9 -145 -9q-52 0 -93 4v685q41 10 112 18.5t147 8.5q176 0 268.5 -51t92.5 -155q0 -64 -33 -115.5t-94 -79.5l201 -306l-294 -15zM301 393
q19 -4 42 -4q52 0 82 21t30 61q0 68 -97 68q-33 0 -57 -6v-140z" />
    <glyph glyph-name="rcaron" unicode="&#x159;" horiz-adv-x="472" 
d="M419 268q-37 22 -67 22q-34 0 -54 -28t-20 -78v0q0 -131 8 -179q-82 -11 -149 -11q-38 0 -74 3q-5 27 -5 187v102q0 58 -5.5 98t-15.5 91q34 15 76.5 25.5t49.5 12.5q32 6 64 15q28 -63 39 -115q30 55 84 85.5t120 30.5q4 -118 -51 -261zM461 758l41 1l-156 -178
q-65 -10 -118 -9l-158 176q87 7 156 16l68 -60l67 57q50 -3 100 -3z" />
    <glyph glyph-name="Sacute" unicode="&#x15a;" horiz-adv-x="597" 
d="M343 753q-44 0 -86 7l99 173q57 1 121.5 7t80.5 7l28 3l-202 -195q-26 -2 -41 -2zM87 19q-30 81 -30 169q0 30 2 45q34 -22 87.5 -40.5t110.5 -18.5q43 0 68 11t25 30q0 18 -21.5 30.5t-80.5 33.5q-50 18 -88.5 39t-69 63t-30.5 106q0 68 36.5 119.5t104 80t159.5 28.5
q55 0 105 -9.5t80 -21.5q-1 -37 -12 -89t-30 -99q-24 19 -68 33.5t-93 14.5q-57 0 -57 -29q0 -17 20.5 -28.5t79.5 -34.5q53 -21 91.5 -43t69 -66t30.5 -112q0 -73 -37 -129t-106.5 -86.5t-162.5 -30.5q-95 0 -183 34z" />
    <glyph glyph-name="sacute" unicode="&#x15b;" horiz-adv-x="478" 
d="M115 -8q-39 7 -65 16q-26 66 -26 146q0 26 1 40q33 -22 81.5 -39.5t97.5 -17.5q24 0 38 5t14 14t-14 16.5t-57 24.5q-38 15 -67.5 31.5t-53 48.5t-23.5 79q0 51 30 90t87.5 61t136.5 22q43 0 84 -6t64 -14q0 -69 -36 -155q-18 13 -49.5 24t-62.5 11q-22 0 -34 -5t-12 -14
q0 -10 14.5 -17.5t55.5 -23.5q61 -23 103 -57t42 -101q0 -52 -31.5 -94.5t-91 -67t-142.5 -24.5q-45 0 -84 7zM280 573q-44 0 -85 7l98 173q57 1 121.5 7t80.5 7l28 3l-201 -195q-28 -2 -42 -2z" />
    <glyph glyph-name="Scircumflex" unicode="&#x15c;" horiz-adv-x="597" 
d="M155 758h-42l156 177q68 0 118 9l158 -176q-80 -15 -156 -16l-68 60l-67 -57q-50 3 -99 3zM476.5 409q38.5 -22 69 -66t30.5 -112q0 -73 -37 -129t-106.5 -86.5t-162.5 -30.5q-95 0 -183 34q-30 81 -30 169q0 30 2 45q34 -22 87.5 -40.5t110.5 -18.5q43 0 68 11t25 30
q0 18 -21.5 30.5t-80.5 33.5q-50 18 -88.5 39t-69 63t-30.5 106q0 68 36.5 119.5t104 80t159.5 28.5q55 0 105 -9.5t80 -21.5q-1 -37 -12 -89t-30 -99q-24 19 -68 33.5t-93 14.5q-57 0 -57 -29q0 -17 20.5 -28.5t79.5 -34.5q53 -21 91.5 -43z" />
    <glyph glyph-name="scircumflex" unicode="&#x15d;" horiz-adv-x="478" 
d="M115 -8q-39 7 -65 16q-26 66 -26 146q0 26 1 40q33 -22 81.5 -39.5t97.5 -17.5q24 0 38 5t14 14t-14 16.5t-57 24.5q-38 15 -67.5 31.5t-53 48.5t-23.5 79q0 51 30 90t87.5 61t136.5 22q43 0 84 -6t64 -14q0 -69 -36 -155q-18 13 -49.5 24t-62.5 11q-22 0 -34 -5t-12 -14
q0 -10 14.5 -17.5t55.5 -23.5q61 -23 103 -57t42 -101q0 -52 -31.5 -94.5t-91 -67t-142.5 -24.5q-45 0 -84 7zM326 572l-68 60l-67 -57q-49 3 -99 3h-42l156 177q68 0 118 9l158 -176q-80 -15 -156 -16z" />
    <glyph glyph-name="Scedilla" unicode="&#x15e;" horiz-adv-x="597" 
d="M516.5 73.5q-59.5 -63.5 -165.5 -81.5l-11 -26q33 -7 52 -27.5t19 -51.5q0 -41 -32.5 -68.5t-85.5 -27.5q-37 0 -65 15q-1 11 -5 33q-8 42 -8 61q10 -6 24 -11t28 -5t23.5 5.5t9.5 15.5t-10 18.5t-29 8.5q-15 0 -30 -5l27 59q-94 1 -171 33q-30 81 -30 169q0 30 2 45
q34 -22 87.5 -40.5t110.5 -18.5q43 0 68 11t25 30q0 18 -21.5 30.5t-80.5 33.5q-50 18 -88.5 39t-69 63t-30.5 106q0 68 36.5 119.5t104 80t159.5 28.5q55 0 105 -9.5t80 -21.5q-1 -37 -12 -89t-30 -99q-24 19 -68 33.5t-93 14.5q-57 0 -57 -29q0 -17 20.5 -28.5t79.5 -34.5
q53 -21 91.5 -43t69 -66t30.5 -112q0 -94 -59.5 -157.5z" />
    <glyph glyph-name="scedilla" unicode="&#x15f;" horiz-adv-x="478" 
d="M417.5 59q-46.5 -48 -131.5 -66l-12 -27q33 -7 52 -27.5t19 -51.5q0 -41 -32.5 -68.5t-85.5 -27.5q-38 0 -64 15l-6 33q-8 42 -8 61q10 -6 24.5 -11t28.5 -5t23 5.5t9 15.5t-9.5 18.5t-28.5 8.5q-16 0 -31 -5l27 58q-44 1 -81 7.5t-61 15.5q-26 66 -26 146q0 26 1 40
q33 -22 81.5 -39.5t97.5 -17.5q24 0 38 5t14 14t-14 16.5t-57 24.5q-38 15 -67.5 31.5t-53 48.5t-23.5 79q0 51 30 90t87.5 61t136.5 22q43 0 84 -6t64 -14q0 -69 -36 -155q-18 13 -49.5 24t-62.5 11q-22 0 -34 -5t-12 -14q0 -10 14.5 -17.5t55.5 -23.5q61 -23 103 -57
t42 -101q0 -64 -46.5 -112z" />
    <glyph glyph-name="Scaron" unicode="&#x160;" horiz-adv-x="597" 
d="M278 752l-158 176q87 7 156 16l68 -60l67 57q49 -3 99 -3l42 1l-156 -178q-65 -10 -118 -9zM476.5 409q38.5 -22 69 -66t30.5 -112q0 -73 -37 -129t-106.5 -86.5t-162.5 -30.5q-95 0 -183 34q-30 81 -30 169q0 30 2 45q34 -22 87.5 -40.5t110.5 -18.5q43 0 68 11t25 30
q0 18 -21.5 30.5t-80.5 33.5q-50 18 -88.5 39t-69 63t-30.5 106q0 68 36.5 119.5t104 80t159.5 28.5q55 0 105 -9.5t80 -21.5q-1 -37 -12 -89t-30 -99q-24 19 -68 33.5t-93 14.5q-57 0 -57 -29q0 -17 20.5 -28.5t79.5 -34.5q53 -21 91.5 -43z" />
    <glyph glyph-name="scaron" unicode="&#x161;" horiz-adv-x="478" 
d="M115 -8q-39 7 -65 16q-26 66 -26 146q0 26 1 40q33 -22 81.5 -39.5t97.5 -17.5q24 0 38 5t14 14t-14 16.5t-57 24.5q-38 15 -67.5 31.5t-53 48.5t-23.5 79q0 51 30 90t87.5 61t136.5 22q43 0 84 -6t64 -14q0 -69 -36 -155q-18 13 -49.5 24t-62.5 11q-22 0 -34 -5t-12 -14
q0 -10 14.5 -17.5t55.5 -23.5q61 -23 103 -57t42 -101q0 -52 -31.5 -94.5t-91 -67t-142.5 -24.5q-45 0 -84 7zM448 758l41 1l-156 -178q-65 -10 -118 -9l-158 176q87 7 156 16l68 -60l67 57q50 -3 100 -3z" />
    <glyph glyph-name="uni0162" unicode="&#x162;" horiz-adv-x="677" 
d="M672 661q0 -32 -6 -98q-4 -42 -5 -63h-204v-500q-33 -5 -66 -6l-12 -28q34 -7 52.5 -27.5t18.5 -51.5q0 -41 -32.5 -68.5t-84.5 -27.5q-39 0 -65 15l-6 33q-8 42 -8 61q10 -6 24.5 -11t28.5 -5t23 5.5t9 15.5t-9.5 18.5t-28.5 8.5q-16 0 -31 -5l30 64q-54 2 -81 4v505
h-214q1 24 5 67q7 58 7 98q0 11 -2 35h655q2 -26 2 -39z" />
    <glyph glyph-name="uni0163" unicode="&#x163;" horiz-adv-x="483" 
d="M392.5 2.5q-36.5 -14.5 -80.5 -17.5l-9 -19q33 -7 52 -27.5t19 -51.5q0 -41 -32.5 -68.5t-85.5 -27.5q-38 0 -64 15l-6 33q-8 42 -8 61q10 -6 24.5 -11t28.5 -5t23 5.5t9 15.5t-9.5 18.5t-28.5 8.5q-16 0 -31 -5l30 65q-64 15 -105.5 62.5t-41.5 136.5v143h-70l9 54
q14 70 14 106l69 15l19 115q41 18 119 35l60 15v-180h172q0 -41 -13 -106l-9 -54h-150v-83q0 -44 22.5 -64.5t48.5 -20.5q46 0 101 30q2 -20 2 -30q0 -46 -21 -132q-21 -17 -57.5 -31.5z" />
    <glyph glyph-name="Tcaron" unicode="&#x164;" horiz-adv-x="677" 
d="M285 752l-157 176q84 6 155 16l69 -60l67 57q49 -3 99 -3l41 1l-156 -178q-65 -10 -118 -9zM672 661q0 -32 -6 -98q-4 -42 -5 -63h-204v-500q-75 -9 -145 -9q-52 0 -93 4v505h-214q1 24 5 67q7 58 7 98q0 11 -2 35h655q2 -26 2 -39z" />
    <glyph glyph-name="tcaron" unicode="&#x165;" horiz-adv-x="483" 
d="M340 546l8 208q48 -3 95 -3h40l-39 -196q-58 -10 -104 -9zM469 196q2 -20 2 -30q0 -46 -21 -132q-25 -19 -67.5 -34t-92.5 -15q-85 0 -149 47t-64 159v143h-70l9 54q14 70 14 106l69 15l19 115q41 18 119 35l60 15v-180h172q0 -41 -13 -106l-9 -54h-150v-83
q0 -44 22.5 -64.5t48.5 -20.5q46 0 101 30z" />
    <glyph glyph-name="Tbar" unicode="&#x166;" horiz-adv-x="677" 
d="M672 661q0 -32 -6 -98q-4 -42 -5 -63h-204v-91h114q0 -25 -10 -79l-7 -41h-97v-289q-75 -9 -145 -9q-52 0 -93 4v294h-111q4 25 7 41q1 8 5 33t4 46h95v91h-214q1 24 5 67q7 58 7 98q0 11 -2 35h655q2 -26 2 -39z" />
    <glyph glyph-name="tbar" unicode="&#x167;" horiz-adv-x="483" 
d="M471 166q0 -46 -21 -132q-25 -19 -67.5 -34t-92.5 -15q-85 0 -149 47t-64 159v24h-82l6 34q8 44 8 66h68v19h-70l9 54q14 70 14 106l69 15l19 115q41 18 119 35l60 15v-180h172q0 -41 -13 -106l-9 -54h-150v-19h147q0 -26 -9 -66q-4 -25 -5 -34h-127q8 -25 27 -37t38 -12
q46 0 101 30q2 -20 2 -30z" />
    <glyph glyph-name="Utilde" unicode="&#x168;" horiz-adv-x="773" 
d="M326.5 794q-11.5 -15 -15.5 -33l-96 26q4 59 34 106.5t83 47.5q24 0 43 -8t42 -23q27 -18 40 -18q14 0 25.5 15t16.5 33l96 -26q-5 -66 -37.5 -110t-80.5 -44q-24 0 -43 8t-42 23q-27 18 -39 18q-15 0 -26.5 -15zM724 705v-370q0 -165 -87 -257.5t-243 -92.5
q-105 0 -181.5 41.5t-117 120.5t-40.5 188v365q160 0 238 5v-370q0 -71 28 -110.5t78 -39.5t77.5 39.5t27.5 110.5v179v0v0v186q147 0 220 5z" />
    <glyph glyph-name="utilde" unicode="&#x169;" horiz-adv-x="647" 
d="M433 -15q-34 41 -53 110q-21 -52 -67 -81t-105 -29q-79 0 -123.5 53.5t-44.5 152.5v277q30 13 63.5 23t82.5 21q38 8 74 18v-310q0 -23 11.5 -36t32.5 -13q30 0 48.5 24t18.5 64v71q0 115 -8 179q80 11 148 11q37 0 75 -3q5 -40 5 -187v-114q0 -127 27 -185
q-80 -40 -185 -46zM129 599q4 58 34.5 106t83.5 48q24 0 43 -8t42 -23q27 -18 39 -18q14 0 26 15t17 33l96 -26q-5 -67 -37.5 -111t-80.5 -44q-24 0 -42.5 8.5t-42.5 23.5q-27 18 -39 18q-14 0 -26 -15t-17 -33z" />
    <glyph glyph-name="Umacron" unicode="&#x16a;" horiz-adv-x="773" 
d="M246 788h-37q1 11 3 19t3 14q8 46 8 67h23v0v0h343q0 -21 -8 -67l-6 -33h-329v0zM724 705v-370q0 -165 -87 -257.5t-243 -92.5q-105 0 -181.5 41.5t-117 120.5t-40.5 188v365q160 0 238 5v-370q0 -71 28 -110.5t78 -39.5t77.5 39.5t27.5 110.5v179v0v0v186q147 0 220 5z
" />
    <glyph glyph-name="umacron" unicode="&#x16b;" horiz-adv-x="647" 
d="M433 -15q-34 41 -53 110q-21 -52 -67 -81t-105 -29q-79 0 -123.5 53.5t-44.5 152.5v277q30 13 63.5 23t82.5 21q38 8 74 18v-310q0 -23 11.5 -36t32.5 -13q30 0 48.5 24t18.5 64v71q0 115 -8 179q80 11 148 11q37 0 75 -3q5 -40 5 -187v-114q0 -127 27 -185
q-80 -40 -185 -46zM502 641l-6 -33h-329v0v0h-37q1 11 5 33q9 41 9 67h23v0v0h343q0 -21 -8 -67z" />
    <glyph glyph-name="Ubreve" unicode="&#x16c;" horiz-adv-x="773" 
d="M273 795.5q-49 48.5 -49 131.5q49 7 81 7q13 0 41 -2q0 -59 54 -59q55 0 55 59q26 2 40 2q32 0 81 -7q0 -83 -48.5 -131.5t-127.5 -48.5q-78 0 -127 48.5zM724 705v-370q0 -165 -87 -257.5t-243 -92.5q-105 0 -181.5 41.5t-117 120.5t-40.5 188v365q160 0 238 5v-370
q0 -71 28 -110.5t78 -39.5t77.5 39.5t27.5 110.5v179v0v0v186q147 0 220 5z" />
    <glyph glyph-name="ubreve" unicode="&#x16d;" horiz-adv-x="647" 
d="M433 -15q-34 41 -53 110q-21 -52 -67 -81t-105 -29q-79 0 -123.5 53.5t-44.5 152.5v277q30 13 63.5 23t82.5 21q38 8 74 18v-310q0 -23 11.5 -36t32.5 -13q30 0 48.5 24t18.5 64v71q0 115 -8 179q80 11 148 11q37 0 75 -3q5 -40 5 -187v-114q0 -127 27 -185
q-80 -40 -185 -46zM193 615.5q-49 48.5 -49 131.5q49 7 81 7q14 0 40 -2q0 -28 14 -43.5t41 -15.5t41 15.5t14 43.5q26 2 40 2q32 0 81 -7q0 -83 -49 -131.5t-127 -48.5t-127 48.5z" />
    <glyph glyph-name="Uring" unicode="&#x16e;" horiz-adv-x="773" 
d="M311.5 769q-36.5 34 -36.5 81q0 48 36.5 81.5t88.5 33.5t88.5 -33.5t36.5 -81.5q0 -47 -36.5 -81t-88.5 -34t-88.5 34zM377 873q-9 -10 -9 -23q0 -12 9 -22t23 -10t23 10t9 22q0 13 -9 23t-23 10t-23 -10zM724 705v-370q0 -165 -87 -257.5t-243 -92.5q-105 0 -181.5 41.5
t-117 120.5t-40.5 188v365q160 0 238 5v-370q0 -71 28 -110.5t78 -39.5t77.5 39.5t27.5 110.5v179v0v0v186q147 0 220 5z" />
    <glyph glyph-name="uring" unicode="&#x16f;" horiz-adv-x="647" 
d="M433 -15q-34 41 -53 110q-21 -52 -67 -81t-105 -29q-79 0 -123.5 53.5t-44.5 152.5v277q30 13 63.5 23t82.5 21q38 8 74 18v-310q0 -23 11.5 -36t32.5 -13q30 0 48.5 24t18.5 64v71q0 115 -8 179q80 11 148 11q37 0 75 -3q5 -40 5 -187v-114q0 -127 27 -185
q-80 -40 -185 -46zM231.5 588q-36.5 34 -36.5 81q0 48 36.5 81.5t88.5 33.5t88.5 -33.5t36.5 -81.5q0 -47 -36.5 -81t-88.5 -34t-88.5 34zM343 647q9 10 9 22q0 13 -9 23t-23 10t-23 -10t-9 -23q0 -12 9 -22t23 -10t23 10z" />
    <glyph glyph-name="Uhungarumlaut" unicode="&#x170;" horiz-adv-x="773" 
d="M317 756q-40 0 -69 5l70 172q55 2 160 12l23 2l-150 -190q-11 -1 -34 -1zM513 755q-32 0 -65 6l70 170q59 2 184 14l26 2l-183 -190q-22 -2 -32 -2zM504 700q147 0 220 5v-370q0 -165 -87 -257.5t-243 -92.5q-105 0 -181.5 41.5t-117 120.5t-40.5 188v365q160 0 238 5
v-370q0 -71 28 -110.5t78 -39.5t77.5 39.5t27.5 110.5v179v0v0v186z" />
    <glyph glyph-name="uhungarumlaut" unicode="&#x171;" horiz-adv-x="647" 
d="M433 -15q-34 41 -53 110q-21 -52 -67 -81t-105 -29q-79 0 -123.5 53.5t-44.5 152.5v277q30 13 63.5 23t82.5 21q38 8 74 18v-310q0 -23 11.5 -36t32.5 -13q30 0 48.5 24t18.5 64v71q0 115 -8 179q80 11 148 11q37 0 75 -3q5 -40 5 -187v-114q0 -127 27 -185
q-80 -40 -185 -46zM236 576q-39 0 -69 5l70 172q52 2 161 12l22 2l-150 -190q-11 -1 -34 -1zM432 575q-32 0 -65 6l70 170q62 2 184 14l26 2l-183 -190q-22 -2 -32 -2z" />
    <glyph glyph-name="Uogonek" unicode="&#x172;" horiz-adv-x="773" 
d="M724 705v-370q0 -120 -46 -202.5t-133 -119.5q-20 -13 -33 -33t-13 -42q0 -20 10.5 -30.5t28.5 -10.5q16 0 31.5 7t25.5 16v-16q0 -33 -12 -86q-16 -12 -44.5 -22.5t-58.5 -10.5q-50 0 -82 30t-32 78q0 51 38 92h-10q-105 0 -181.5 41.5t-117 120.5t-40.5 188v365
q160 0 238 5v-370q0 -71 28 -110.5t78 -39.5t77.5 39.5t27.5 110.5v179v0v0v186q147 0 220 5z" />
    <glyph glyph-name="uogonek" unicode="&#x173;" horiz-adv-x="647" 
d="M571.5 -96q16.5 7 24.5 16l1 -16q0 -28 -13 -86q-16 -12 -44.5 -22.5t-58.5 -10.5q-49 0 -81.5 30t-32.5 78q0 62 55 107q-28 43 -42 95q-21 -52 -67 -81t-105 -29q-79 0 -123.5 53.5t-44.5 152.5v277q30 13 63.5 23t82.5 21q38 8 74 18v-310q0 -23 11.5 -36t32.5 -13
q30 0 48.5 24t18.5 64v71q0 115 -8 179q80 11 148 11q37 0 75 -3q5 -40 5 -187v-114q0 -127 27 -185q-21 -11 -46 -19q-72 -33 -72 -77q0 -18 11 -28t29 -10q15 0 31.5 7z" />
    <glyph glyph-name="Wcircumflex" unicode="&#x174;" horiz-adv-x="1134" 
d="M402 758h-41l155 177q68 0 118 9l158 -176q-79 -15 -155 -16l-69 60l-67 -57q-49 3 -99 3zM1127 700l-226 -700h-242l-95 375l-119 -375h-223l-205 700q153 0 262 14l75 -462l133 448h204l102 -445l99 445h235z" />
    <glyph glyph-name="wcircumflex" unicode="&#x175;" horiz-adv-x="931" 
d="M859 513l64 1l-113 -344q-20 -59 -31.5 -101t-13.5 -57q-93 -17 -203 -17q-12 18 -31 64.5t-39 110.5l-30 95l-32 -95q-17 -50 -31 -98t-17 -68q-66 -10 -131 -10q-34 0 -65 3q-25 47 -69 173l-114 325q125 8 238 25l54 -293l78 255q26 11 52 17t76 16l66 14l85 -302
l55 290q102 -4 152 -4zM518 572l-68 60l-67 -57q-49 3 -99 3h-42l156 177q68 0 118 9l158 -176q-80 -15 -156 -16z" />
    <glyph glyph-name="Ycircumflex" unicode="&#x176;" horiz-adv-x="734" 
d="M191 758h-41l155 177q69 0 119 9l157 -176q-79 -15 -155 -16l-69 60l-67 -57q-49 3 -99 3zM486 184v-184q-75 -9 -145 -9q-52 0 -93 4v245l-254 460q79 0 141 3t127 11l114 -293l105 279h257l-252 -460v-56z" />
    <glyph glyph-name="ycircumflex" unicode="&#x177;" horiz-adv-x="611" 
d="M559 513l64 1l-153 -382q-36 -88 -65.5 -187t-40.5 -160q-163 17 -221 58q34 98 115 197q-56 -2 -84 -1l-182 456q126 8 239 25l90 -323l85 320q102 -4 153 -4zM377 572l-68 60l-67 -57q-49 3 -99 3h-42l156 177q68 0 118 9l158 -176q-80 -15 -156 -16z" />
    <glyph glyph-name="Ydieresis" unicode="&#x178;" horiz-adv-x="734" 
d="M187 779.5q-25 27.5 -25 67.5t26.5 66.5t65.5 26.5q38 0 64 -26.5t26 -66.5q0 -39 -28 -67t-66 -28t-63 27.5zM418 779.5q-25 27.5 -25 67.5t26.5 66.5t65.5 26.5q38 0 63.5 -26.5t25.5 -66.5t-27 -67.5t-66 -27.5q-38 0 -63 27.5zM486 184v-184q-75 -9 -145 -9
q-52 0 -93 4v245l-254 460q79 0 141 3t127 11l114 -293l105 279h257l-252 -460v-56z" />
    <glyph glyph-name="Zacute" unicode="&#x179;" horiz-adv-x="656" 
d="M357 753q-44 0 -86 7l99 173q57 1 121.5 7t80.5 7l28 3l-202 -195q-26 -2 -41 -2zM641 153q0 -31 -6 -93l-4 -60h-561q-41 73 -50 160l303 360h-272q1 20 5 60q6 60 6 88q0 12 -2 32h535q7 -62 32 -144l-301 -366h313q2 -24 2 -37z" />
    <glyph glyph-name="zacute" unicode="&#x17a;" horiz-adv-x="556" 
d="M531 54q-2 -9 -4.5 -22.5t-4.5 -31.5h-463q-39 69 -46 150l226 204h-197q2 18 4.5 31.5t4.5 22.5q13 65 13 106h436q7 -58 28 -126l-239 -228h255q0 -41 -13 -106zM307 573q-44 0 -85 7l98 173q57 1 121.5 7t80.5 7l28 3l-201 -195q-28 -2 -42 -2z" />
    <glyph glyph-name="Zdotaccent" unicode="&#x17b;" horiz-adv-x="656" 
d="M260.5 782q-34.5 30 -34.5 74q0 43 34.5 72t84.5 29q51 0 86 -29t35 -72q0 -44 -35 -74t-86 -30q-50 0 -84.5 30zM641 153q0 -31 -6 -93l-4 -60h-561q-41 73 -50 160l303 360h-272q1 20 5 60q6 60 6 88q0 12 -2 32h535q7 -62 32 -144l-301 -366h313q2 -24 2 -37z" />
    <glyph glyph-name="zdotaccent" unicode="&#x17c;" horiz-adv-x="556" 
d="M531 54q-2 -9 -4.5 -22.5t-4.5 -31.5h-463q-39 69 -46 150l226 204h-197q2 18 4.5 31.5t4.5 22.5q13 65 13 106h436q7 -58 28 -126l-239 -228h255q0 -41 -13 -106zM210.5 602q-34.5 30 -34.5 74q0 43 34.5 72t85.5 29t85.5 -29t34.5 -72q0 -44 -35 -74t-86 -30
q-50 0 -84.5 30z" />
    <glyph glyph-name="Zcaron" unicode="&#x17d;" horiz-adv-x="656" 
d="M292 752l-158 176q87 7 156 16l68 -60l67 57q49 -3 99 -3l42 1l-156 -178q-65 -10 -118 -9zM641 153q0 -31 -6 -93l-4 -60h-561q-41 73 -50 160l303 360h-272q1 20 5 60q6 60 6 88q0 12 -2 32h535q7 -62 32 -144l-301 -366h313q2 -24 2 -37z" />
    <glyph glyph-name="zcaron" unicode="&#x17e;" horiz-adv-x="556" 
d="M531 54q-2 -9 -4.5 -22.5t-4.5 -31.5h-463q-39 69 -46 150l226 204h-197q2 18 4.5 31.5t4.5 22.5q13 65 13 106h436q7 -58 28 -126l-239 -228h255q0 -41 -13 -106zM475 758l41 1l-156 -178q-65 -10 -118 -9l-158 176q87 7 156 16l68 -60l67 57q50 -3 100 -3z" />
    <glyph glyph-name="longs" unicode="&#x17f;" horiz-adv-x="416" 
d="M398.5 760.5q31.5 -4.5 50.5 -10.5q-3 -102 -23 -173q-10 7 -27 12.5t-36 5.5q-36 0 -53.5 -17.5t-17.5 -48.5v-345q0 -131 8 -179q-82 -11 -149 -11q-38 0 -74 3q-5 40 -5 187v150h-70q2 18 4.5 31.5t4.5 22.5q1 7 7 41.5t6 64.5l48 11v24q0 109 69 172.5t192 63.5
q34 0 65.5 -4.5z" />
    <glyph glyph-name="uni018F" unicode="&#x18f;" horiz-adv-x="702" 
d="M504.5 672.5q78.5 -42.5 123 -122t44.5 -187.5q0 -109 -50 -195t-135.5 -134.5t-188.5 -48.5q-86 0 -146.5 35t-91 96.5t-30.5 139.5q0 39 7.5 73t16.5 51l397 6q-12 73 -62 108.5t-131 35.5q-64 0 -121.5 -19.5t-87.5 -44.5q-2 24 -2 35q0 40 15 126q35 35 109 61.5
t155 26.5q100 0 178.5 -42.5zM406 195q33 39 44 99l-195 -9q-4 -28 -4 -42q0 -41 20 -64t57 -23q45 0 78 39z" />
    <glyph glyph-name="florin" unicode="&#x192;" horiz-adv-x="582" 
d="M383 529l-4 -35h122q0 -41 -13 -106l-9 -54h-123l-39 -278q-14 -101 -48.5 -160.5t-90 -85t-137.5 -25.5q-35 52 -35 101q0 17 4 32q44 22 61.5 49t25.5 86l39 281h-88q2 18 4.5 31.5t4.5 22.5q1 6 7 40.5t6 65.5l91 11l3 24q15 108 88.5 172t183.5 64q43 0 79.5 -8.5
t55.5 -18.5q0 -81 -40 -176q-12 10 -33.5 17.5t-44.5 7.5q-61 0 -70 -58z" />
    <glyph glyph-name="uni01C4" unicode="&#x1c4;" horiz-adv-x="1448" 
d="M1084 752l-158 176q87 7 156 16l69 -60l66 57q51 -3 100 -3l41 1l-156 -178q-65 -10 -118 -9zM648 626q115 -85 115 -243q0 -114 -56.5 -204.5t-159.5 -141.5t-236 -51q-61 0 -238 13v702q180 10 252 10q208 0 323 -85zM1433 153q0 -41 -5 -93q-2 -20 -4 -60h-561
q-43 74 -50 160l303 360h-272q1 20 5 60q1 12 3 39.5t2 48.5q0 22 -1 32h534q6 -58 33 -144l-302 -366h314q1 -12 1 -37zM477 230.5q40 44.5 40 124.5q0 84 -45.5 120t-142.5 36h-18v-321q26 -4 47 -4q79 0 119 44.5z" />
    <glyph glyph-name="uni01C5" unicode="&#x1c5;" horiz-adv-x="1349" 
d="M648 626q115 -85 115 -243q0 -114 -56.5 -204.5t-159.5 -141.5t-236 -51q-61 0 -238 13v702q180 10 252 10q208 0 323 -85zM477 230.5q40 44.5 40 124.5q0 84 -45.5 120t-142.5 36h-18v-321q26 -4 47 -4q79 0 119 44.5zM1324 54q-2 -9 -4.5 -22.5t-4.5 -31.5h-463
q-39 69 -46 150l226 204h-197q2 18 4.5 31.5t4.5 22.5q13 65 13 106h436q7 -58 28 -126l-239 -228h255q0 -41 -13 -106zM1267 758l41 1l-156 -178q-65 -10 -118 -9l-158 176q87 7 156 16l68 -60l67 57q50 -3 100 -3z" />
    <glyph glyph-name="uni01C6" unicode="&#x1c6;" horiz-adv-x="1187" 
d="M416 -15q-26 32 -44 81q-20 -37 -58.5 -59t-92.5 -22q-60 0 -106.5 31.5t-71.5 86.5t-25 125q0 87 39.5 154.5t115 106t180.5 40.5v179q29 13 62 22.5t84 21.5q39 8 74 18v-276v-278v0q0 -125 27 -185q-80 -40 -184 -46zM336.5 178q16.5 23 16.5 58v132h-9
q-101 0 -101 -120q0 -42 14 -67.5t39 -25.5q24 0 40.5 23zM1161 54q-2 -9 -4.5 -22.5t-4.5 -31.5h-463q-39 69 -46 150l226 204h-197q2 18 4.5 31.5t4.5 22.5q13 65 13 106h436q7 -58 28 -126l-239 -228h255q0 -41 -13 -106zM1105 758l41 1l-156 -178q-65 -10 -118 -9
l-158 176q87 7 156 16l68 -60l67 57q50 -3 100 -3z" />
    <glyph glyph-name="uni01CD" unicode="&#x1cd;" horiz-adv-x="773" 
d="M328 752l-158 176q87 7 156 16l69 -60l66 57q51 -3 100 -3l41 1l-156 -178q-65 -10 -118 -9zM465 140h-194l-44 -146l-214 6l264 700q123 0 215 11l269 -711l-256 -15zM433 265l-57 222l-67 -222h124z" />
    <glyph glyph-name="uni01CE" unicode="&#x1ce;" horiz-adv-x="563" 
d="M361 -15q-29 35 -48 94q-25 -47 -65 -70.5t-87 -23.5q-61 0 -101.5 37t-40.5 103q0 83 67 130t176 47q23 0 45 -2q-9 68 -91 68q-35 0 -74.5 -12t-66.5 -26q-15 52 -18 132q36 26 99.5 46.5t135.5 20.5q109 0 167.5 -54.5t58.5 -173.5v-85q0 -125 27 -185
q-80 -40 -184 -46zM303 215q-16 2 -28 2q-34 0 -52 -10.5t-18 -30.5q0 -15 10 -24.5t28 -9.5q47 0 60 73zM463 758l41 1l-156 -178q-65 -10 -118 -9l-158 176q87 7 156 16l68 -60l67 57q50 -3 100 -3z" />
    <glyph glyph-name="uni01CF" unicode="&#x1cf;" horiz-adv-x="384" 
d="M138 752l-157 176q87 7 155 16l69 -60l67 57q50 -3 99 -3l41 1l-155 -178q-67 -10 -119 -9zM311 514v-330v-184q-75 -9 -145 -9q-52 0 -93 4v189v330v186q160 0 238 5v-191z" />
    <glyph glyph-name="uni01D0" unicode="&#x1d0;" horiz-adv-x="328" 
d="M110 572l-158 176q87 7 156 16l68 -60l67 57q50 -3 100 -3l41 1l-156 -178q-65 -10 -118 -9zM282 5q-80 -11 -149 -11q-36 0 -74 3q-5 40 -5 187v284q30 13 63.5 23t82.5 21q38 8 74 18v-346q0 -115 8 -179z" />
    <glyph glyph-name="uni01D1" unicode="&#x1d1;" horiz-adv-x="783" 
d="M361 752l-158 176q87 7 156 16l68 -60l67 57q50 -3 99 -3l42 1l-156 -178q-65 -10 -118 -9zM589 673.5q77 -41.5 120.5 -117.5t43.5 -176q0 -109 -51.5 -199.5t-141.5 -143t-199 -52.5q-96 0 -171.5 43t-117.5 120t-42 176q0 109 51 198.5t139 141t195 51.5
q97 0 174 -41.5zM481.5 229.5q34.5 44.5 33.5 114.5q1 69 -32.5 120t-91.5 51q-54 0 -88.5 -44.5t-34.5 -114.5t33.5 -120.5t91.5 -50.5q54 0 88.5 44.5z" />
    <glyph glyph-name="uni01D2" unicode="&#x1d2;" horiz-adv-x="587" 
d="M142 17.5q-60 32.5 -93.5 91t-33.5 132.5q0 81 39 146.5t106.5 103.5t148.5 38q76 0 136 -32.5t94 -90.5t34 -133q0 -80 -39 -146t-107 -104t-150 -38q-75 0 -135 32.5zM337.5 180q15.5 25 15.5 77t-18 77t-45 25q-55 0 -55 -102q0 -53 16.5 -77.5t42.5 -24.5
q28 0 43.5 25zM477 758l41 1l-156 -178q-65 -10 -118 -9l-158 176q87 7 156 16l68 -60l67 57q50 -3 100 -3z" />
    <glyph glyph-name="uni01D3" unicode="&#x1d3;" horiz-adv-x="773" 
d="M346 752l-158 176q87 7 156 16l68 -60l67 57q49 -3 100 -3l41 1l-156 -178q-65 -10 -118 -9zM724 705v-370q0 -165 -87 -257.5t-243 -92.5q-105 0 -181.5 41.5t-117 120.5t-40.5 188v365q160 0 238 5v-370q0 -71 28 -110.5t78 -39.5t77.5 39.5t27.5 110.5v179v0v0v186
q147 0 220 5z" />
    <glyph glyph-name="uni01D4" unicode="&#x1d4;" horiz-adv-x="647" 
d="M433 -15q-34 41 -53 110q-21 -52 -67 -81t-105 -29q-79 0 -123.5 53.5t-44.5 152.5v277q30 13 63.5 23t82.5 21q38 8 74 18v-310q0 -23 11.5 -36t32.5 -13q30 0 48.5 24t18.5 64v71q0 115 -8 179q80 11 148 11q37 0 75 -3q5 -40 5 -187v-114q0 -127 27 -185
q-80 -40 -185 -46zM499 758l41 1l-156 -178q-65 -10 -118 -9l-158 176q87 7 156 16l68 -60l67 57q50 -3 100 -3z" />
    <glyph glyph-name="uni01D5" unicode="&#x1d5;" horiz-adv-x="773" 
d="M248 1018h-37l6 33q8 46 8 67h23v0v0h343q0 -21 -8 -67l-6 -33h-329v0zM219 779.5q-25 27.5 -25 67.5t26.5 66.5t65.5 26.5q38 0 64 -26.5t26 -66.5q0 -39 -28 -67t-66 -28t-63 27.5zM580.5 913.5q25.5 -26.5 25.5 -66.5t-27 -67.5t-66 -27.5q-38 0 -63 27.5t-25 67.5
t26.5 66.5t65.5 26.5q38 0 63.5 -26.5zM724 705v-370q0 -165 -87 -257.5t-243 -92.5q-105 0 -181.5 41.5t-117 120.5t-40.5 188v365q160 0 238 5v-370q0 -71 28 -110.5t78 -39.5t77.5 39.5t27.5 110.5v179v0v0v186q147 0 220 5z" />
    <glyph glyph-name="uni01D6" unicode="&#x1d6;" horiz-adv-x="647" 
d="M433 -15q-34 41 -53 110q-21 -52 -67 -81t-105 -29q-79 0 -123.5 53.5t-44.5 152.5v277q30 13 63.5 23t82.5 21q38 8 74 18v-310q0 -23 11.5 -36t32.5 -13q30 0 48.5 24t18.5 64v71q0 115 -8 179q80 11 148 11q37 0 75 -3q5 -40 5 -187v-114q0 -127 27 -185
q-80 -40 -185 -46zM139 599.5q-25 27.5 -25 67.5t26.5 66.5t65.5 26.5q38 0 64 -26.5t26 -66.5q0 -39 -28 -67t-66 -28t-63 27.5zM370 599.5q-25 27.5 -25 67.5t26.5 66.5t65.5 26.5q38 0 63.5 -26.5t25.5 -66.5t-27 -67.5t-66 -27.5q-38 0 -63 27.5zM504 856l-6 -33h-329v0
v0h-37q1 11 5 33q9 41 9 67h23v0v0h343q0 -21 -8 -67z" />
    <glyph glyph-name="uni01D7" unicode="&#x1d7;" horiz-adv-x="773" 
d="M413 983q-44 0 -85 7l98 173q58 1 123.5 7t78.5 7l28 3l-201 -195q-28 -2 -42 -2zM219 779.5q-25 27.5 -25 67.5t26.5 66.5t65.5 26.5q38 0 64 -26.5t26 -66.5q0 -39 -28 -67t-66 -28t-63 27.5zM451.5 913.5q26.5 26.5 65.5 26.5q38 0 63.5 -26.5t25.5 -66.5t-27 -67.5
t-66 -27.5q-38 0 -63 27.5t-25 67.5t26.5 66.5zM724 705v-370q0 -165 -87 -257.5t-243 -92.5q-105 0 -181.5 41.5t-117 120.5t-40.5 188v365q160 0 238 5v-370q0 -71 28 -110.5t78 -39.5t77.5 39.5t27.5 110.5v179v0v0v186q147 0 220 5z" />
    <glyph glyph-name="uni01D8" unicode="&#x1d8;" horiz-adv-x="647" 
d="M433 -15q-34 41 -53 110q-21 -52 -67 -81t-105 -29q-79 0 -123.5 53.5t-44.5 152.5v277q30 13 63.5 23t82.5 21q38 8 74 18v-310q0 -23 11.5 -36t32.5 -13q30 0 48.5 24t18.5 64v71q0 115 -8 179q80 11 148 11q37 0 75 -3q5 -40 5 -187v-114q0 -127 27 -185
q-80 -40 -185 -46zM139 599.5q-25 27.5 -25 67.5t26.5 66.5t65.5 26.5q38 0 64 -26.5t26 -66.5q0 -39 -28 -67t-66 -28t-63 27.5zM370 599.5q-25 27.5 -25 67.5t26.5 66.5t65.5 26.5q38 0 63.5 -26.5t25.5 -66.5t-27 -67.5t-66 -27.5q-38 0 -63 27.5zM333 789q-44 0 -85 7
l98 173q57 1 121.5 7t80.5 7l28 3l-201 -195q-28 -2 -42 -2z" />
    <glyph glyph-name="uni01D9" unicode="&#x1d9;" horiz-adv-x="773" 
d="M348 982l-158 176q87 7 156 16l68 -60l67 57q50 -3 100 -3l41 1l-156 -178q-65 -10 -118 -9zM350 913.5q26 -26.5 26 -66.5q0 -39 -28 -67t-66 -28t-63 27.5t-25 67.5t26.5 66.5t65.5 26.5q38 0 64 -26.5zM451.5 913.5q26.5 26.5 65.5 26.5q38 0 63.5 -26.5t25.5 -66.5
t-27 -67.5t-66 -27.5q-38 0 -63 27.5t-25 67.5t26.5 66.5zM724 705v-370q0 -165 -87 -257.5t-243 -92.5q-105 0 -181.5 41.5t-117 120.5t-40.5 188v365q160 0 238 5v-370q0 -71 28 -110.5t78 -39.5t77.5 39.5t27.5 110.5v179v0v0v186q147 0 220 5z" />
    <glyph glyph-name="uni01DA" unicode="&#x1da;" horiz-adv-x="647" 
d="M433 -15q-34 41 -53 110q-21 -52 -67 -81t-105 -29q-79 0 -123.5 53.5t-44.5 152.5v277q30 13 63.5 23t82.5 21q38 8 74 18v-310q0 -23 11.5 -36t32.5 -13q30 0 48.5 24t18.5 64v71q0 115 -8 179q80 11 148 11q37 0 75 -3q5 -40 5 -187v-114q0 -127 27 -185
q-80 -40 -185 -46zM139 599.5q-25 27.5 -25 67.5t26.5 66.5t65.5 26.5q38 0 64 -26.5t26 -66.5q0 -39 -28 -67t-66 -28t-63 27.5zM370 599.5q-25 27.5 -25 67.5t26.5 66.5t65.5 26.5q38 0 63.5 -26.5t25.5 -66.5t-27 -67.5t-66 -27.5q-38 0 -63 27.5zM501 974l41 1
l-156 -178q-65 -10 -118 -9l-158 176q87 7 156 16l68 -60l67 57q50 -3 100 -3z" />
    <glyph glyph-name="uni01DB" unicode="&#x1db;" horiz-adv-x="773" 
d="M378 983q-14 0 -42 2l-201 195l28 -3q16 -1 80.5 -7t121.5 -7l98 -173q-41 -7 -85 -7zM220.5 913.5q26.5 26.5 65.5 26.5q38 0 64 -26.5t26 -66.5q0 -39 -28 -67t-66 -28t-63 27.5t-25 67.5t26.5 66.5zM451.5 913.5q26.5 26.5 65.5 26.5q38 0 63.5 -26.5t25.5 -66.5
t-27 -67.5t-66 -27.5q-38 0 -63 27.5t-25 67.5t26.5 66.5zM724 705v-370q0 -165 -87 -257.5t-243 -92.5q-105 0 -181.5 41.5t-117 120.5t-40.5 188v365q160 0 238 5v-370q0 -71 28 -110.5t78 -39.5t77.5 39.5t27.5 110.5v179v0v0v186q147 0 220 5z" />
    <glyph glyph-name="uni01DC" unicode="&#x1dc;" horiz-adv-x="647" 
d="M433 -15q-34 41 -53 110q-21 -52 -67 -81t-105 -29q-79 0 -123.5 53.5t-44.5 152.5v277q30 13 63.5 23t82.5 21q38 8 74 18v-310q0 -23 11.5 -36t32.5 -13q30 0 48.5 24t18.5 64v71q0 115 -8 179q80 11 148 11q37 0 75 -3q5 -40 5 -187v-114q0 -127 27 -185
q-80 -40 -185 -46zM139 599.5q-25 27.5 -25 67.5t26.5 66.5t65.5 26.5q38 0 64 -26.5t26 -66.5q0 -39 -28 -67t-66 -28t-63 27.5zM370 599.5q-25 27.5 -25 67.5t26.5 66.5t65.5 26.5q38 0 63.5 -26.5t25.5 -66.5t-27 -67.5t-66 -27.5q-38 0 -63 27.5zM55 985l27 -3
q16 -1 80.5 -7t121.5 -7l99 -173q-41 -7 -86 -7q-15 0 -41 2z" />
    <glyph glyph-name="Gcaron" unicode="&#x1e6;" horiz-adv-x="751" 
d="M373 752l-158 176q87 7 156 16l68 -60l67 57q49 -3 100 -3l41 1l-156 -178q-65 -10 -118 -9zM712 0q-39 -5 -90 -5q-38 0 -57 2l-36 39q-75 -51 -173 -51q-91 0 -165.5 43t-117.5 121t-43 179q0 115 53 203t146.5 136t209.5 48q71 0 135 -16.5t99 -36.5q-1 -38 -12.5 -95
t-32.5 -103q-28 23 -77.5 42t-104.5 19q-84 0 -131 -47t-47 -127q0 -93 53 -136.5t127 -43.5q18 0 36 3v86h-89l8 47q12 62 12 93h297v-400z" />
    <glyph glyph-name="gcaron" unicode="&#x1e7;" horiz-adv-x="593" 
d="M559 72q30 -32 30 -86q0 -58 -35 -103.5t-105 -71.5t-172 -26q-78 0 -139 17.5t-95 49.5t-34 72q0 35 29.5 64.5t76.5 45.5q-35 32 -35 83q0 60 48 93q-85 39 -85 132q0 60 35.5 102t93 63.5t123.5 21.5q47 0 83 -10h210q0 -27 -12 -81q-6 -30 -8 -41l-69 36
q18 -31 18 -74q0 -87 -73 -130.5t-179 -43.5q-23 0 -34 1q1 -12 17 -21.5t62 -18.5l153 -29q66 -13 96 -45zM249.5 388.5q-16.5 -12.5 -16.5 -33.5q0 -19 11 -30.5t29 -11.5q20 0 37 12.5t17 34.5q0 19 -11.5 30t-29.5 11q-20 0 -36.5 -12.5zM348.5 -84q19.5 10 19.5 30
q0 10 -7.5 15t-25.5 9l-103 20q-20 -15 -20 -34q0 -21 20.5 -35.5t66.5 -14.5q30 0 49.5 10zM473 758l41 1l-156 -178q-65 -10 -118 -9l-158 176q87 7 156 16l68 -60l67 57q50 -3 100 -3z" />
    <glyph glyph-name="uni01EA" unicode="&#x1ea;" horiz-adv-x="783" 
d="M483.5 -16q-15.5 -21 -15.5 -46q0 -41 39 -41q15 0 31.5 7.5t24.5 15.5l1 -16q0 -28 -13 -86q-16 -12 -44.5 -22.5t-58.5 -10.5q-49 0 -81.5 30t-32.5 78q0 51 39 92h-12q-96 0 -171.5 43t-117.5 120t-42 176q0 109 51 198.5t139 141t195 51.5q97 0 174 -41.5
t120.5 -117.5t43.5 -176q0 -121 -63.5 -219t-168.5 -143q-22 -13 -37.5 -34zM301.5 235.5q33.5 -50.5 91.5 -50.5q54 0 88.5 44.5t33.5 114.5q1 69 -32.5 120t-91.5 51q-54 0 -88.5 -44.5t-34.5 -114.5t33.5 -120.5z" />
    <glyph glyph-name="uni01EB" unicode="&#x1eb;" horiz-adv-x="587" 
d="M377 -18q-14 -20 -14 -44q0 -20 10.5 -30.5t28.5 -10.5q16 0 31.5 7t24.5 16q1 -5 1 -16q0 -28 -13 -86q-15 -12 -43.5 -22.5t-58.5 -10.5q-50 0 -82.5 30t-32.5 78q0 50 39 92q-73 2 -130.5 35t-90 90.5t-32.5 130.5q0 81 39 146.5t106.5 103.5t148.5 38q76 0 136 -32.5
t94 -90.5t34 -133q0 -85 -44 -153.5t-117 -104.5q-21 -13 -35 -33zM251.5 179.5q16.5 -24.5 42.5 -24.5q28 0 43.5 25t15.5 77t-18 77t-45 25q-55 0 -55 -102q0 -53 16.5 -77.5z" />
    <glyph glyph-name="uni01F1" unicode="&#x1f1;" horiz-adv-x="1448" 
d="M648 626q115 -85 115 -243q0 -114 -56.5 -204.5t-159.5 -141.5t-236 -51q-61 0 -238 13v702q180 10 252 10q208 0 323 -85zM477 230.5q40 44.5 40 124.5q0 84 -45.5 120t-142.5 36h-18v-321q26 -4 47 -4q79 0 119 44.5zM1434 153q0 -31 -6 -93l-4 -60h-561
q-41 73 -50 160l303 360h-272q1 20 5 60q6 60 6 88q0 12 -2 32h535q7 -62 32 -144l-301 -366h313q2 -24 2 -37z" />
    <glyph glyph-name="uni01F2" unicode="&#x1f2;" horiz-adv-x="1349" 
d="M648 626q115 -85 115 -243q0 -114 -56.5 -204.5t-159.5 -141.5t-236 -51q-61 0 -238 13v702q180 10 252 10q208 0 323 -85zM477 230.5q40 44.5 40 124.5q0 84 -45.5 120t-142.5 36h-18v-321q26 -4 47 -4q79 0 119 44.5zM1324 54q-2 -9 -4.5 -22.5t-4.5 -31.5h-463
q-39 69 -46 150l226 204h-197q2 18 4.5 31.5t4.5 22.5q13 65 13 106h436q7 -58 28 -126l-239 -228h255q0 -41 -13 -106z" />
    <glyph glyph-name="uni01F3" unicode="&#x1f3;" horiz-adv-x="1187" 
d="M416 -15q-26 32 -44 81q-20 -37 -58.5 -59t-92.5 -22q-60 0 -106.5 31.5t-71.5 86.5t-25 125q0 87 39.5 154.5t115 106t180.5 40.5v179q29 13 62 22.5t84 21.5q39 8 74 18v-276v-278v0q0 -125 27 -185q-80 -40 -184 -46zM336.5 178q16.5 23 16.5 58v132h-9
q-101 0 -101 -120q0 -42 14 -67.5t39 -25.5q24 0 40.5 23zM1161 54q-2 -9 -4.5 -22.5t-4.5 -31.5h-463q-39 69 -46 150l226 204h-197q2 18 4.5 31.5t4.5 22.5q13 65 13 106h436q7 -58 28 -126l-239 -228h255q0 -41 -13 -106z" />
    <glyph glyph-name="uni01F4" unicode="&#x1f4;" horiz-adv-x="751" 
d="M438 753q-44 0 -85 7l98 173q57 1 121.5 7t80.5 7l28 3l-201 -195q-28 -2 -42 -2zM712 0q-39 -5 -90 -5q-38 0 -57 2l-36 39q-75 -51 -173 -51q-91 0 -165.5 43t-117.5 121t-43 179q0 115 53 203t146.5 136t209.5 48q71 0 135 -16.5t99 -36.5q-1 -38 -12.5 -95
t-32.5 -103q-28 23 -77.5 42t-104.5 19q-84 0 -131 -47t-47 -127q0 -93 53 -136.5t127 -43.5q18 0 36 3v86h-89l8 47q12 62 12 93h297v-400z" />
    <glyph glyph-name="uni01F5" unicode="&#x1f5;" horiz-adv-x="593" 
d="M559 72q30 -32 30 -86q0 -58 -35 -103.5t-105 -71.5t-172 -26q-78 0 -139 17.5t-95 49.5t-34 72q0 35 29.5 64.5t76.5 45.5q-35 32 -35 83q0 60 48 93q-85 39 -85 132q0 60 35.5 102t93 63.5t123.5 21.5q47 0 83 -10h210q0 -27 -12 -81q-6 -30 -8 -41l-69 36
q18 -31 18 -74q0 -87 -73 -130.5t-179 -43.5q-23 0 -34 1q1 -12 17 -21.5t62 -18.5l153 -29q66 -13 96 -45zM249.5 388.5q-16.5 -12.5 -16.5 -33.5q0 -19 11 -30.5t29 -11.5q20 0 37 12.5t17 34.5q0 19 -11.5 30t-29.5 11q-20 0 -36.5 -12.5zM348.5 -84q19.5 10 19.5 30
q0 10 -7.5 15t-25.5 9l-103 20q-20 -15 -20 -34q0 -21 20.5 -35.5t66.5 -14.5q30 0 49.5 10zM305 573q-44 0 -85 7l98 173q57 1 121.5 7t80.5 7l28 3l-201 -195q-28 -2 -42 -2z" />
    <glyph glyph-name="Aringacute" unicode="&#x1fa;" horiz-adv-x="773" 
d="M393 985q-44 0 -85 7l98 173q58 1 123 7t79 7l28 3l-201 -195q-28 -2 -42 -2zM293.5 769q-36.5 34 -36.5 81q0 48 36.5 81.5t88.5 33.5t88.5 -33.5t36.5 -81.5q0 -47 -36.5 -81t-88.5 -34t-88.5 34zM359 873q-9 -10 -9 -23q0 -12 9 -22t23 -10t23 10t9 22q0 13 -9 23
t-23 10t-23 -10zM465 140h-194l-44 -146l-214 6l264 700q123 0 215 11l269 -711l-256 -15zM433 265l-57 222l-67 -222h124z" />
    <glyph glyph-name="aringacute" unicode="&#x1fb;" horiz-adv-x="563" 
d="M361 -15q-29 35 -48 94q-25 -47 -65 -70.5t-87 -23.5q-61 0 -101.5 37t-40.5 103q0 83 67 130t176 47q23 0 45 -2q-9 68 -91 68q-35 0 -74.5 -12t-66.5 -26q-15 52 -18 132q36 26 99.5 46.5t135.5 20.5q109 0 167.5 -54.5t58.5 -173.5v-85q0 -125 27 -185
q-80 -40 -184 -46zM303 215q-16 2 -28 2q-34 0 -52 -10.5t-18 -30.5q0 -15 10 -24.5t28 -9.5q47 0 60 73zM195.5 588q-36.5 34 -36.5 81q0 48 36.5 81.5t88.5 33.5t88.5 -33.5t36.5 -81.5q0 -47 -36.5 -81t-88.5 -34t-88.5 34zM307 647q9 10 9 22q0 13 -9 23t-23 10t-23 -10
t-9 -23q0 -12 9 -22t23 -10t23 10zM298 807q-44 0 -85 7l98 173q57 1 121.5 7t80.5 7l28 3l-201 -195q-28 -2 -42 -2z" />
    <glyph glyph-name="AEacute" unicode="&#x1fc;" horiz-adv-x="927" 
d="M474 753q-44 0 -85 7l98 173q57 1 121.5 7t80.5 7l28 3l-201 -195q-28 -2 -42 -2zM903 149q0 -22 -2 -50.5t-3 -40.5q-4 -37 -5 -58h-435l-16 128h-178l-43 -134l-229 6l295 700h603q1 -11 1 -35q0 -40 -5 -88l-4 -57h-262l13 -94h207q1 -9 1 -27q0 -22 -4 -68
q-1 -8 -2 -19t-1 -26h-181l14 -101h234q2 -24 2 -36zM427 253l-34 279l-89 -279h123z" />
    <glyph glyph-name="aeacute" unicode="&#x1fd;" horiz-adv-x="817" 
d="M728 160.5q43 12.5 64 29.5q2 -10 2 -30q0 -35 -13 -106q-26 -28 -84.5 -48.5t-121.5 -20.5q-66 0 -120.5 23.5t-90.5 68.5q-29 -45 -78 -68.5t-105 -23.5q-71 0 -116.5 36t-45.5 102q0 85 71.5 128.5t200.5 57.5l14 2q-14 57 -89 57q-38 0 -80.5 -13t-71.5 -29
q-15 51 -18 132q38 27 104.5 49t141.5 22q96 0 150 -45q71 45 160 45q67 0 113.5 -27.5t70 -74t23.5 -103.5q0 -30 -6.5 -54.5t-14.5 -36.5l-277 -4q9 -45 40.5 -63t85.5 -18q48 0 91 12.5zM533 354q-17 -24 -22 -61l95 5q2 18 2 29q0 24 -10 37.5t-28 13.5q-20 0 -37 -24z
M306 232q-39 -6 -70 -19t-31 -39q0 -14 10 -23t28 -9q53 0 63 90zM424 573q-44 0 -85 7l98 173q57 1 121.5 7t80.5 7l28 3l-201 -195q-28 -2 -42 -2z" />
    <glyph glyph-name="Oslashacute" unicode="&#x1fe;" horiz-adv-x="783" 
d="M426 753q-44 0 -85 7l98 173q57 1 121.5 7t80.5 7l28 3l-201 -195q-28 -2 -42 -2zM729.5 513.5q23.5 -60.5 23.5 -133.5q0 -109 -51.5 -199.5t-141.5 -143t-199 -52.5q-95 0 -174 44l-44 -55l-66 52l44 55q-44 45 -67.5 107t-23.5 136q0 109 51 198.5t139 141t195 51.5
q100 0 181 -45l45 56l66 -52l-45 -56q44 -44 67.5 -104.5zM280 278l174 216q-27 21 -63 21q-54 0 -88.5 -44.5t-34.5 -114.5q0 -42 12 -78zM481.5 229.5q34.5 44.5 33.5 114.5q1 38 -12 77l-173 -215q27 -21 63 -21q54 0 88.5 44.5z" />
    <glyph glyph-name="oslashacute" unicode="&#x1ff;" horiz-adv-x="587" 
d="M573 273q0 -80 -39 -146t-107 -104t-150 -38q-101 0 -171 56l-60 -59l-31 32l59 58q-59 70 -59 169q0 81 39 146.5t106.5 103.5t148.5 38q102 0 172 -56l57 56l31 -32l-55 -55q59 -70 59 -169zM235 257q0 -18 1 -25l101 99q-17 28 -47 28q-54 0 -55 -98v-4zM353 257
l-1 26l-102 -100q15 -28 44 -28q27 0 42.5 24t16.5 74v4zM338 573q-44 0 -85 7l98 173q57 1 121.5 7t80.5 7l28 3l-201 -195q-28 -2 -42 -2z" />
    <glyph glyph-name="uni0200" unicode="&#x200;" horiz-adv-x="773" 
d="M265 755q-12 0 -32 2l-183 190l25 -2q125 -12 185 -14l70 -170q-33 -6 -65 -6zM461 756q-23 0 -34 1l-150 190l22 -2q109 -10 161 -12l70 -172q-30 -5 -69 -5zM465 140h-194l-44 -146l-214 6l264 700q123 0 215 11l269 -711l-256 -15zM433 265l-57 222l-67 -222h124z" />
    <glyph glyph-name="uni0201" unicode="&#x201;" horiz-adv-x="563" 
d="M361 -15q-29 35 -48 94q-25 -47 -65 -70.5t-87 -23.5q-61 0 -101.5 37t-40.5 103q0 83 67 130t176 47q23 0 45 -2q-9 68 -91 68q-35 0 -74.5 -12t-66.5 -26q-15 52 -18 132q36 26 99.5 46.5t135.5 20.5q109 0 167.5 -54.5t58.5 -173.5v-85q0 -125 27 -185
q-80 -40 -184 -46zM303 215q-16 2 -28 2q-34 0 -52 -10.5t-18 -30.5q0 -15 10 -24.5t28 -9.5q47 0 60 73zM-48 767l25 -2q125 -12 184 -14l71 -170q-35 -6 -66 -6q-11 0 -31 2zM179 767l22 -2q109 -10 160 -12l71 -172q-30 -5 -70 -5q-22 0 -33 1z" />
    <glyph glyph-name="uni0202" unicode="&#x202;" horiz-adv-x="773" 
d="M287 754q-39 0 -81 6q0 83 49 131.5t127 48.5q79 0 127.5 -48.5t48.5 -131.5q-42 -6 -81 -6q-27 0 -40 2q0 28 -13.5 43.5t-41.5 15.5q-27 0 -40.5 -15.5t-13.5 -43.5q-14 -2 -41 -2zM465 140h-194l-44 -146l-214 6l264 700q123 0 215 11l269 -711l-256 -15zM433 265
l-57 222l-67 -222h124z" />
    <glyph glyph-name="uni0203" unicode="&#x203;" horiz-adv-x="563" 
d="M361 -15q-29 35 -48 94q-25 -47 -65 -70.5t-87 -23.5q-61 0 -101.5 37t-40.5 103q0 83 67 130t176 47q23 0 45 -2q-9 68 -91 68q-35 0 -74.5 -12t-66.5 -26q-15 52 -18 132q36 26 99.5 46.5t135.5 20.5q109 0 167.5 -54.5t58.5 -173.5v-85q0 -125 27 -185
q-80 -40 -184 -46zM303 215q-16 2 -28 2q-34 0 -52 -10.5t-18 -30.5q0 -15 10 -24.5t28 -9.5q47 0 60 73zM411 711.5q49 -48.5 49 -131.5q-42 -6 -81 -6q-27 0 -40 2q0 28 -14 43.5t-41 15.5t-41 -15.5t-14 -43.5q-13 -2 -40 -2q-39 0 -81 6q0 83 49 131.5t127 48.5
t127 -48.5z" />
    <glyph glyph-name="uni0204" unicode="&#x204;" horiz-adv-x="594" 
d="M211 755q-11 0 -31 2l-183 190l25 -2q125 -12 184 -14l71 -170q-35 -6 -66 -6zM407 756q-22 0 -33 1l-150 190l22 -2q109 -10 160 -12l71 -172q-30 -5 -70 -5zM570 149q0 -22 -2 -50.5t-3 -40.5q-4 -37 -5 -58h-487v700h484q2 -22 2 -35q0 -30 -6 -88l-4 -57h-238v-94
h196q1 -9 1 -27q0 -22 -4 -68l-3 -45h-190v-101h258q1 -12 1 -36z" />
    <glyph glyph-name="uni0205" unicode="&#x205;" horiz-adv-x="521" 
d="M432 160.5q43 12.5 64 29.5q2 -20 2 -30q0 -35 -13 -106q-26 -28 -84.5 -48.5t-121.5 -20.5q-76 0 -136 30.5t-94 89.5t-34 140t39.5 146t106 101.5t144.5 36.5q67 0 114 -27.5t70.5 -74t23.5 -103.5q0 -30 -6.5 -54.5t-14.5 -36.5l-277 -4q9 -45 40.5 -63t85.5 -18
q48 0 91 12.5zM237 354q-17 -24 -23 -61l95 5q2 18 2 29q0 24 -9.5 37.5t-27.5 13.5q-20 0 -37 -24zM-52 767l25 -2q125 -12 184 -14l71 -170q-35 -6 -66 -6q-11 0 -31 2zM175 767l22 -2q109 -10 160 -12l71 -172q-30 -5 -70 -5q-22 0 -33 1z" />
    <glyph glyph-name="uni0206" unicode="&#x206;" horiz-adv-x="594" 
d="M234 754q-39 0 -81 6q0 83 49 131.5t127 48.5t127 -48.5t49 -131.5q-42 -6 -81 -6q-27 0 -40 2q0 28 -14 43.5t-41 15.5t-41 -15.5t-14 -43.5q-13 -2 -40 -2zM570 149q0 -22 -2 -50.5t-3 -40.5q-4 -37 -5 -58h-487v700h484q2 -22 2 -35q0 -30 -6 -88l-4 -57h-238v-94h196
q1 -9 1 -27q0 -22 -4 -68l-3 -45h-190v-101h258q1 -12 1 -36z" />
    <glyph glyph-name="uni0207" unicode="&#x207;" horiz-adv-x="521" 
d="M432 160.5q43 12.5 64 29.5q2 -20 2 -30q0 -35 -13 -106q-26 -28 -84.5 -48.5t-121.5 -20.5q-76 0 -136 30.5t-94 89.5t-34 140t39.5 146t106 101.5t144.5 36.5q67 0 114 -27.5t70.5 -74t23.5 -103.5q0 -30 -6.5 -54.5t-14.5 -36.5l-277 -4q9 -45 40.5 -63t85.5 -18
q48 0 91 12.5zM237 354q-17 -24 -23 -61l95 5q2 18 2 29q0 24 -9.5 37.5t-27.5 13.5q-20 0 -37 -24zM407 711.5q49 -48.5 49 -131.5q-42 -6 -81 -6q-27 0 -40 2q0 28 -14 43.5t-41 15.5t-41 -15.5t-14 -43.5q-13 -2 -40 -2q-39 0 -81 6q0 83 49 131.5t127 48.5t127 -48.5z
" />
    <glyph glyph-name="uni0208" unicode="&#x208;" horiz-adv-x="384" 
d="M75 755q-10 0 -32 2l-183 190l26 -2q121 -12 184 -14l70 -170q-33 -6 -65 -6zM271 756q-23 0 -34 1l-150 190l22 -2q108 -10 161 -12l70 -172q-29 -5 -69 -5zM311 514v-330v-184q-75 -9 -145 -9q-52 0 -93 4v189v330v186q160 0 238 5v-191z" />
    <glyph glyph-name="uni0209" unicode="&#x209;" horiz-adv-x="328" 
d="M112 581q-34 -6 -66 -6q-21 0 -31 1l-183 191l25 -3q124 -12 184 -13zM242 575q-11 0 -33 2l-150 190q14 -2 22 -2q97 -11 160 -12l71 -172q-36 -6 -70 -6zM282 5q-80 -11 -149 -11q-36 0 -74 3q-5 40 -5 187v284q30 13 63.5 23t82.5 21q38 8 74 18v-346q0 -115 8 -179z
" />
    <glyph glyph-name="uni020A" unicode="&#x20a;" horiz-adv-x="384" 
d="M98 754q-39 0 -81 6q0 83 48.5 131.5t126.5 48.5q79 0 127.5 -48.5t48.5 -131.5q-42 -6 -81 -6q-27 0 -40 2q0 28 -13.5 43.5t-41.5 15.5q-27 0 -40.5 -15.5t-13.5 -43.5q-13 -2 -40 -2zM311 514v-330v-184q-75 -9 -145 -9q-52 0 -93 4v189v330v186q160 0 238 5v-191z
" />
    <glyph glyph-name="uni020B" unicode="&#x20b;" horiz-adv-x="328" 
d="M69 573q-32 0 -81 7q0 83 49 131.5t127 48.5t127 -48.5t49 -131.5q-49 -7 -81 -7q-14 0 -40 2q0 28 -14 43.5t-41 15.5t-41 -15.5t-14 -43.5q-26 -2 -40 -2zM282 5q-80 -11 -149 -11q-36 0 -74 3q-5 40 -5 187v284q30 13 63.5 23t82.5 21q38 8 74 18v-346q0 -115 8 -179z
" />
    <glyph glyph-name="uni020C" unicode="&#x20c;" horiz-adv-x="783" 
d="M83 947l25 -2q125 -12 184 -14l71 -170q-34 -6 -66 -6q-11 0 -31 2zM310 947l22 -2q105 -10 160 -12l71 -172q-30 -5 -70 -5q-22 0 -33 1zM189.5 28q-75.5 43 -117.5 120t-42 176q0 109 51 198.5t139 141t195 51.5q97 0 174 -41.5t120.5 -117.5t43.5 -176
q0 -109 -51.5 -199.5t-141.5 -143t-199 -52.5q-96 0 -171.5 43zM481.5 229.5q34.5 44.5 33.5 114.5q1 69 -32.5 120t-91.5 51q-54 0 -88.5 -44.5t-34.5 -114.5t33.5 -120.5t91.5 -50.5q54 0 88.5 44.5z" />
    <glyph glyph-name="uni020D" unicode="&#x20d;" horiz-adv-x="587" 
d="M142 17.5q-60 32.5 -93.5 91t-33.5 132.5q0 81 39 146.5t106.5 103.5t148.5 38q76 0 136 -32.5t94 -90.5t34 -133q0 -80 -39 -146t-107 -104t-150 -38q-75 0 -135 32.5zM337.5 180q15.5 25 15.5 77t-18 77t-45 25q-55 0 -55 -102q0 -53 16.5 -77.5t42.5 -24.5
q28 0 43.5 25zM-34 767l25 -2q125 -12 184 -14l71 -170q-35 -6 -66 -6q-11 0 -31 2zM193 767l22 -2q109 -10 160 -12l71 -172q-30 -5 -70 -5q-22 0 -33 1z" />
    <glyph glyph-name="uni020E" unicode="&#x20e;" horiz-adv-x="783" 
d="M542 891.5q49 -48.5 49 -131.5q-42 -6 -81 -6q-27 0 -41 2q0 28 -13.5 43.5t-40.5 15.5q-28 0 -41.5 -15.5t-13.5 -43.5q-13 -2 -40 -2q-39 0 -81 6q0 83 48.5 131.5t127.5 48.5q78 0 127 -48.5zM189.5 28q-75.5 43 -117.5 120t-42 176q0 109 51 198.5t139 141t195 51.5
q97 0 174 -41.5t120.5 -117.5t43.5 -176q0 -109 -51.5 -199.5t-141.5 -143t-199 -52.5q-96 0 -171.5 43zM481.5 229.5q34.5 44.5 33.5 114.5q1 69 -32.5 120t-91.5 51q-54 0 -88.5 -44.5t-34.5 -114.5t33.5 -120.5t91.5 -50.5q54 0 88.5 44.5z" />
    <glyph glyph-name="uni020F" unicode="&#x20f;" horiz-adv-x="587" 
d="M142 17.5q-60 32.5 -93.5 91t-33.5 132.5q0 81 39 146.5t106.5 103.5t148.5 38q76 0 136 -32.5t94 -90.5t34 -133q0 -80 -39 -146t-107 -104t-150 -38q-75 0 -135 32.5zM337.5 180q15.5 25 15.5 77t-18 77t-45 25q-55 0 -55 -102q0 -53 16.5 -77.5t42.5 -24.5
q28 0 43.5 25zM425 711.5q49 -48.5 49 -131.5q-42 -6 -81 -6q-27 0 -40 2q0 28 -14 43.5t-41 15.5t-41 -15.5t-14 -43.5q-13 -2 -40 -2q-39 0 -81 6q0 83 49 131.5t127 48.5t127 -48.5z" />
    <glyph glyph-name="uni0210" unicode="&#x210;" horiz-adv-x="750" 
d="M223 755q-10 0 -32 2l-183 190l26 -2q122 -12 184 -14l70 -170q-33 -6 -65 -6zM419 756q-23 0 -34 1l-150 190l22 -2q109 -10 161 -12l70 -172q-30 -5 -69 -5zM356 249q-15 0 -45 2v-251q-75 -9 -145 -9q-52 0 -93 4v685q41 10 112 18.5t147 8.5q176 0 268.5 -51
t92.5 -155q0 -64 -33 -115.5t-94 -79.5l201 -306l-294 -15zM301 393q19 -4 42 -4q52 0 82 21t30 61q0 68 -97 68q-33 0 -57 -6v-140z" />
    <glyph glyph-name="uni0211" unicode="&#x211;" horiz-adv-x="472" 
d="M419 268q-37 22 -67 22q-34 0 -54 -28t-20 -78v0q0 -131 8 -179q-82 -11 -149 -11q-38 0 -74 3q-5 27 -5 187v102q0 58 -5.5 98t-15.5 91q34 15 76.5 25.5t49.5 12.5q32 6 64 15q28 -63 39 -115q30 55 84 85.5t120 30.5q4 -118 -51 -261zM-50 767l25 -2q125 -12 184 -14
l71 -170q-35 -6 -66 -6q-11 0 -31 2zM177 767l22 -2q109 -10 160 -12l71 -172q-30 -5 -70 -5q-22 0 -33 1z" />
    <glyph glyph-name="uni0212" unicode="&#x212;" horiz-adv-x="750" 
d="M245 754q-38 0 -80 6q0 83 48.5 131.5t126.5 48.5q79 0 127.5 -48.5t48.5 -131.5q-42 -6 -81 -6q-27 0 -40 2q0 28 -13.5 43.5t-41.5 15.5q-27 0 -40.5 -15.5t-13.5 -43.5q-14 -2 -41 -2zM356 249q-15 0 -45 2v-251q-75 -9 -145 -9q-52 0 -93 4v685q41 10 112 18.5
t147 8.5q176 0 268.5 -51t92.5 -155q0 -64 -33 -115.5t-94 -79.5l201 -306l-294 -15zM301 393q19 -4 42 -4q52 0 82 21t30 61q0 68 -97 68q-33 0 -57 -6v-140z" />
    <glyph glyph-name="uni0213" unicode="&#x213;" horiz-adv-x="472" 
d="M419 268q-37 22 -67 22q-34 0 -54 -28t-20 -78v0q0 -131 8 -179q-82 -11 -149 -11q-38 0 -74 3q-5 27 -5 187v102q0 58 -5.5 98t-15.5 91q34 15 76.5 25.5t49.5 12.5q32 6 64 15q28 -63 39 -115q30 55 84 85.5t120 30.5q4 -118 -51 -261zM409 711.5q49 -48.5 49 -131.5
q-42 -6 -81 -6q-27 0 -40 2q0 28 -14 43.5t-41 15.5t-41 -15.5t-14 -43.5q-13 -2 -40 -2q-39 0 -81 6q0 83 49 131.5t127 48.5t127 -48.5z" />
    <glyph glyph-name="uni0214" unicode="&#x214;" horiz-adv-x="773" 
d="M283 755q-12 0 -32 2l-183 190l25 -2q125 -12 184 -14l71 -170q-33 -6 -65 -6zM479 756q-23 0 -34 1l-150 190l22 -2q109 -10 160 -12l71 -172q-30 -5 -69 -5zM724 705v-370q0 -165 -87 -257.5t-243 -92.5q-105 0 -181.5 41.5t-117 120.5t-40.5 188v365q160 0 238 5v-370
q0 -71 28 -110.5t78 -39.5t77.5 39.5t27.5 110.5v179v0v0v186q147 0 220 5z" />
    <glyph glyph-name="uni0215" unicode="&#x215;" horiz-adv-x="647" 
d="M433 -15q-34 41 -53 110q-21 -52 -67 -81t-105 -29q-79 0 -123.5 53.5t-44.5 152.5v277q30 13 63.5 23t82.5 21q38 8 74 18v-310q0 -23 11.5 -36t32.5 -13q30 0 48.5 24t18.5 64v71q0 115 -8 179q80 11 148 11q37 0 75 -3q5 -40 5 -187v-114q0 -127 27 -185
q-80 -40 -185 -46zM-12 767l25 -2q125 -12 184 -14l71 -170q-35 -6 -66 -6q-11 0 -31 2zM215 767l22 -2q109 -10 160 -12l71 -172q-30 -5 -70 -5q-22 0 -33 1z" />
    <glyph glyph-name="uni0216" unicode="&#x216;" horiz-adv-x="773" 
d="M305 754q-39 0 -81 6q0 83 49 131.5t127 48.5q79 0 127.5 -48.5t48.5 -131.5q-42 -6 -81 -6q-27 0 -40 2q0 28 -13.5 43.5t-41.5 15.5q-27 0 -40.5 -15.5t-13.5 -43.5q-14 -2 -41 -2zM724 705v-370q0 -165 -87 -257.5t-243 -92.5q-105 0 -181.5 41.5t-117 120.5
t-40.5 188v365q160 0 238 5v-370q0 -71 28 -110.5t78 -39.5t77.5 39.5t27.5 110.5v179v0v0v186q147 0 220 5z" />
    <glyph glyph-name="uni0217" unicode="&#x217;" horiz-adv-x="647" 
d="M433 -15q-34 41 -53 110q-21 -52 -67 -81t-105 -29q-79 0 -123.5 53.5t-44.5 152.5v277q30 13 63.5 23t82.5 21q38 8 74 18v-310q0 -23 11.5 -36t32.5 -13q30 0 48.5 24t18.5 64v71q0 115 -8 179q80 11 148 11q37 0 75 -3q5 -40 5 -187v-114q0 -127 27 -185
q-80 -40 -185 -46zM447 711.5q49 -48.5 49 -131.5q-42 -6 -81 -6q-27 0 -40 2q0 28 -14 43.5t-41 15.5t-41 -15.5t-14 -43.5q-13 -2 -40 -2q-39 0 -81 6q0 83 49 131.5t127 48.5t127 -48.5z" />
    <glyph glyph-name="Scommaaccent" unicode="&#x218;" horiz-adv-x="597" 
d="M87 19q-30 81 -30 169q0 30 2 45q34 -22 87.5 -40.5t110.5 -18.5q43 0 68 11t25 30q0 18 -21.5 30.5t-80.5 33.5q-50 18 -88.5 39t-69 63t-30.5 106q0 68 36.5 119.5t104 80t159.5 28.5q55 0 105 -9.5t80 -21.5q-1 -37 -12 -89t-30 -99q-24 19 -68 33.5t-93 14.5
q-57 0 -57 -29q0 -17 20.5 -28.5t79.5 -34.5q53 -21 91.5 -43t69 -66t30.5 -112q0 -73 -37 -129t-106.5 -86.5t-162.5 -30.5q-95 0 -183 34zM223 -299q24 17 43 39.5t19 41.5q0 12 -7.5 18t-23.5 13q-22 8 -34 19t-12 36q0 35 25 60t68 25q45 0 71.5 -30.5t26.5 -81.5
q0 -60 -33.5 -104t-77.5 -66q-47 7 -65 30z" />
    <glyph glyph-name="scommaaccent" unicode="&#x219;" horiz-adv-x="478" 
d="M115 -8q-39 7 -65 16q-26 66 -26 146q0 26 1 40q33 -22 81.5 -39.5t97.5 -17.5q24 0 38 5t14 14t-14 16.5t-57 24.5q-38 15 -67.5 31.5t-53 48.5t-23.5 79q0 51 30 90t87.5 61t136.5 22q43 0 84 -6t64 -14q0 -69 -36 -155q-18 13 -49.5 24t-62.5 11q-22 0 -34 -5t-12 -14
q0 -10 14.5 -17.5t55.5 -23.5q61 -23 103 -57t42 -101q0 -52 -31.5 -94.5t-91 -67t-142.5 -24.5q-45 0 -84 7zM158 -299q24 17 43 39.5t19 41.5q0 12 -7.5 18t-23.5 13q-22 8 -34 19t-12 36q0 35 25 60t68 25q45 0 71.5 -30.5t26.5 -81.5q0 -60 -33.5 -104t-77.5 -66
q-47 7 -65 30z" />
    <glyph glyph-name="uni021A" unicode="&#x21a;" horiz-adv-x="677" 
d="M672 661q0 -32 -6 -98q-4 -42 -5 -63h-204v-500q-75 -9 -145 -9q-52 0 -93 4v505h-214q1 24 5 67q7 58 7 98q0 11 -2 35h655q2 -26 2 -39zM263 -299q24 17 43 39.5t19 41.5q0 12 -7.5 18t-23.5 13q-22 8 -34 19t-12 36q0 35 25 60t68 25q45 0 71.5 -30.5t26.5 -81.5
q0 -60 -33.5 -104t-77.5 -66q-47 7 -65 30z" />
    <glyph glyph-name="uni021B" unicode="&#x21b;" horiz-adv-x="483" 
d="M471 166q0 -46 -21 -132q-25 -19 -67.5 -34t-92.5 -15q-85 0 -149 47t-64 159v143h-70l9 54q14 70 14 106l69 15l19 115q41 18 119 35l60 15v-180h172q0 -41 -13 -106l-9 -54h-150v-83q0 -44 22.5 -64.5t48.5 -20.5q46 0 101 30q2 -20 2 -30zM187 -299q24 17 43 39.5
t19 41.5q0 12 -7.5 18t-23.5 13q-22 8 -34 19t-12 36q0 35 25 60t68 25q45 0 71.5 -30.5t26.5 -81.5q0 -60 -33.5 -104t-77.5 -66q-47 7 -65 30z" />
    <glyph glyph-name="uni0228" unicode="&#x228;" horiz-adv-x="594" 
d="M570 149q0 -22 -2 -50.5t-3 -40.5q-4 -37 -5 -58h-181l-15 -34q33 -7 52 -27.5t19 -51.5q0 -41 -32.5 -68.5t-85.5 -27.5q-37 0 -65 15q-1 11 -5 33q-8 42 -8 61q10 -6 24 -11t28 -5t23.5 5.5t9.5 15.5t-9.5 18.5t-28.5 8.5q-16 0 -31 -5l34 73h-216v700h484q2 -22 2 -35
q0 -30 -6 -88l-4 -57h-238v-94h196q1 -9 1 -27q0 -22 -4 -68l-3 -45h-190v-101h258q1 -12 1 -36z" />
    <glyph glyph-name="uni0229" unicode="&#x229;" horiz-adv-x="521" 
d="M432 160.5q43 12.5 64 29.5q2 -20 2 -30q0 -35 -13 -106q-20 -21 -60.5 -39t-89.5 -25l-10 -24q33 -7 52 -27.5t19 -51.5q0 -41 -32.5 -68.5t-85.5 -27.5q-38 0 -64 15l-6 33q-8 42 -8 61q10 -6 24.5 -11t28.5 -5t23 5.5t9 15.5t-9.5 18.5t-28.5 8.5q-16 0 -31 -5l28 60
q-102 10 -165.5 78t-63.5 180q0 81 39.5 146t106 101.5t144.5 36.5q67 0 114 -27.5t70.5 -74t23.5 -103.5q0 -30 -6.5 -54.5t-14.5 -36.5l-277 -4q9 -45 40.5 -63t85.5 -18q48 0 91 12.5zM237 354q-17 -24 -23 -61l95 5q2 18 2 29q0 24 -9.5 37.5t-27.5 13.5q-20 0 -37 -24z
" />
    <glyph glyph-name="uni0232" unicode="&#x232;" horiz-adv-x="734" 
d="M214 788h-37q1 16 6 33q8 46 8 67h23v0v0h343q0 -21 -8 -67l-6 -33h-329v0zM486 184v-184q-75 -9 -145 -9q-52 0 -93 4v245l-254 460q79 0 141 3t127 11l114 -293l105 279h257l-252 -460v-56z" />
    <glyph glyph-name="uni0233" unicode="&#x233;" horiz-adv-x="611" 
d="M559 513l64 1l-153 -382q-36 -88 -65.5 -187t-40.5 -160q-163 17 -221 58q34 98 115 197q-56 -2 -84 -1l-182 456q126 8 239 25l90 -323l85 320q102 -4 153 -4zM502 641l-6 -33h-329v0v0h-37q1 11 5 33q9 41 9 67h23v0v0h343q0 -21 -8 -67z" />
    <glyph glyph-name="uni0237" unicode="&#x237;" horiz-adv-x="326" 
d="M116.5 491q33.5 10 82.5 21q38 8 74 18v-474q0 -101 -26 -160.5t-78.5 -85t-134.5 -25.5q-50 65 -50 119q0 9 1 14q35 19 51.5 51t16.5 84v415q30 13 63.5 23z" />
    <glyph glyph-name="uni0251" unicode="&#x251;" horiz-adv-x="629" 
d="M573 216q0 -125 27 -185q-80 -40 -184 -46q-26 32 -44 81q-20 -37 -58.5 -59t-92.5 -22q-60 0 -106.5 31.5t-71.5 86.5t-25 125q0 86 37 154.5t99 107.5t135 39q61 0 109 -26q8 15 18 26q102 -6 184 -45q-27 -62 -27 -186v-82zM336.5 178q16.5 23 16.5 58v116q0 4 1 7
h-10q-101 0 -101 -111q0 -42 14 -67.5t39 -25.5q24 0 40.5 23z" />
    <glyph glyph-name="uni0259" unicode="&#x259;" horiz-adv-x="523" 
d="M385.5 499.5q57.5 -29.5 90.5 -86t33 -135.5q0 -84 -40 -151t-108 -104.5t-148 -37.5q-66 0 -112 26t-69.5 71t-23.5 101q0 33 7.5 59t16.5 39l270 29q-13 31 -42 43.5t-75 12.5q-40 0 -76.5 -7.5t-54.5 -17.5q-13 50 -16 119q28 28 89.5 48.5t126.5 20.5
q74 0 131.5 -29.5zM286.5 165q19.5 29 23.5 72l-96 -13q-4 -22 -4 -41q0 -22 8.5 -34.5t24.5 -12.5q24 0 43.5 29z" />
    <glyph glyph-name="uni02B0" unicode="&#x2b0;" horiz-adv-x="399" 
d="M377 569q-73 -13 -135 -12q-3 30 -3 115v66q0 14 -8 22t-22 8q-19 0 -32 -14.5t-13 -38.5v-43q0 -72 5 -107q-54 -7 -89 -7q-15 0 -45 2v0q-3 30 -3 112v315q28 12 88 26q18 4 44 11v-207q13 29 40.5 45.5t61.5 16.5q49 0 77 -32t28 -91v-83q0 -94 6 -104z" />
    <glyph glyph-name="uni02B2" unicode="&#x2b2;" horiz-adv-x="198" 
d="M48 923q-21 18 -21 44t21 43.5t51 17.5q31 0 52 -17.5t21 -43.5t-21 -44t-52 -18q-30 0 -51 18zM121 869q18 4 44 11v-284q0 -90 -34.5 -126.5t-109.5 -36.5q-34 42 -30 80q22 11 32 30.5t10 50.5v249q28 12 88 26z" />
    <glyph glyph-name="uni02B3" unicode="&#x2b3;" horiz-adv-x="287" 
d="M256 723q-23 13 -42 13q-22 0 -34.5 -16.5t-12.5 -46.5v-1q0 -72 5 -107q-54 -7 -90 -7q-14 0 -44 2v0q-3 30 -3 112v62q0 55 -13 113q20 9 45.5 15.5t30.5 7.5q20 3 38 9q18 -40 24 -70q18 34 52 52.5t74 18.5q3 -69 -30 -157z" />
    <glyph glyph-name="uni02B7" unicode="&#x2b7;" horiz-adv-x="573" 
d="M530 870h38l-71 -206q-24 -74 -28 -95q-50 -10 -121 -10q-7 11 -19.5 39t-24.5 66l-20 60l-21 -60q-10 -29 -18.5 -58t-11.5 -42q-41 -6 -79 -6q-13 0 -39 2v0v0v0v0q-20 43 -42 104l-71 195q70 4 143 15l35 -180l50 157q26 11 78 20l39 8l55 -185l36 178q62 -2 92 -2z
" />
    <glyph glyph-name="uni02B8" unicode="&#x2b8;" horiz-adv-x="375" 
d="M344 870h38l-95 -229q-23 -53 -41.5 -112t-24.5 -96q-99 11 -133 35q18 57 70 118q-16 -1 -50 -1l-113 274q71 4 144 15l58 -193l55 191q62 -2 92 -2z" />
    <glyph glyph-name="uni02BC" unicode="&#x2bc;" horiz-adv-x="251" 
d="M45 479q24 17 43 39.5t19 41.5q0 12 -7.5 18t-23.5 13q-22 8 -34 19t-12 36q0 35 25 60t68 25q45 0 71.5 -30.5t26.5 -81.5q0 -60 -33.5 -104t-77.5 -66q-47 7 -65 30z" />
    <glyph glyph-name="circumflex" unicode="&#x2c6;" horiz-adv-x="600" 
d="M307 572l-68 60l-67 -57q-49 3 -99 3h-42l156 177q68 0 118 9l158 -176q-80 -15 -156 -16z" />
    <glyph glyph-name="caron" unicode="&#x2c7;" horiz-adv-x="600" 
d="M422 758l41 1l-156 -178q-65 -10 -118 -9l-158 176q87 7 156 16l68 -60l67 57q50 -3 100 -3z" />
    <glyph glyph-name="breve" unicode="&#x2d8;" horiz-adv-x="430" 
d="M88 615.5q-49 48.5 -49 131.5q49 7 81 7q14 0 40 -2q0 -28 14 -43.5t41 -15.5t41 15.5t14 43.5q26 2 40 2q32 0 81 -7q0 -83 -49 -131.5t-127 -48.5t-127 48.5z" />
    <glyph glyph-name="dotaccent" unicode="&#x2d9;" horiz-adv-x="600" 
d="M74.5 602q-34.5 30 -34.5 74q0 43 34.5 72t85.5 29t85.5 -29t34.5 -72q0 -44 -35 -74t-86 -30q-50 0 -84.5 30z" />
    <glyph glyph-name="ring" unicode="&#x2da;" horiz-adv-x="600" 
d="M56.5 588q-36.5 34 -36.5 81q0 48 36.5 81.5t88.5 33.5t88.5 -33.5t36.5 -81.5q0 -47 -36.5 -81t-88.5 -34t-88.5 34zM168 647q9 10 9 22q0 13 -9 23t-23 10t-23 -10t-9 -23q0 -12 9 -22t23 -10t23 10z" />
    <glyph glyph-name="ogonek" unicode="&#x2db;" horiz-adv-x="450" 
d="M139.5 -184.5q-32.5 30.5 -32.5 78.5q0 69 63.5 113.5t143.5 59.5l28 -67q-39 -1 -70 -17.5t-31 -48.5q0 -18 10.5 -27.5t28.5 -9.5q15 0 31.5 7.5t24.5 15.5q1 -5 1 -16q0 -28 -13 -86q-15 -12 -43.5 -22.5t-58.5 -10.5q-50 0 -82.5 30.5z" />
    <glyph glyph-name="tilde" unicode="&#x2dc;" horiz-adv-x="600" 
d="M441 726q-17 -92 -52.5 -134.5t-89.5 -42.5q-43 0 -97 41q-5 3 -11 7t-8 4t-13.5 -13t-26.5 -39l-115 31q17 95 47.5 137t83.5 42q35 0 63.5 -12.5t48.5 -26.5t23 -14q-1 0 9.5 15t22.5 35z" />
    <glyph glyph-name="hungarumlaut" unicode="&#x2dd;" horiz-adv-x="600" 
d="M84 576q-39 0 -69 5l70 172q52 2 161 12l22 2l-150 -190q-11 -1 -34 -1zM280 575q-32 0 -65 6l70 170q62 2 184 14l26 2l-183 -190q-22 -2 -32 -2z" />
    <glyph glyph-name="uni02E1" unicode="&#x2e1;" horiz-adv-x="197" 
d="M169 565q-54 -7 -89 -7q-15 0 -45 2v0q-3 30 -3 112v315q28 12 88 26q18 4 44 11v-352q0 -72 5 -107z" />
    <glyph glyph-name="uni02E2" unicode="&#x2e2;" horiz-adv-x="293" 
d="M30 567q-16 41 -16 87l1 24q20 -13 50 -23.5t60 -10.5q34 0 34 11q0 5 -9.5 10t-35.5 15q-36 13 -62.5 34t-26.5 61q0 47 41.5 75.5t114.5 28.5q26 0 51 -3.5t39 -7.5q0 -44 -21 -94q-13 8 -32 14.5t-38 6.5q-14 0 -22 -3t-8 -8t9.5 -10t35.5 -15q37 -13 63.5 -33.5
t26.5 -61.5q0 -48 -43.5 -79.5t-119.5 -31.5q-52 0 -92 14z" />
    <glyph glyph-name="uni02E3" unicode="&#x2e3;" horiz-adv-x="395" 
d="M237 557l-47 104l-57 -103q-62 4 -127 6l103 145l-97 153q85 5 155 16l39 -97l52 95q65 -5 128 -6l-95 -143l104 -156q-72 -14 -158 -14z" />
    <glyph glyph-name="gravecomb" unicode="&#x300;" horiz-adv-x="0" 
d="M-359 770l27 -3q16 -1 80.5 -7t121.5 -7l99 -173q-41 -7 -86 -7q-15 0 -41 2z" />
    <glyph glyph-name="acutecomb" unicode="&#x301;" horiz-adv-x="0" 
d="M-305 573q-44 0 -85 7l98 173q57 1 121.5 7t80.5 7l28 3l-201 -195q-28 -2 -42 -2z" />
    <glyph glyph-name="uni0302" unicode="&#x302;" horiz-adv-x="0" 
d="M-193 572l-68 60l-67 -57q-49 3 -99 3h-42l156 177q68 0 118 9l158 -176q-80 -15 -156 -16z" />
    <glyph glyph-name="tildecomb" unicode="&#x303;" horiz-adv-x="0" 
d="M-425 599q4 58 34.5 106t83.5 48q24 0 43 -8t42 -23q27 -18 39 -18q14 0 26 15t17 33l96 -26q-5 -67 -37.5 -111t-80.5 -44q-24 0 -42.5 8.5t-42.5 23.5q-27 18 -39 18q-14 0 -26 -15t-17 -33z" />
    <glyph glyph-name="uni0304" unicode="&#x304;" horiz-adv-x="0" 
d="M-38 641l-6 -33h-329v0v0h-37q1 11 5 33q9 41 9 67h23v0v0h343q0 -21 -8 -67z" />
    <glyph glyph-name="uni0306" unicode="&#x306;" horiz-adv-x="0" 
d="M-342 615.5q-49 48.5 -49 131.5q49 7 81 7q14 0 40 -2q0 -28 14 -43.5t41 -15.5t41 15.5t14 43.5q26 2 40 2q32 0 81 -7q0 -83 -49 -131.5t-127 -48.5t-127 48.5z" />
    <glyph glyph-name="uni0307" unicode="&#x307;" horiz-adv-x="0" 
d="M-245.5 602q-34.5 30 -34.5 74q0 43 34.5 72t85.5 29t85.5 -29t34.5 -72q0 -44 -35 -74t-86 -30q-50 0 -84.5 30z" />
    <glyph glyph-name="uni0308" unicode="&#x308;" horiz-adv-x="0" 
d="M-448 599.5q-25 27.5 -25 67.5t26.5 66.5t65.5 26.5q38 0 64 -26.5t26 -66.5q0 -39 -28 -67t-66 -28t-63 27.5zM-217 599.5q-25 27.5 -25 67.5t26.5 66.5t65.5 26.5q38 0 63.5 -26.5t25.5 -66.5t-27 -67.5t-66 -27.5q-38 0 -63 27.5z" />
    <glyph glyph-name="uni030A" unicode="&#x30a;" horiz-adv-x="0" 
d="M-233.5 588q-36.5 34 -36.5 81q0 48 36.5 81.5t88.5 33.5t88.5 -33.5t36.5 -81.5q0 -47 -36.5 -81t-88.5 -34t-88.5 34zM-122 647q9 10 9 22q0 13 -9 23t-23 10t-23 -10t-9 -23q0 -12 9 -22t23 -10t23 10z" />
    <glyph glyph-name="uni030B" unicode="&#x30b;" horiz-adv-x="0" 
d="M-384 576q-39 0 -69 5l70 172q52 2 161 12l22 2l-150 -190q-11 -1 -34 -1zM-188 575q-32 0 -65 6l70 170q62 2 184 14l26 2l-183 -190q-22 -2 -32 -2z" />
    <glyph glyph-name="uni030C" unicode="&#x30c;" horiz-adv-x="0" 
d="M-72 758l41 1l-156 -178q-65 -10 -118 -9l-158 176q87 7 156 16l68 -60l67 57q50 -3 100 -3z" />
    <glyph glyph-name="uni030F" unicode="&#x30f;" horiz-adv-x="0" 
d="M-508 767l25 -2q125 -12 184 -14l71 -170q-35 -6 -66 -6q-11 0 -31 2zM-281 767l22 -2q109 -10 160 -12l71 -172q-30 -5 -70 -5q-22 0 -33 1z" />
    <glyph glyph-name="uni0311" unicode="&#x311;" horiz-adv-x="0" 
d="M-88 711.5q49 -48.5 49 -131.5q-42 -6 -81 -6q-27 0 -40 2q0 28 -14 43.5t-41 15.5t-41 -15.5t-14 -43.5q-13 -2 -40 -2q-39 0 -81 6q0 83 49 131.5t127 48.5t127 -48.5z" />
    <glyph glyph-name="uni0312" unicode="&#x312;" horiz-adv-x="0" 
d="M-45 812q-24 -17 -43 -39.5t-19 -41.5q0 -12 7.5 -18t23.5 -13q22 -8 34 -19t12 -36q0 -35 -25 -60t-68 -25q-45 0 -71.5 30.5t-26.5 81.5q0 60 33.5 104t77.5 66q47 -7 65 -30z" />
    <glyph glyph-name="uni0316" unicode="&#x316;" horiz-adv-x="0" 
d="M-359 -40l27 -3q16 -1 80.5 -7t121.5 -7l99 -173q-41 -7 -86 -7q-15 0 -41 2z" />
    <glyph glyph-name="uni0317" unicode="&#x317;" horiz-adv-x="0" 
d="M-305 -237q-44 0 -85 7l98 173q57 1 121.5 7t80.5 7l28 3l-201 -195q-28 -2 -42 -2z" />
    <glyph glyph-name="dotbelowcomb" unicode="&#x323;" horiz-adv-x="0" 
d="M-212.5 -224.5q-27.5 26.5 -27.5 69.5q0 46 32 77t79 31q43 0 71 -27t28 -69q0 -46 -32 -77t-79 -31q-44 0 -71.5 26.5z" />
    <glyph glyph-name="uni0324" unicode="&#x324;" horiz-adv-x="0" 
d="M-448 -210.5q-25 27.5 -25 67.5t26.5 66.5t65.5 26.5q38 0 64 -26.5t26 -66.5q0 -39 -28 -67t-66 -28t-63 27.5zM-217 -210.5q-25 27.5 -25 67.5t26.5 66.5t65.5 26.5q38 0 63.5 -26.5t25.5 -66.5t-27 -67.5t-66 -27.5q-38 0 -63 27.5z" />
    <glyph glyph-name="uni0325" unicode="&#x325;" horiz-adv-x="0" 
d="M-274.5 -222q-36.5 34 -36.5 81q0 48 36.5 81.5t88.5 33.5t88.5 -33.5t36.5 -81.5q0 -47 -36.5 -81t-88.5 -34t-88.5 34zM-163 -163q9 10 9 22q0 13 -9 23t-23 10t-23 -10t-9 -23q0 -12 9 -22t23 -10t23 10z" />
    <glyph glyph-name="uni0326" unicode="&#x326;" horiz-adv-x="0" 
d="M-206 -299q24 17 43 39.5t19 41.5q0 12 -7.5 18t-23.5 13q-22 8 -34 19t-12 36q0 35 25 60t68 25q45 0 71.5 -30.5t26.5 -81.5q0 -60 -33.5 -104t-77.5 -66q-47 7 -65 30z" />
    <glyph glyph-name="uni0327" unicode="&#x327;" horiz-adv-x="0" 
d="M-36 -61.5q19 -20.5 19 -51.5q0 -41 -33 -68.5t-85 -27.5q-39 0 -65 15q-1 11 -5 33q-8 42 -8 61q10 -6 24 -11t28 -5t23.5 5.5t9.5 15.5t-10 18.5t-29 8.5q-15 0 -30 -5l42 92l91 2l-24 -55q33 -7 52 -27.5z" />
    <glyph glyph-name="uni0328" unicode="&#x328;" horiz-adv-x="0" 
d="M-309.5 -184.5q-32.5 30.5 -32.5 78.5q0 69 63.5 113.5t143.5 59.5l28 -67q-39 -1 -70 -17.5t-31 -48.5q0 -18 10.5 -27.5t28.5 -9.5q15 0 31.5 7.5t24.5 15.5q1 -5 1 -16q0 -28 -13 -86q-15 -12 -43.5 -22.5t-58.5 -10.5q-50 0 -82.5 30.5z" />
    <glyph glyph-name="uni032C" unicode="&#x32c;" horiz-adv-x="0" 
d="M-72 -52l41 1l-156 -178q-65 -10 -118 -9l-158 176q87 7 156 16l68 -60l67 57q50 -3 100 -3z" />
    <glyph glyph-name="uni032D" unicode="&#x32d;" horiz-adv-x="0" 
d="M-193 -238l-68 60l-67 -57q-49 3 -99 3h-42l156 177q68 0 118 9l158 -176q-80 -15 -156 -16z" />
    <glyph glyph-name="uni032E" unicode="&#x32e;" horiz-adv-x="0" 
d="M-342 -194.5q-49 48.5 -49 131.5q49 7 81 7q14 0 40 -2q0 -28 14 -43.5t41 -15.5t41 15.5t14 43.5q26 2 40 2q32 0 81 -7q0 -83 -49 -131.5t-127 -48.5t-127 48.5z" />
    <glyph glyph-name="uni032F" unicode="&#x32f;" horiz-adv-x="0" 
d="M-88 -98.5q49 -48.5 49 -131.5q-42 -6 -81 -6q-27 0 -40 2q0 28 -14 43.5t-41 15.5t-41 -15.5t-14 -43.5q-13 -2 -40 -2q-39 0 -81 6q0 83 49 131.5t127 48.5t127 -48.5z" />
    <glyph glyph-name="uni0330" unicode="&#x330;" horiz-adv-x="0" 
d="M-425 -211q4 58 34.5 106t83.5 48q24 0 43 -8t42 -23q27 -18 39 -18q14 0 26 15t17 33l96 -26q-5 -67 -37.5 -111t-80.5 -44q-24 0 -42.5 8.5t-42.5 23.5q-27 18 -39 18q-14 0 -26 -15t-17 -33z" />
    <glyph glyph-name="uni0331" unicode="&#x331;" horiz-adv-x="0" 
d="M-38 -169l-6 -33h-329v0v0h-37q1 11 5 33q9 41 9 67h23v0v0h343q0 -21 -8 -67z" />
    <glyph glyph-name="uni0335" unicode="&#x335;" horiz-adv-x="0" 
d="M-28 334l-6 -34h-434q1 9 5 34q1 6 5 27t4 39h434q0 -22 -8 -66z" />
    <glyph glyph-name="uni0394" unicode="&#x394;" horiz-adv-x="777" 
d="M765 0h-752l264 700q123 0 215 11zM465 150l-89 338l-102 -338h191z" />
    <glyph glyph-name="uni03A9" unicode="&#x3a9;" horiz-adv-x="805" 
d="M775 129q0 -25 -4 -79q-2 -16 -4 -50h-312v151v10q33 21 52 67t19 106q0 88 -33.5 134.5t-89.5 46.5q-57 0 -90.5 -46.5t-33.5 -134.5q0 -60 19 -106t52 -67v-73v-88h-320l4 54q5 43 5 78q0 19 -1 28h118q-55 40 -85 98.5t-30 130.5q0 89 50 164t135.5 118.5t188.5 43.5
q102 0 181.5 -40.5t123.5 -112.5t44 -162q0 -73 -31.5 -135t-88.5 -105h130q1 -10 1 -31z" />
    <glyph glyph-name="uni03BC" unicode="&#x3bc;" horiz-adv-x="647" 
d="M433 -15q-34 41 -53 110q-15 -40 -47 -66.5t-73 -37.5v-7q0 -75 3 -120t7 -53q-113 -22 -225 -19q-5 42 -5 192v328v156q30 13 63.5 23t82.5 21q38 8 74 18v-218v-92q0 -23 11.5 -36t32.5 -13q30 0 48.5 24t18.5 64v71q0 115 -8 179q80 11 148 11q37 0 75 -3
q5 -40 5 -187v-114q0 -127 27 -185q-80 -40 -185 -46z" />
    <glyph glyph-name="pi" unicode="&#x3c0;" horiz-adv-x="704" 
d="M692 132q0 -69 -24 -132q-3 -1 -16.5 -4.5t-35 -7t-44.5 -3.5q-96 0 -144.5 47.5t-48.5 125.5v196h-85v-170q0 -158 -6 -192q-96 -3 -194 19q4 10 7 58.5t3 114.5v170h-86l9 54q13 65 13 106h642q0 -41 -13 -106l-9 -54h-61v-127q0 -35 14 -53.5t38 -18.5q14 0 26.5 6
t12.5 7q2 -24 2 -36z" />
    <glyph glyph-name="uni0400" unicode="&#x400;" horiz-adv-x="594" 
d="M305 753q-14 0 -42 2l-201 195l28 -3q13 -1 78.5 -7t123.5 -7l98 -173q-41 -7 -85 -7zM570 149q0 -22 -2 -50.5t-3 -40.5q-4 -37 -5 -58h-487v700h484q2 -22 2 -35q0 -30 -6 -88l-4 -57h-238v-94h196q1 -9 1 -27q0 -22 -4 -68l-3 -45h-190v-101h258q1 -12 1 -36z" />
    <glyph glyph-name="uni0401" unicode="&#x401;" horiz-adv-x="594" 
d="M148 779.5q-25 27.5 -25 67.5t26.5 66.5t65.5 26.5q38 0 64 -26.5t26 -66.5q0 -39 -28 -67t-66 -28t-63 27.5zM379 779.5q-25 27.5 -25 67.5t26.5 66.5t65.5 26.5q38 0 63.5 -26.5t25.5 -66.5t-27 -67.5t-66 -27.5q-38 0 -63 27.5zM570 149q0 -22 -2 -50.5t-3 -40.5
q-4 -37 -5 -58h-487v700h484q2 -22 2 -35q0 -30 -6 -88l-4 -57h-238v-94h196q1 -9 1 -27q0 -22 -4 -68l-3 -45h-190v-101h258q1 -12 1 -36z" />
    <glyph glyph-name="uni0402" unicode="&#x402;" horiz-adv-x="852" 
d="M767.5 364.5q54.5 -62.5 54.5 -193.5q0 -103 -30 -181t-87.5 -120.5t-135.5 -42.5q-51 64 -51 118l1 15q30 20 47.5 72.5t17.5 114.5q0 50 -13.5 69.5t-44.5 19.5q-37 0 -79 -22v-214q-75 -9 -145 -9q-52 0 -93 4v505h-204q1 24 5 67q7 58 7 98q0 11 -2 35h665
q2 -26 2 -39q0 -32 -6 -98q-4 -42 -5 -63h-224v-100q29 11 69.5 19t83.5 8q113 0 167.5 -62.5z" />
    <glyph glyph-name="uni0403" unicode="&#x403;" horiz-adv-x="565" 
d="M334 753q-45 0 -86 7l99 173q57 1 122 7t79 7l28 3l-201 -195q-26 -2 -41 -2zM560 661q0 -32 -6 -98l-4 -63h-239v-500q-75 -9 -145 -9q-52 0 -93 4v705h485q2 -13 2 -39z" />
    <glyph glyph-name="uni0404" unicode="&#x404;" horiz-adv-x="657" 
d="M557 198.5q49 20.5 69 53.5q2 -10 2 -32q0 -54 -28 -154q-33 -33 -94.5 -57t-136.5 -24q-97 0 -174 42.5t-121 120.5t-44 180q0 115 52.5 203t142 136t197.5 48q65 0 121 -15.5t88 -37.5q-2 -41 -13.5 -99t-33.5 -106q-20 26 -62.5 47t-96.5 21q-58 0 -101 -26.5
t-63 -74.5h254q1 -9 1 -27q0 -23 -4 -69q-1 -8 -2 -18.5t-1 -25.5h-250q21 -55 73 -80.5t116 -25.5q60 0 109 20.5z" />
    <glyph glyph-name="uni0405" unicode="&#x405;" horiz-adv-x="597" 
d="M87 19q-30 81 -30 169q0 30 2 45q34 -22 87.5 -40.5t110.5 -18.5q43 0 68 11t25 30q0 18 -21.5 30.5t-80.5 33.5q-50 18 -88.5 39t-69 63t-30.5 106q0 68 36.5 119.5t104 80t159.5 28.5q55 0 105 -9.5t80 -21.5q-1 -37 -12 -89t-30 -99q-24 19 -68 33.5t-93 14.5
q-57 0 -57 -29q0 -17 20.5 -28.5t79.5 -34.5q53 -21 91.5 -43t69 -66t30.5 -112q0 -73 -37 -129t-106.5 -86.5t-162.5 -30.5q-95 0 -183 34z" />
    <glyph glyph-name="uni0406" unicode="&#x406;" horiz-adv-x="384" 
d="M311 184v-184q-75 -9 -145 -9q-52 0 -93 4v189v330v186q160 0 238 5v-191v-330z" />
    <glyph glyph-name="uni0407" unicode="&#x407;" horiz-adv-x="384" 
d="M140.5 780q-27.5 -28 -65.5 -28t-63.5 27t-25.5 68q0 40 27 66.5t65 26.5t64 -26.5t26 -66.5q0 -39 -27.5 -67zM373 913.5q26 -26.5 26 -66.5t-27.5 -67.5t-65.5 -27.5t-63.5 27t-25.5 68q0 40 27 66.5t65 26.5t64 -26.5zM311 514v-330v-184q-75 -9 -145 -9q-52 0 -93 4
v189v330v186q160 0 238 5v-191z" />
    <glyph glyph-name="uni0408" unicode="&#x408;" horiz-adv-x="503" 
d="M448 705v-416q0 -157 -63 -230.5t-190 -73.5q-83 0 -148 24q-31 79 -31 168q0 16 2 46q3 -2 17 -9t37 -13t50 -6q47 0 67.5 24t20.5 75v406q160 0 238 5z" />
    <glyph glyph-name="uni0409" unicode="&#x409;" horiz-adv-x="1077" 
d="M986.5 438.5q70.5 -53.5 70.5 -161.5q0 -81 -38.5 -145t-122.5 -101.5t-214 -37.5q-68 0 -136 3.5t-111 8.5v495h-117q-2 -193 -21.5 -304t-63 -161t-119.5 -50q-24 0 -46.5 3.5t-36.5 8.5q-31 80 -31 171q0 16 2 46q15 -3 23 -3q52 0 72.5 80t20.5 248v161h555v-218
q54 10 109 10q134 0 204.5 -53.5zM789 192.5q30 19.5 30 56.5q0 63 -96 63q-32 0 -60 -5v-131q21 -3 46 -3q50 0 80 19.5z" />
    <glyph glyph-name="uni040A" unicode="&#x40a;" horiz-adv-x="1161" 
d="M1070 438q71 -54 71 -161q0 -81 -39 -145t-123 -101.5t-214 -37.5q-132 0 -247 12v255h-207v-260q-75 -9 -145 -9q-52 0 -93 4v519v186q160 0 238 5v-245h207v240q160 0 238 5v-224q50 11 109 11q134 0 205 -54zM872 192.5q30 19.5 30 56.5q0 63 -96 63q-33 0 -60 -5
v-131q21 -3 47 -3q49 0 79 19.5z" />
    <glyph glyph-name="uni040B" unicode="&#x40b;" horiz-adv-x="893" 
d="M863 220v-36h-1v-184q-75 -9 -145 -9q-52 0 -93 4v190q0 63 -73 63q-25 0 -53.5 -6.5t-50.5 -14.5v-43v0v-184q-75 -9 -145 -9q-53 0 -93 4v189v0v316h-204q1 24 5 67q7 58 7 98q0 11 -2 35h665q2 -26 2 -39q0 -32 -6 -98q-4 -42 -5 -63h-224v-88q34 10 84 18t96 8
q236 0 236 -218z" />
    <glyph glyph-name="uni040C" unicode="&#x40c;" horiz-adv-x="799" 
d="M422 753q-44 0 -86 7l99 173q57 1 121.5 7t80.5 7l28 3l-202 -195q-26 -2 -41 -2zM515 -15l-163 292q-19 -3 -41 -3v-274q-75 -9 -145 -9q-52 0 -93 4v519v186q160 0 238 5v-267q33 0 52.5 24.5t43.5 75.5q26 55 50.5 90.5t69.5 61t115 25.5q33 0 63 -6t46 -14
q0 -91 -46 -198q-8 7 -22.5 12.5t-29.5 5.5q-32 0 -53 -21t-51 -67q-10 -16 -16 -24l258 -403z" />
    <glyph glyph-name="uni040D" unicode="&#x40d;" horiz-adv-x="834" 
d="M393 753q-14 0 -42 2l-201 195l28 -3q13 -1 78.5 -7t123.5 -7l98 -173q-41 -7 -85 -7zM761 705v-521v-184q-75 -9 -145 -9q-52 0 -93 4v393l-212 -383v-5q-75 -9 -145 -9q-52 0 -93 4v519v186q160 0 238 5v-382l212 377q161 0 238 5z" />
    <glyph glyph-name="uni040E" unicode="&#x40e;" horiz-adv-x="761" 
d="M270 795.5q-49 48.5 -49 131.5q53 7 87 7q15 0 43 -2q0 -46 10 -69.5t36 -23.5t36 23.5t10 69.5q28 2 43 2q34 0 87 -7q0 -83 -49 -131.5t-127 -48.5t-127 48.5zM768 700l-242 -473q-73 -143 -154.5 -206t-160.5 -63q-27 0 -52.5 4t-38.5 8q-32 79 -32 172q0 16 2 46
q15 -8 40 -15t53 -7q38 0 71.5 21.5t56.5 50.5h-51l-236 462q78 0 138.5 3t124.5 11l121 -301l103 287h257z" />
    <glyph glyph-name="uni040F" unicode="&#x40f;" horiz-adv-x="828" 
d="M755 705v-705h-251v-155q-57 -6 -110 -6q-36 0 -70 3v158h-251v700q160 0 238 5v-505h206v500q161 0 238 5z" />
    <glyph glyph-name="uni0410" unicode="&#x410;" horiz-adv-x="773" 
d="M465 140h-194l-44 -146l-214 6l264 700q123 0 215 11l269 -711l-256 -15zM433 265l-57 222l-67 -222h124z" />
    <glyph glyph-name="uni0411" unicode="&#x411;" horiz-adv-x="718" 
d="M625.5 404.5q70.5 -47.5 70.5 -144.5q0 -75 -39 -135t-123 -96t-214 -36q-85 0 -166 5.5t-81 6.5v695h562q1 -11 1 -35q0 -22 -2 -50t-3 -38q-2 -19 -4 -57h-316v-78q55 10 109 10q135 0 205.5 -47.5zM427 192.5q30 19.5 30 56.5q0 34 -26 48.5t-68 14.5q-23 0 -40 -2
t-22 -3v-131q21 -3 47 -3q49 0 79 19.5z" />
    <glyph glyph-name="uni0412" unicode="&#x412;" horiz-adv-x="734" 
d="M681 341q31 -40 31 -104q0 -70 -40 -125t-124 -87t-212 -32q-75 0 -147 3.5t-116 8.5v678q44 9 115 16.5t141 7.5q171 0 258.5 -45t87.5 -135q0 -42 -20 -76t-57 -57q52 -13 83 -53zM296 432q20 -2 33 -2q52 0 81.5 17.5t29.5 48.5q0 27 -22 39.5t-70 12.5q-19 0 -52 -3
v-113zM432 177q35 21 35 58q0 31 -26.5 46t-82.5 15q-36 0 -62 -4v-134q24 -2 39 -2q62 0 97 21z" />
    <glyph glyph-name="uni0413" unicode="&#x413;" horiz-adv-x="565" 
d="M560 661q0 -32 -6 -98l-4 -63h-239v-500q-75 -9 -145 -9q-52 0 -93 4v705h485q2 -13 2 -39z" />
    <glyph glyph-name="uni0414" unicode="&#x414;" horiz-adv-x="824" 
d="M815 180v-130v-205q-57 -6 -110 -6q-35 0 -70 3v158h-450v-158q-35 -3 -70 -3q-53 0 -110 6v205v130h52q36 35 59 122.5t23 236.5v161h580v-520h96zM481 180v340h-142q-1 -121 -15 -205.5t-35 -134.5h192z" />
    <glyph glyph-name="uni0415" unicode="&#x415;" horiz-adv-x="594" 
d="M570 149q0 -22 -2 -50.5t-3 -40.5q-4 -37 -5 -58h-487v700h484q2 -22 2 -35q0 -30 -6 -88l-4 -57h-238v-94h196q1 -9 1 -27q0 -22 -4 -68l-3 -45h-190v-101h258q1 -12 1 -36z" />
    <glyph glyph-name="uni0416" unicode="&#x416;" horiz-adv-x="1187" 
d="M904 -15l-156 291q-22 -2 -35 -2v-274q-76 -9 -146 -9q-52 0 -92 4v279q-14 0 -36 2l-156 -291l-276 15l253 404l-14 22q-29 46 -50 67.5t-52 21.5q-14 0 -28 -5.5t-23 -12.5q-46 112 -45 198q15 8 44.5 14t62.5 6q69 0 113.5 -26t68.5 -62t49 -91q25 -51 42.5 -73.5
t46.5 -22.5v260q158 0 238 5v-265q29 0 47 23.5t41 72.5q25 55 49 91t68.5 62t113.5 26q33 0 62.5 -6t44.5 -14q1 -90 -45 -198q-9 7 -23 12.5t-28 5.5q-31 0 -52 -21.5t-50 -67.5l-14 -22l253 -404z" />
    <glyph glyph-name="uni0417" unicode="&#x417;" horiz-adv-x="573" 
d="M525 332q27 -42 27 -103q0 -68 -36.5 -123.5t-108 -88t-173.5 -32.5q-100 0 -175 32q-29 75 -29 156q0 15 2 43q0 -2 23.5 -17.5t60 -28.5t80.5 -13q52 0 85 19t33 46q0 23 -27.5 40t-81.5 17q-44 0 -70 -6q-21 72 -24 164q35 -8 72 -8q55 0 85 17.5t30 41.5q0 21 -25 36
t-69 15q-48 0 -88 -16.5t-60 -36.5q-24 78 -27 182q30 18 89.5 32.5t133.5 14.5q129 0 202 -50t73 -137q0 -43 -20 -76.5t-53 -55.5q44 -22 71 -64z" />
    <glyph glyph-name="uni0418" unicode="&#x418;" horiz-adv-x="834" 
d="M761 705v-521v-184q-75 -9 -145 -9q-52 0 -93 4v393l-212 -383v-5q-75 -9 -145 -9q-52 0 -93 4v519v186q160 0 238 5v-382l212 377q161 0 238 5z" />
    <glyph glyph-name="uni0419" unicode="&#x419;" horiz-adv-x="834" 
d="M290 795.5q-49 48.5 -49 131.5q52 7 87 7q15 0 43 -2q0 -46 10 -69.5t36 -23.5t36 23.5t10 69.5q28 2 43 2q34 0 87 -7q0 -83 -49 -131.5t-127 -48.5t-127 48.5zM761 705v-521v-184q-75 -9 -145 -9q-52 0 -93 4v393l-212 -383v-5q-75 -9 -145 -9q-52 0 -93 4v519v186
q160 0 238 5v-382l212 377q161 0 238 5z" />
    <glyph glyph-name="uni041A" unicode="&#x41a;" horiz-adv-x="799" 
d="M515 -15l-163 292q-19 -3 -41 -3v-274q-75 -9 -145 -9q-52 0 -93 4v519v186q160 0 238 5v-267q33 0 52.5 24.5t43.5 75.5q26 55 50.5 90.5t69.5 61t115 25.5q33 0 63 -6t46 -14q0 -91 -46 -198q-8 7 -22.5 12.5t-29.5 5.5q-32 0 -53 -21t-51 -67q-10 -16 -16 -24
l258 -403z" />
    <glyph glyph-name="uni041B" unicode="&#x41b;" horiz-adv-x="756" 
d="M683 700v-700q-75 -9 -145 -9q-52 0 -93 4v505h-127q-2 -193 -21.5 -304t-63 -161t-119.5 -50q-24 0 -46.5 3.5t-36.5 8.5q-31 80 -31 171q0 16 2 46q15 -3 23 -3q52 0 72.5 80t20.5 248v161h565z" />
    <glyph glyph-name="uni041C" unicode="&#x41c;" horiz-adv-x="987" 
d="M712 -9l-22 437l-134 -426q-90 -16 -168 -13l-125 454l-39 -451q-95 8 -203 10l102 688q121 7 255 26l109 -412l149 404q105 -8 237 -8l81 -689q-109 -20 -242 -20z" />
    <glyph glyph-name="uni041D" unicode="&#x41d;" horiz-adv-x="834" 
d="M761 705v-521v-184q-75 -9 -145 -9q-52 0 -93 4v275h-212v-270q-75 -9 -145 -9q-52 0 -93 4v519v186q160 0 238 5v-255h212v250q161 0 238 5z" />
    <glyph glyph-name="uni041E" unicode="&#x41e;" horiz-adv-x="783" 
d="M189.5 28q-75.5 43 -117.5 120t-42 176q0 109 51 198.5t139 141t195 51.5q97 0 174 -41.5t120.5 -117.5t43.5 -176q0 -109 -51.5 -199.5t-141.5 -143t-199 -52.5q-96 0 -171.5 43zM481.5 229.5q34.5 44.5 33.5 114.5q1 69 -32.5 120t-91.5 51q-54 0 -88.5 -44.5
t-34.5 -114.5t33.5 -120.5t91.5 -50.5q54 0 88.5 44.5z" />
    <glyph glyph-name="uni041F" unicode="&#x41f;" horiz-adv-x="815" 
d="M742 700v-700q-75 -9 -145 -9q-52 0 -93 4v505h-193v-500q-75 -9 -145 -9q-52 0 -93 4v705h669z" />
    <glyph glyph-name="uni0420" unicode="&#x420;" horiz-adv-x="691" 
d="M591 643q95 -64 95 -184q0 -80 -40.5 -147t-114 -106t-168.5 -39q-26 0 -52 3v-170q-75 -9 -145 -9q-52 0 -93 4v685q46 10 113 18.5t132 8.5q178 0 273 -64zM420.5 371.5q28.5 24.5 28.5 68.5q0 43 -25.5 65t-71.5 22q-26 0 -51 -5v-172q22 -3 39 -3q52 0 80.5 24.5z
" />
    <glyph glyph-name="uni0421" unicode="&#x421;" horiz-adv-x="657" 
d="M195 27.5q-77 42.5 -121 120.5t-44 180q0 115 52.5 203t142 136t197.5 48q65 0 121 -15.5t88 -37.5q-2 -44 -15 -109.5t-37 -118.5q-18 31 -58.5 56t-93.5 25q-71 0 -115 -45t-44 -119q0 -83 53 -121.5t127 -38.5q58 0 108 21t71 50q3 -16 3 -33q0 -55 -30 -163
q-33 -33 -94.5 -57t-136.5 -24q-97 0 -174 42.5z" />
    <glyph glyph-name="uni0422" unicode="&#x422;" horiz-adv-x="677" 
d="M672 661q0 -32 -6 -98q-4 -42 -5 -63h-204v-500q-75 -9 -145 -9q-52 0 -93 4v505h-214q1 24 5 67q7 58 7 98q0 11 -2 35h655q2 -26 2 -39z" />
    <glyph glyph-name="uni0423" unicode="&#x423;" horiz-adv-x="761" 
d="M768 700l-242 -473q-73 -143 -154.5 -206t-160.5 -63q-27 0 -52.5 4t-38.5 8q-32 79 -32 172q0 16 2 46q15 -8 40 -15t53 -7q38 0 71.5 21.5t56.5 50.5h-51l-236 462q78 0 138.5 3t124.5 11l121 -301l103 287h257z" />
    <glyph glyph-name="uni0424" unicode="&#x424;" horiz-adv-x="997" 
d="M925 209.5q-48 -75.5 -132 -120.5t-187 -49v-110q-74 -8 -132 -8q-42 0 -84 3v116q-11 -1 -35 -1q-96 0 -171.5 36t-117.5 100.5t-42 147.5q0 91 48 166.5t132 120.5t186 49v100q146 0 216 5v-106q12 1 35 1q96 0 171.5 -36t118 -100.5t42.5 -147.5q0 -91 -48 -166.5z
M295.5 263.5q33.5 -38.5 91.5 -38.5q9 0 13 1v248q-5 1 -15 1q-54 0 -88.5 -33.5t-34.5 -85.5q0 -54 33.5 -92.5zM700.5 258.5q34.5 33.5 34.5 85.5q0 54 -33.5 92.5t-91.5 38.5q-9 0 -13 -1v-248q5 -1 15 -1q54 0 88.5 33.5z" />
    <glyph glyph-name="uni0425" unicode="&#x425;" horiz-adv-x="748" 
d="M484 -15l-125 241l-116 -226h-246l232 354l-228 346q158 0 278 15l115 -217l105 202h245l-216 -327l241 -373z" />
    <glyph glyph-name="uni0426" unicode="&#x426;" horiz-adv-x="849" 
d="M840 200v-150v-205q-57 -6 -110 -6q-35 0 -70 3v158h-587v700q160 0 238 5v-505h191v500q161 0 238 5v-505h100z" />
    <glyph glyph-name="uni0427" unicode="&#x427;" horiz-adv-x="781" 
d="M708 705v-521v-184q-75 -9 -145 -9q-52 0 -93 4v211q-34 -10 -84 -18t-96 -8q-238 0 -238 248v272q161 0 238 5v-242q0 -31 19.5 -47t56.5 -16q25 0 53.5 6.5t50.5 14.5v279q160 0 238 5z" />
    <glyph glyph-name="uni0428" unicode="&#x428;" horiz-adv-x="1211" 
d="M1138 705v-705h-1065v700q160 0 238 5v-505h176v500q158 0 238 5v-505h175v500q160 0 238 5z" />
    <glyph glyph-name="uni0429" unicode="&#x429;" horiz-adv-x="1247" 
d="M1238 200v-150v-205q-57 -6 -110 -6q-35 0 -70 3v158h-985v700q160 0 238 5v-505h176v500q158 0 238 5v-505h175v500q160 0 238 5v-505h100z" />
    <glyph glyph-name="uni042A" unicode="&#x42a;" horiz-adv-x="852" 
d="M761 438q71 -54 71 -161q0 -81 -39 -145t-123 -101.5t-214 -37.5q-132 0 -247 12v495h-204q1 24 5 67q7 58 7 98q0 11 -2 35h433v-218q54 10 108 10q134 0 205 -54zM564 193q30 20 30 56q0 63 -97 63q-32 0 -59 -5v-131q20 -3 46 -3q50 0 80 20z" />
    <glyph glyph-name="uni042B" unicode="&#x42b;" horiz-adv-x="1100" 
d="M625 438q71 -54 71 -161q0 -81 -39 -145t-123 -101.5t-214 -37.5q-132 0 -247 12v509v186q160 0 238 5v-191v0v-32q56 10 109 10q134 0 205 -54zM427 192.5q30 19.5 30 56.5q0 63 -96 63q-33 0 -60 -5v-131q21 -3 47 -3q49 0 79 19.5zM1027 184v-184q-75 -9 -145 -9
q-52 0 -93 4v189v330v186q160 0 238 5v-191v-330z" />
    <glyph glyph-name="uni042C" unicode="&#x42c;" horiz-adv-x="716" 
d="M625 438q71 -54 71 -161q0 -81 -39 -145t-123 -101.5t-214 -37.5q-132 0 -247 12v509v186q160 0 238 5v-191v0v-32q56 10 109 10q134 0 205 -54zM427 192.5q30 19.5 30 56.5q0 63 -96 63q-33 0 -60 -5v-131q21 -3 47 -3q49 0 79 19.5z" />
    <glyph glyph-name="uni042D" unicode="&#x42d;" horiz-adv-x="632" 
d="M432.5 673.5q80.5 -41.5 125 -117.5t44.5 -176q0 -109 -52.5 -199.5t-144.5 -143t-206 -52.5q-42 0 -81 7t-62 16q-30 80 -30 166q0 15 2 45q28 -16 75 -28.5t97 -12.5q72 0 115.5 28t59.5 78h-285q0 15 1 27t2 20q5 38 5 68l-1 25h273q-18 46 -59.5 74t-110.5 28
q-44 0 -84 -11t-64 -25q-22 72 -25 172q34 20 94 36.5t128 16.5q103 0 183.5 -41.5z" />
    <glyph glyph-name="uni042E" unicode="&#x42e;" horiz-adv-x="1127" 
d="M933 673.5q77 -41.5 120.5 -117.5t43.5 -176q0 -108 -52 -199t-141.5 -143.5t-198.5 -52.5q-81 0 -147 34t-109 96.5t-55 144.5h-83v-260q-75 -9 -145 -9q-52 0 -93 4v519v186q160 0 238 5v-245h100q25 76 76.5 133.5t121.5 89.5t150 32q97 0 174 -41.5zM824.5 466
q-34.5 49 -92.5 49q-56 0 -87.5 -45t-31.5 -115q0 -69 31 -119.5t91 -50.5q55 0 89.5 46.5t34.5 115.5q0 70 -34.5 119z" />
    <glyph glyph-name="uni042F" unicode="&#x42f;" horiz-adv-x="774" 
d="M593 707q65 -8 108 -18v-689q-75 -9 -145 -9q-52 0 -93 4v255l-26 -2q-19 -19 -47 -77q-29 -56 -54 -93t-67 -64t-101 -27q-48 0 -93 10q-29 75 -29 161q0 30 2 44q19 -8 59 -8q34 0 55 14t47 42q23 27 41 38q-86 6 -133.5 49.5t-47.5 118.5q0 77 49 135.5t139.5 91
t210.5 32.5q60 0 125 -8zM337.5 518.5q-29.5 -20.5 -29.5 -54.5q0 -35 29 -56.5t78 -21.5q31 0 49 6v143q-19 4 -47 4q-50 0 -79.5 -20.5z" />
    <glyph glyph-name="uni0430" unicode="&#x430;" horiz-adv-x="563" 
d="M361 -15q-29 35 -48 94q-25 -47 -65 -70.5t-87 -23.5q-61 0 -101.5 37t-40.5 103q0 83 67 130t176 47q23 0 45 -2q-9 68 -91 68q-35 0 -74.5 -12t-66.5 -26q-15 52 -18 132q36 26 99.5 46.5t135.5 20.5q109 0 167.5 -54.5t58.5 -173.5v-85q0 -125 27 -185
q-80 -40 -184 -46zM303 215q-16 2 -28 2q-34 0 -52 -10.5t-18 -30.5q0 -15 10 -24.5t28 -9.5q47 0 60 73z" />
    <glyph glyph-name="uni0431" unicode="&#x431;" horiz-adv-x="608" 
d="M541 435q53 -54 53 -153q0 -80 -35.5 -148t-103 -108.5t-159.5 -40.5q-126 0 -193 77.5t-67 234.5q0 141 50 227t124 127.5t171 67.5q56 14 89.5 25.5t59.5 27.5q17 -66 17 -125q0 -45 -8 -80q-29 -12 -58.5 -16.5t-73.5 -7.5q-67 -5 -105.5 -16t-65.5 -50.5t-30 -121.5
q14 57 66.5 95.5t127.5 38.5q88 0 141 -54zM356 334q-18 25 -44 25q-56 0 -56 -100q0 -54 17 -79t43 -25q27 0 42.5 25t15.5 75q0 54 -18 79z" />
    <glyph glyph-name="uni0432" unicode="&#x432;" horiz-adv-x="597" 
d="M554.5 253.5q25.5 -28.5 25.5 -75.5q0 -81 -78.5 -132t-239.5 -51q-122 0 -208 9v497q35 7 91 13t112 6q293 0 293 -134q0 -30 -16.5 -54t-48.5 -41q44 -9 69.5 -37.5zM242 313q8 -1 23 -1q36 0 56.5 9t20.5 27q0 17 -17 26.5t-48 9.5q-17 0 -35 -3v-68zM337 136
q25 12 25 35q0 39 -76 39q-20 0 -44 -3v-82q6 -1 30 -1q40 0 65 12z" />
    <glyph glyph-name="uni0433" unicode="&#x433;" horiz-adv-x="464" 
d="M447 401l-10 -57h-163v-160q0 -115 8 -179q-80 -11 -149 -11q-36 0 -74 3q-5 40 -5 187v330h407q0 -37 -14 -113z" />
    <glyph glyph-name="uni0434" unicode="&#x434;" horiz-adv-x="658" 
d="M648 170v-120v-205q-57 -6 -110 -6q-36 0 -70 3v158h-281v-158q-35 -3 -70 -3q-53 0 -110 6v205v120h55q21 25 31.5 97.5t10.5 206.5v40h459q5 -45 5 -184v-160h80zM358 160v212h-94q-3 -139 -19 -212h113z" />
    <glyph glyph-name="uni0435" unicode="&#x435;" horiz-adv-x="521" 
d="M432 160.5q43 12.5 64 29.5q2 -20 2 -30q0 -35 -13 -106q-26 -28 -84.5 -48.5t-121.5 -20.5q-76 0 -136 30.5t-94 89.5t-34 140t39.5 146t106 101.5t144.5 36.5q67 0 114 -27.5t70.5 -74t23.5 -103.5q0 -30 -6.5 -54.5t-14.5 -36.5l-277 -4q9 -45 40.5 -63t85.5 -18
q48 0 91 12.5zM237 354q-17 -24 -23 -61l95 5q2 18 2 29q0 24 -9.5 37.5t-27.5 13.5q-20 0 -37 -24z" />
    <glyph glyph-name="uni0436" unicode="&#x436;" horiz-adv-x="950" 
d="M963 13q-127 -24 -249 -21l-82 211q-11 -2 -31 -4h-16v-15q0 -115 8 -179q-80 -11 -149 -11q-36 0 -74 3q-5 40 -5 187v15h-16q-20 2 -31 4l-82 -211q-122 -3 -249 21l192 307q-32 39 -69 39q-14 0 -26 -4.5t-19 -9.5q-39 95 -38 169q12 6 34.5 10.5t48.5 4.5
q50 0 83 -18.5t51 -44.5t37 -66q19 -37 32.5 -54t35.5 -17h16v139q30 13 63.5 23t82.5 21q38 8 74 18v-201h16q22 0 35.5 17t32.5 54q19 40 37 66t51 44.5t83 18.5q26 0 48.5 -4.5t34.5 -10.5q1 -74 -38 -169q-7 5 -19 9.5t-26 4.5q-37 0 -69 -39z" />
    <glyph glyph-name="uni0437" unicode="&#x437;" horiz-adv-x="481" 
d="M442.5 250.5q21.5 -29.5 21.5 -75.5q0 -54 -29.5 -97t-87.5 -68t-141 -25q-78 0 -148 20q-20 53 -20 111q0 20 1 30q18 -9 48.5 -15.5t63.5 -6.5q44 0 70.5 12.5t26.5 32.5q0 35 -69 35q-29 0 -49 -4q-14 53 -17 118q22 -5 53 -5q32 0 51.5 9.5t19.5 27.5q0 16 -17.5 26
t-46.5 10q-35 0 -67 -13.5t-50 -29.5q-18 60 -21 139q28 18 77.5 32t111.5 14q103 0 162 -38t59 -102t-61 -98q37 -10 58.5 -39.5z" />
    <glyph glyph-name="uni0438" unicode="&#x438;" horiz-adv-x="672" 
d="M621 64q3 -45 7 -53q-113 -22 -224 -19q-6 34 -6 192v93l-116 -272q-80 -11 -149 -11q-36 0 -74 3q-5 40 -5 187v284q30 13 63.5 23t82.5 21q38 8 74 18v-270l114 243q114 22 225 19q5 -42 5 -192v-146q0 -75 3 -120z" />
    <glyph glyph-name="uni0439" unicode="&#x439;" horiz-adv-x="672" 
d="M204.5 615.5q-48.5 48.5 -48.5 131.5q45 6 86 6q29 0 44 -2q0 -47 9.5 -70t35.5 -23q27 0 36.5 23t9.5 70q14 2 44 2q41 0 86 -6q0 -84 -48.5 -132t-127.5 -48q-78 0 -126.5 48.5zM621 64q3 -45 7 -53q-113 -22 -224 -19q-6 34 -6 192v93l-116 -272q-80 -11 -149 -11
q-36 0 -74 3q-5 40 -5 187v284q30 13 63.5 23t82.5 21q38 8 74 18v-270l114 243q114 22 225 19q5 -42 5 -192v-146q0 -75 3 -120z" />
    <glyph glyph-name="uni043A" unicode="&#x43a;" horiz-adv-x="645" 
d="M658 13q-127 -24 -249 -21l-90 212q-13 -3 -38 -5h-7v-15q0 -115 8 -179q-80 -11 -149 -11q-36 0 -74 3q-5 40 -5 187v284q30 13 63.5 23t82.5 21q38 8 74 18v-201h7q23 0 37.5 17t33.5 53q21 40 40 66t54 45t88 19q26 0 49 -4.5t35 -10.5q1 -74 -38 -169q-7 5 -19 9.5
t-26 4.5q-39 0 -77 -41z" />
    <glyph glyph-name="uni043B" unicode="&#x43b;" horiz-adv-x="616" 
d="M565 64.5q3 -44.5 7 -53.5q-120 -22 -225 -19q-5 43 -5 192v170h-70q-3 -142 -21.5 -222t-55.5 -113.5t-101 -33.5q-34 0 -71 8q-24 63 -24 133q0 23 1 36q14 -7 28 -7q39 0 56.5 72.5t17.5 246.5v40h455q5 -45 5 -184v-146q0 -75 3 -119.5z" />
    <glyph glyph-name="uni043C" unicode="&#x43c;" horiz-adv-x="808" 
d="M562 -8l-7 278l-62 -152q-21 -53 -31 -82t-12 -35q-67 -11 -121 -10q-4 8 -18.5 40.5t-35.5 86.5l-57 142l-9 -266q-102 7 -183 8l63 499q126 8 238 25l77 -234l101 225q102 -4 153 -4l63 1l63 -502q-100 -20 -222 -20z" />
    <glyph glyph-name="uni043D" unicode="&#x43d;" horiz-adv-x="659" 
d="M608 64q3 -45 7 -53q-113 -22 -225 -19q-5 43 -5 192v-1h-111q0 -114 8 -178q-80 -11 -149 -11q-36 0 -74 3q-5 40 -5 187v284q30 13 63.5 23t82.5 21q38 8 74 18v-197h111q0 73 -3 117.5t-7 52.5q113 22 225 19q5 -42 5 -192v-146q0 -75 3 -120z" />
    <glyph glyph-name="uni043E" unicode="&#x43e;" horiz-adv-x="587" 
d="M142 17.5q-60 32.5 -93.5 91t-33.5 132.5q0 81 39 146.5t106.5 103.5t148.5 38q76 0 136 -32.5t94 -90.5t34 -133q0 -80 -39 -146t-107 -104t-150 -38q-75 0 -135 32.5zM337.5 180q15.5 25 15.5 77t-18 77t-45 25q-55 0 -55 -102q0 -53 16.5 -77.5t42.5 -24.5
q28 0 43.5 25z" />
    <glyph glyph-name="uni043F" unicode="&#x43f;" horiz-adv-x="652" 
d="M601 64.5q3 -44.5 7 -53.5q-120 -22 -225 -19q-5 43 -5 192v160h-104v-160q0 -115 8 -179q-80 -11 -149 -11q-36 0 -74 3q-5 40 -5 187v330h539q5 -45 5 -184v-146q0 -75 3 -119.5z" />
    <glyph glyph-name="uni0440" unicode="&#x440;" horiz-adv-x="631" 
d="M573.5 132q-39.5 -67 -115 -105.5t-180.5 -40.5v-2q0 -76 3 -120.5t6 -52.5q-112 -22 -224 -19q-5 42 -5 192v302q0 58 -5.5 98t-15.5 91q34 15 76.5 25.5t49.5 12.5q32 6 64 15q22 -47 31 -82q19 39 58 61t94 22q60 0 106.5 -31.5t71.5 -86.5t25 -125q0 -87 -39.5 -154z
M294.5 336q-16.5 -23 -16.5 -57v-123l9 -1q101 0 101 112q0 42 -14 67t-39 25q-24 0 -40.5 -23z" />
    <glyph glyph-name="uni0441" unicode="&#x441;" horiz-adv-x="472" 
d="M138 17.5q-58 32.5 -90.5 91.5t-32.5 136q0 86 40 150.5t108 99t150 34.5q47 0 84.5 -9.5t62.5 -22.5q4 -80 -35 -182q-15 17 -41.5 30.5t-55.5 13.5q-42 0 -67.5 -26t-25.5 -69q0 -48 29 -71.5t75 -23.5q35 0 70 13t50 27q3 -18 3 -36q0 -45 -16 -127
q-25 -26 -70.5 -43.5t-105.5 -17.5q-74 0 -132 32.5z" />
    <glyph glyph-name="uni0442" unicode="&#x442;" horiz-adv-x="541" 
d="M524 401q-2 -10 -4.5 -24t-4.5 -33h-134v-160h-1h1q0 -133 8 -179q-78 -12 -149 -12q-38 0 -74 3q-5 28 -5 188h1h-1v160h-158q6 38 10 57q14 76 14 113h511q0 -37 -14 -113z" />
    <glyph glyph-name="uni0443" unicode="&#x443;" horiz-adv-x="611" 
d="M559 513l64 1l-193 -481q-50 -125 -127.5 -186.5t-170.5 -61.5q-41 0 -66 9q-26 69 -26 141q0 13 2 39q11 -5 31.5 -9t43.5 -4q53 0 91 22.5t60 57.5q-52 -3 -94 -2l-182 456q126 8 239 25l90 -323l85 320q102 -4 153 -4z" />
    <glyph glyph-name="uni0444" unicode="&#x444;" horiz-adv-x="887" 
d="M832 133q-37 -67 -108.5 -106t-170.5 -41v-160q-29 -13 -61.5 -22.5t-83.5 -21.5l-75 -18v256v40q-17 -35 -48 -55t-74 -20q-58 0 -101.5 31.5t-67.5 86.5t-24 125q0 86 37 153t108 106t170 42v179q29 13 62 22.5t84 21.5q39 8 74 18v-276v-30q18 31 49.5 48t72.5 17
q58 0 102 -31.5t68 -86.5t24 -125q0 -86 -37 -153zM319 178q14 23 14 58v132q-90 0 -90 -123q0 -41 11 -65.5t31 -24.5t34 23zM621 184q22 28 22 86q0 41 -10.5 65t-30.5 24t-34.5 -23t-14.5 -57v-124q46 1 68 29z" />
    <glyph glyph-name="uni0445" unicode="&#x445;" horiz-adv-x="644" 
d="M381 -8l-72 169l-88 -167q-105 7 -211 9l166 243l-156 253q136 9 258 27l59 -157l81 154q105 -7 211 -9l-153 -240l168 -259q-118 -23 -263 -23z" />
    <glyph glyph-name="uni0446" unicode="&#x446;" horiz-adv-x="705" 
d="M695 170v-120v-205q-57 -6 -110 -6q-35 0 -70 3v158h-461v468q30 13 63.5 23t82.5 21q38 8 74 18v-360h121v160q0 75 -3 120t-7 53q113 22 225 19q5 -42 5 -192v-160h80z" />
    <glyph glyph-name="uni0447" unicode="&#x447;" horiz-adv-x="626" 
d="M579 5q-80 -11 -148 -11q-37 0 -75 3q-4 27 -5 163q-26 -11 -66.5 -20t-79.5 -9q-83 0 -126.5 50t-43.5 145v142q30 13 63.5 23t82.5 21q38 8 74 18v-182q0 -41 38 -41q30 0 58 20v2q0 133 -8 179q77 12 149 12q38 0 74 -3q5 -42 5 -188v-145q0 -115 8 -179z" />
    <glyph glyph-name="uni0448" unicode="&#x448;" horiz-adv-x="960" 
d="M905 330v-330h-851v468q30 13 63.5 23t82.5 21q38 8 74 18v-360h94v298q30 13 63.5 23t82.5 21q39 8 74 18v-360h97v159l-1 1q0 76 -3 120.5t-6 52.5q112 22 224 19q5 -42 5 -192h1z" />
    <glyph glyph-name="uni0449" unicode="&#x449;" horiz-adv-x="995" 
d="M985 170v-120v-205q-55 -6 -109 -6q-35 0 -71 3v158h-751v468q30 13 63.5 23t82.5 21q38 8 74 18v-360h94v298q30 13 63.5 23t82.5 21q39 8 74 18v-360h97v160q0 76 -3 120.5t-6 52.5q112 22 224 19q5 -42 5 -192v-160h80z" />
    <glyph glyph-name="uni044A" unicode="&#x44a;" horiz-adv-x="668" 
d="M598 334q53 -39 53 -121q0 -96 -73 -156.5t-233 -60.5q-94 0 -198 8v350h-144q2 18 4.5 31.5t4.5 22.5q13 65 13 106h342v-144q33 3 73 3q105 0 158 -39zM428.5 158.5q20.5 14.5 20.5 42.5q0 48 -67 48q-10 0 -42 -4v-99q20 -2 33 -2q35 0 55.5 14.5z" />
    <glyph glyph-name="uni044B" unicode="&#x44b;" horiz-adv-x="903" 
d="M505.5 334q52.5 -39 52.5 -121q0 -96 -73 -156.5t-233 -60.5q-91 0 -198 8v456v8q30 13 63.5 23t82.5 21q38 8 74 18v-160q33 3 73 3q106 0 158.5 -39zM335.5 158.5q20.5 14.5 20.5 42.5q0 48 -67 48q-13 0 -41 -4v-99q18 -2 32 -2q35 0 55.5 14.5zM857 5
q-80 -11 -149 -11q-36 0 -74 3q-5 40 -5 187v284q30 13 63.5 23t82.5 21q38 8 74 18v-346q0 -115 8 -179z" />
    <glyph glyph-name="uni044C" unicode="&#x44c;" horiz-adv-x="575" 
d="M505.5 334q52.5 -39 52.5 -121q0 -96 -73 -156.5t-233 -60.5q-91 0 -198 8v456v8q30 13 63.5 23t82.5 21q38 8 74 18v-160q33 3 73 3q106 0 158.5 -39zM335.5 158.5q20.5 14.5 20.5 42.5q0 48 -67 48q-13 0 -41 -4v-99q18 -2 32 -2q35 0 55.5 14.5z" />
    <glyph glyph-name="uni044D" unicode="&#x44d;" horiz-adv-x="483" 
d="M350 497.5q56 -31.5 87.5 -88t31.5 -131.5q0 -87 -39.5 -153.5t-108 -103t-153.5 -36.5q-39 0 -70.5 7t-50.5 16q-25 65 -25 137q0 12 2 38q22 -15 56.5 -26.5t66.5 -11.5q39 0 66 19.5t39 52.5h-156q1 10 5 30q7 35 7 60h144q-11 30 -35.5 45.5t-56.5 15.5t-65.5 -14
t-52.5 -31q-16 58 -19 138q29 26 82 47t116 21q73 0 129 -31.5z" />
    <glyph glyph-name="uni044E" unicode="&#x44e;" horiz-adv-x="866" 
d="M728.5 496.5q57.5 -32.5 90.5 -90.5t33 -133q0 -80 -38 -146t-103.5 -104t-143.5 -38q-93 0 -157.5 55t-80.5 146h-55v-2q0 -115 8 -179q-80 -11 -149 -11q-36 0 -74 3q-5 40 -5 187v284q30 13 63.5 23t82.5 21q38 8 74 18v-204h61q25 91 97 147t168 56q71 0 128.5 -32.5
zM614 334q-18 25 -45 25t-42.5 -25t-15.5 -77t18 -77t44 -25q28 0 43.5 25t15.5 77t-18 77z" />
    <glyph glyph-name="uni044F" unicode="&#x44f;" horiz-adv-x="601" 
d="M550 64.5q3 -44.5 7 -53.5q-120 -22 -224 -19q-6 34 -6 192v-8q1 0 -11 -2q-9 -10 -19.5 -28t-13.5 -22q-24 -42 -44.5 -69.5t-53 -47.5t-76.5 -20q-36 0 -69 7q-22 59 -22 121q0 10 2 32q13 -6 44 -6q25 0 42.5 10.5t40.5 31.5q5 5 15 13q-64 7 -94.5 39.5t-30.5 89.5
q0 61 40.5 107t113 70.5t166.5 24.5q81 0 186 -21q4 -52 4 -176v-146q0 -75 3 -119.5zM264 364q-22 -13 -22 -35q0 -23 21 -37t56 -14q22 0 34 4v48v45q-20 2 -33 2q-34 0 -56 -13z" />
    <glyph glyph-name="uni0450" unicode="&#x450;" horiz-adv-x="521" 
d="M432 160.5q43 12.5 64 29.5q2 -20 2 -30q0 -35 -13 -106q-26 -28 -84.5 -48.5t-121.5 -20.5q-76 0 -136 30.5t-94 89.5t-34 140t39.5 146t106 101.5t144.5 36.5q67 0 114 -27.5t70.5 -74t23.5 -103.5q0 -30 -6.5 -54.5t-14.5 -36.5l-277 -4q9 -45 40.5 -63t85.5 -18
q48 0 91 12.5zM237 354q-17 -24 -23 -61l95 5q2 18 2 29q0 24 -9.5 37.5t-27.5 13.5q-20 0 -37 -24zM14 770l27 -3q16 -1 80.5 -7t121.5 -7l99 -173q-41 -7 -86 -7q-15 0 -41 2z" />
    <glyph glyph-name="uni0451" unicode="&#x451;" horiz-adv-x="521" 
d="M432 160.5q43 12.5 64 29.5q2 -20 2 -30q0 -35 -13 -106q-26 -28 -84.5 -48.5t-121.5 -20.5q-76 0 -136 30.5t-94 89.5t-34 140t39.5 146t106 101.5t144.5 36.5q67 0 114 -27.5t70.5 -74t23.5 -103.5q0 -30 -6.5 -54.5t-14.5 -36.5l-277 -4q9 -45 40.5 -63t85.5 -18
q48 0 91 12.5zM237 354q-17 -24 -23 -61l95 5q2 18 2 29q0 24 -9.5 37.5t-27.5 13.5q-20 0 -37 -24zM99 599.5q-25 27.5 -25 67.5t26.5 66.5t65.5 26.5q38 0 64 -26.5t26 -66.5q0 -39 -28 -67t-66 -28t-63 27.5zM330 599.5q-25 27.5 -25 67.5t26.5 66.5t65.5 26.5
q38 0 63.5 -26.5t25.5 -66.5t-27 -67.5t-66 -27.5q-38 0 -63 27.5z" />
    <glyph glyph-name="uni0452" unicode="&#x452;" horiz-adv-x="669" 
d="M573.5 447.5q46.5 -81.5 46.5 -240.5q0 -185 -64 -280t-183 -95q-50 63 -50 118q0 10 1 14q37 34 56.5 89.5t19.5 139.5q0 150 -60 150q-29 0 -47.5 -32.5t-18.5 -85.5v-41q0 -115 8 -179q-80 -11 -149 -11q-36 0 -74 3q-5 40 -5 187v376h-64q1 9 5 34q9 40 9 66h50v48
q30 13 63.5 23t82.5 21q38 8 74 18v-110h164q0 -22 -8 -66l-6 -34h-150v-131q23 47 65 73.5t95 26.5q93 0 139.5 -81.5z" />
    <glyph glyph-name="uni0453" unicode="&#x453;" horiz-adv-x="464" 
d="M447 401l-10 -57h-163v-160q0 -115 8 -179q-80 -11 -149 -11q-36 0 -74 3q-5 40 -5 187v330h407q0 -37 -14 -113zM243 573q-44 0 -85 7l98 173q57 1 121.5 7t80.5 7l28 3l-201 -195q-28 -2 -42 -2z" />
    <glyph glyph-name="uni0454" unicode="&#x454;" horiz-adv-x="489" 
d="M414.5 171.5q35.5 12.5 52.5 27.5q2 -16 2 -24q0 -44 -20 -129q-26 -26 -73.5 -43.5t-108.5 -17.5q-73 0 -130.5 31.5t-89.5 88t-32 130.5q0 89 42.5 155.5t114.5 102.5t158 36q47 0 85.5 -9.5t63.5 -22.5q1 -75 -40 -172q-14 17 -42 30.5t-59 13.5q-35 0 -62 -17
t-41 -45h165q0 -16 -3 -35t-4 -25q-4 -20 -5 -30h-154q13 -28 42 -43t66 -15t72.5 12.5z" />
    <glyph glyph-name="uni0455" unicode="&#x455;" horiz-adv-x="478" 
d="M115 -8q-39 7 -65 16q-26 66 -26 146q0 26 1 40q33 -22 81.5 -39.5t97.5 -17.5q24 0 38 5t14 14t-14 16.5t-57 24.5q-38 15 -67.5 31.5t-53 48.5t-23.5 79q0 51 30 90t87.5 61t136.5 22q43 0 84 -6t64 -14q0 -69 -36 -155q-18 13 -49.5 24t-62.5 11q-22 0 -34 -5t-12 -14
q0 -10 14.5 -17.5t55.5 -23.5q61 -23 103 -57t42 -101q0 -52 -31.5 -94.5t-91 -67t-142.5 -24.5q-45 0 -84 7z" />
    <glyph glyph-name="uni0456" unicode="&#x456;" horiz-adv-x="328" 
d="M282 5q-80 -11 -149 -11q-36 0 -74 3q-5 40 -5 187v284q30 13 63.5 23t82.5 21q38 8 74 18v-346q0 -115 8 -179zM78.5 602q-34.5 30 -34.5 74q0 43 34.5 72t85.5 29t85.5 -29t34.5 -72q0 -44 -35 -74t-86 -30q-50 0 -84.5 30z" />
    <glyph glyph-name="uni0457" unicode="&#x457;" horiz-adv-x="328" 
d="M126.5 609q-27.5 -28 -66.5 -28q-38 0 -63 27.5t-25 67.5q0 39 26.5 65.5t65.5 26.5q38 0 64 -26.5t26 -65.5t-27.5 -67zM330.5 742q25.5 -26 25.5 -66t-27 -67.5t-66 -27.5q-38 0 -63 27.5t-25 67.5q0 39 26.5 65.5t65.5 26.5q38 0 63.5 -26zM282 5q-80 -11 -149 -11
q-36 0 -74 3q-5 40 -5 187v284q30 13 63.5 23t82.5 21q38 8 74 18v-346q0 -115 8 -179z" />
    <glyph glyph-name="uni0458" unicode="&#x458;" horiz-adv-x="326" 
d="M116.5 491q33.5 10 82.5 21q38 8 74 18v-474q0 -101 -26 -160.5t-78.5 -85t-134.5 -25.5q-50 65 -50 119q0 9 1 14q35 19 51.5 51t16.5 84v415q30 13 63.5 23zM77.5 602q-34.5 30 -34.5 74q0 43 34.5 72t85.5 29t85.5 -29t34.5 -72q0 -44 -35 -74t-86 -30q-50 0 -84.5 30
z" />
    <glyph glyph-name="uni0459" unicode="&#x459;" horiz-adv-x="863" 
d="M793.5 334q52.5 -39 52.5 -121q0 -96 -73 -156.5t-233 -60.5q-91 0 -198 8v340h-71q-3 -138 -21.5 -215.5t-55.5 -110.5t-100 -33q-34 0 -71 8q-24 63 -24 133q0 23 1 36q14 -7 28 -7q39 0 56.5 72.5t17.5 246.5v40h455q3 -24 5 -144q33 3 73 3q106 0 158.5 -39z
M624 158.5q21 14.5 21 42.5q0 48 -68 48q-9 0 -41 -4v-99q18 -2 32 -2q35 0 56 14.5z" />
    <glyph glyph-name="uni045A" unicode="&#x45a;" horiz-adv-x="895" 
d="M825.5 334q52.5 -39 52.5 -121q0 -96 -73 -156.5t-233 -60.5q-91 0 -198 8v169h-100q0 -107 8 -168q-80 -11 -149 -11q-36 0 -74 3q-5 40 -5 187v284q30 13 63.5 23t82.5 21q38 8 74 18v-187h100v125q30 13 63.5 23t82.5 21q38 8 74 18v-160q33 3 73 3q106 0 158.5 -39z
M655.5 158.5q20.5 14.5 20.5 42.5q0 48 -67 48q-13 0 -41 -4v-99q18 -2 32 -2q35 0 55.5 14.5z" />
    <glyph glyph-name="uni045B" unicode="&#x45b;" horiz-adv-x="651" 
d="M608 64.5q3 -44.5 7 -53.5q-122 -22 -225 -19q-5 43 -5 192v110q0 23 -11.5 36t-32.5 13q-30 0 -48.5 -24t-18.5 -64v-71q0 -115 8 -179q-80 -11 -149 -11q-36 0 -74 3q-5 40 -5 187v376h-64q1 9 5 34q9 40 9 66h50v48q30 13 63.5 23t82.5 21q38 8 74 18v-110h164
q0 -22 -8 -66l-6 -34h-150v-135q20 49 64 76.5t99 27.5q79 0 123.5 -53.5t44.5 -152.5v-139q0 -75 3 -119.5z" />
    <glyph glyph-name="uni045C" unicode="&#x45c;" horiz-adv-x="645" 
d="M658 13q-127 -24 -249 -21l-90 212q-13 -3 -38 -5h-7v-15q0 -115 8 -179q-80 -11 -149 -11q-36 0 -74 3q-5 40 -5 187v284q30 13 63.5 23t82.5 21q38 8 74 18v-201h7q23 0 37.5 17t33.5 53q21 40 40 66t54 45t88 19q26 0 49 -4.5t35 -10.5q1 -74 -38 -169q-7 5 -19 9.5
t-26 4.5q-39 0 -77 -41zM351 573q-44 0 -85 7l98 173q57 1 121.5 7t80.5 7l28 3l-201 -195q-28 -2 -42 -2z" />
    <glyph glyph-name="uni045D" unicode="&#x45d;" horiz-adv-x="672" 
d="M621 64q3 -45 7 -53q-113 -22 -224 -19q-6 34 -6 192v93l-116 -272q-80 -11 -149 -11q-36 0 -74 3q-5 40 -5 187v284q30 13 63.5 23t82.5 21q38 8 74 18v-270l114 243q114 22 225 19q5 -42 5 -192v-146q0 -75 3 -120zM65 770l27 -3q16 -1 80.5 -7t121.5 -7l99 -173
q-41 -7 -86 -7q-15 0 -41 2z" />
    <glyph glyph-name="uni045E" unicode="&#x45e;" horiz-adv-x="611" 
d="M177.5 615.5q-48.5 48.5 -48.5 131.5q45 6 87 6q29 0 43 -2q0 -46 10 -69.5t36 -23.5t36 23.5t10 69.5q14 2 43 2q42 0 87 -6q0 -83 -48.5 -131.5t-127.5 -48.5t-127.5 48.5zM559 513l64 1l-193 -481q-50 -125 -127.5 -186.5t-170.5 -61.5q-41 0 -66 9q-26 69 -26 141
q0 13 2 39q11 -5 31.5 -9t43.5 -4q53 0 91 22.5t60 57.5q-52 -3 -94 -2l-182 456q126 8 239 25l90 -323l85 320q102 -4 153 -4z" />
    <glyph glyph-name="uni045F" unicode="&#x45f;" horiz-adv-x="669" 
d="M615 330v-330h-196v-155q-57 -6 -110 -6q-35 0 -70 3v158h-185v468q30 13 63.5 23t82.5 21q38 8 74 18v-360h121v160q0 75 -3 120t-7 53q113 22 225 19q5 -42 5 -192z" />
    <glyph glyph-name="uni0490" unicode="&#x490;" horiz-adv-x="570" 
d="M565 845v-345h-254v-500q-75 -9 -145 -9q-52 0 -93 4v705h292v145h200z" />
    <glyph glyph-name="uni0491" unicode="&#x491;" horiz-adv-x="464" 
d="M461 648v-304h-187v-160q0 -115 8 -179q-80 -11 -149 -11q-36 0 -74 3q-5 40 -5 187v330h237v134h170z" />
    <glyph glyph-name="uni04BA" unicode="&#x4ba;" horiz-adv-x="756" 
d="M659.5 455.5q66.5 -52.5 66.5 -195.5v-76v0v-184q-75 -9 -145 -9q-52 0 -93 4v230q0 63 -73 63q-25 0 -53.5 -6.5t-50.5 -14.5v-83v0v-184q-75 -9 -145 -9q-52 0 -93 4v519v186q160 0 238 5v-191v0v-32q34 10 84 18t96 8q102 0 168.5 -52.5z" />
    <glyph glyph-name="uni04BB" unicode="&#x4bb;" horiz-adv-x="651" 
d="M608 64.5q3 -44.5 7 -53.5q-122 -22 -225 -19q-5 43 -5 192v110q0 23 -11.5 36t-32.5 13q-30 0 -48.5 -24t-18.5 -64v-71q0 -115 8 -179q-80 -11 -149 -11q-36 0 -74 3q-5 40 -5 187v524q30 13 63.5 23t82.5 21q38 8 74 18v-345q20 49 64 76.5t99 27.5q79 0 123.5 -53.5
t44.5 -152.5v-139q0 -75 3 -119.5z" />
    <glyph glyph-name="uni1D43" unicode="&#x1d43;" 
d="M224 553q-17 21 -29 57q-15 -28 -40.5 -42.5t-54.5 -14.5q-38 0 -63.5 22t-25.5 62q0 50 41.5 78t110.5 28l29 -1q-7 41 -57 41q-23 0 -47.5 -7t-41.5 -16q-9 31 -11 79q22 16 60.5 28t83.5 12q140 0 140 -136v-52q0 -75 16 -111q-46 -22 -111 -27zM189 691q-5 1 -18 1
q-47 0 -47 -25q0 -9 6.5 -14.5t17.5 -5.5q32 0 41 44z" />
    <glyph glyph-name="uni1D47" unicode="&#x1d47;" horiz-adv-x="385" 
d="M339.5 839q34.5 -41 34.5 -105q0 -81 -56.5 -131t-156.5 -50q-64 0 -129 21v0v0v408v5q27 12 87 26q15 3 45 11v-42v-144q12 19 34 30.5t51 11.5q56 0 90.5 -41zM239 722q0 26 -9.5 41t-25.5 15q-17 0 -28.5 -14t-11.5 -35v-73q3 -1 9 -1q66 0 66 67z" />
    <glyph glyph-name="uni1D48" unicode="&#x1d48;" horiz-adv-x="387" 
d="M258 553q-17 21 -26 49q-13 -23 -37 -36t-59 -13q-56 0 -90.5 41t-34.5 105q0 80 55.5 129.5t154.5 50.5v108q27 12 87 26q15 3 45 11v-165v-168v0q0 -75 16 -111q-46 -22 -111 -27zM209.5 669q11.5 14 11.5 35v79h-9q-66 0 -66 -72q0 -26 9.5 -41t25.5 -15q17 0 28.5 14
z" />
    <glyph glyph-name="uni1D49" unicode="&#x1d49;" horiz-adv-x="321" 
d="M266.5 658.5q26.5 7.5 39.5 17.5q1 -6 1 -18q0 -18 -8 -64q-16 -17 -52 -29t-75 -12q-72 0 -117.5 41.5t-45.5 114.5q0 49 24.5 87.5t65.5 60.5t89 22q62 0 95 -34.5t33 -88.5q0 -18 -4 -32.5t-9 -21.5l-173 -3q5 -26 25 -37t54 -11q31 0 57.5 7.5zM144 774.5
q-11 -14.5 -15 -37.5l65 4l1 17q0 14 -6.5 22.5t-19.5 8.5q-14 0 -25 -14.5z" />
    <glyph glyph-name="uni1D4D" unicode="&#x1d4d;" horiz-adv-x="365" 
d="M343.5 605.5q18.5 -19.5 18.5 -51.5q0 -54 -49.5 -87.5t-142.5 -33.5q-72 0 -118.5 23t-46.5 60q0 21 18.5 39t47.5 27q-22 19 -22 50q0 35 30 56q-53 24 -53 79q0 53 46 82.5t109 29.5q25 0 52 -5h129q0 -12 -7 -49q-4 -15 -5 -25l-42 21q11 -20 11 -44q0 -52 -45.5 -78
t-110.5 -26q-15 0 -22 1q0 -8 10 -13.5t39 -10.5l94 -18q41 -7 59.5 -26.5zM151 795q-11 -7 -11 -20q0 -11 8 -18t20 -7q14 0 25 7.5t11 20.5q0 12 -8 18t-20 6q-14 0 -25 -7zM217 512q13 6 13 17q0 7 -5 10t-17 5l-66 12q-15 -10 -15 -20q0 -13 13.5 -21.5t43.5 -8.5
q20 0 33 6z" />
    <glyph glyph-name="uni1D4F" unicode="&#x1d4f;" horiz-adv-x="393" 
d="M405 570q-77 -14 -149 -13l-67 135l-25 -5v-15q0 -72 5 -107q-54 -7 -89 -7q-15 0 -45 2v0q-3 30 -3 112v315q28 12 88 26q18 4 44 11v-256l23 4l65 100q62 -2 92 -2h39l-97 -130z" />
    </font>
</defs>
</svg>
